G75*
%MOIN*%
%OFA0B0*%
%FSLAX25Y25*%
%IPPOS*%
%LPD*%
%AMOC8*
5,1,8,0,0,1.08239X$1,22.5*
%
%ADD10C,0.00000*%
%ADD11C,0.01000*%
%ADD12R,0.10200X0.02400*%
%ADD13C,0.00700*%
%ADD14C,0.00600*%
%ADD15C,0.00100*%
%ADD16C,0.00800*%
%ADD17C,0.00500*%
%ADD18C,0.00200*%
%ADD19C,0.00300*%
%ADD20C,0.00400*%
%ADD21C,0.00250*%
%ADD22C,0.00984*%
D10*
X0267800Y0413800D02*
X0258300Y0423300D01*
X0258300Y0598800D01*
X0203800Y0598800D01*
X0264193Y0537489D02*
X0264195Y0537614D01*
X0264201Y0537740D01*
X0264211Y0537864D01*
X0264225Y0537989D01*
X0264243Y0538113D01*
X0264264Y0538237D01*
X0264290Y0538359D01*
X0264320Y0538481D01*
X0264353Y0538602D01*
X0264390Y0538722D01*
X0264431Y0538840D01*
X0264476Y0538957D01*
X0264524Y0539073D01*
X0264576Y0539187D01*
X0264632Y0539299D01*
X0264691Y0539409D01*
X0264754Y0539518D01*
X0264820Y0539625D01*
X0264889Y0539729D01*
X0264962Y0539831D01*
X0265038Y0539931D01*
X0265117Y0540028D01*
X0265199Y0540123D01*
X0265284Y0540215D01*
X0265372Y0540304D01*
X0265463Y0540391D01*
X0265556Y0540474D01*
X0265652Y0540555D01*
X0265751Y0540632D01*
X0265852Y0540707D01*
X0265955Y0540778D01*
X0266060Y0540845D01*
X0266168Y0540910D01*
X0266278Y0540971D01*
X0266389Y0541028D01*
X0266502Y0541082D01*
X0266617Y0541132D01*
X0266733Y0541179D01*
X0266851Y0541222D01*
X0266970Y0541261D01*
X0267090Y0541296D01*
X0267212Y0541328D01*
X0267334Y0541355D01*
X0267457Y0541379D01*
X0267581Y0541399D01*
X0267705Y0541415D01*
X0267830Y0541427D01*
X0267955Y0541435D01*
X0268080Y0541439D01*
X0268206Y0541439D01*
X0268331Y0541435D01*
X0268456Y0541427D01*
X0268581Y0541415D01*
X0268705Y0541399D01*
X0268829Y0541379D01*
X0268952Y0541355D01*
X0269074Y0541328D01*
X0269196Y0541296D01*
X0269316Y0541261D01*
X0269435Y0541222D01*
X0269553Y0541179D01*
X0269669Y0541132D01*
X0269784Y0541082D01*
X0269897Y0541028D01*
X0270008Y0540971D01*
X0270118Y0540910D01*
X0270226Y0540845D01*
X0270331Y0540778D01*
X0270434Y0540707D01*
X0270535Y0540632D01*
X0270634Y0540555D01*
X0270730Y0540474D01*
X0270823Y0540391D01*
X0270914Y0540304D01*
X0271002Y0540215D01*
X0271087Y0540123D01*
X0271169Y0540028D01*
X0271248Y0539931D01*
X0271324Y0539831D01*
X0271397Y0539729D01*
X0271466Y0539625D01*
X0271532Y0539518D01*
X0271595Y0539409D01*
X0271654Y0539299D01*
X0271710Y0539187D01*
X0271762Y0539073D01*
X0271810Y0538957D01*
X0271855Y0538840D01*
X0271896Y0538722D01*
X0271933Y0538602D01*
X0271966Y0538481D01*
X0271996Y0538359D01*
X0272022Y0538237D01*
X0272043Y0538113D01*
X0272061Y0537989D01*
X0272075Y0537864D01*
X0272085Y0537740D01*
X0272091Y0537614D01*
X0272093Y0537489D01*
X0272091Y0537364D01*
X0272085Y0537238D01*
X0272075Y0537114D01*
X0272061Y0536989D01*
X0272043Y0536865D01*
X0272022Y0536741D01*
X0271996Y0536619D01*
X0271966Y0536497D01*
X0271933Y0536376D01*
X0271896Y0536256D01*
X0271855Y0536138D01*
X0271810Y0536021D01*
X0271762Y0535905D01*
X0271710Y0535791D01*
X0271654Y0535679D01*
X0271595Y0535569D01*
X0271532Y0535460D01*
X0271466Y0535353D01*
X0271397Y0535249D01*
X0271324Y0535147D01*
X0271248Y0535047D01*
X0271169Y0534950D01*
X0271087Y0534855D01*
X0271002Y0534763D01*
X0270914Y0534674D01*
X0270823Y0534587D01*
X0270730Y0534504D01*
X0270634Y0534423D01*
X0270535Y0534346D01*
X0270434Y0534271D01*
X0270331Y0534200D01*
X0270226Y0534133D01*
X0270118Y0534068D01*
X0270008Y0534007D01*
X0269897Y0533950D01*
X0269784Y0533896D01*
X0269669Y0533846D01*
X0269553Y0533799D01*
X0269435Y0533756D01*
X0269316Y0533717D01*
X0269196Y0533682D01*
X0269074Y0533650D01*
X0268952Y0533623D01*
X0268829Y0533599D01*
X0268705Y0533579D01*
X0268581Y0533563D01*
X0268456Y0533551D01*
X0268331Y0533543D01*
X0268206Y0533539D01*
X0268080Y0533539D01*
X0267955Y0533543D01*
X0267830Y0533551D01*
X0267705Y0533563D01*
X0267581Y0533579D01*
X0267457Y0533599D01*
X0267334Y0533623D01*
X0267212Y0533650D01*
X0267090Y0533682D01*
X0266970Y0533717D01*
X0266851Y0533756D01*
X0266733Y0533799D01*
X0266617Y0533846D01*
X0266502Y0533896D01*
X0266389Y0533950D01*
X0266278Y0534007D01*
X0266168Y0534068D01*
X0266060Y0534133D01*
X0265955Y0534200D01*
X0265852Y0534271D01*
X0265751Y0534346D01*
X0265652Y0534423D01*
X0265556Y0534504D01*
X0265463Y0534587D01*
X0265372Y0534674D01*
X0265284Y0534763D01*
X0265199Y0534855D01*
X0265117Y0534950D01*
X0265038Y0535047D01*
X0264962Y0535147D01*
X0264889Y0535249D01*
X0264820Y0535353D01*
X0264754Y0535460D01*
X0264691Y0535569D01*
X0264632Y0535679D01*
X0264576Y0535791D01*
X0264524Y0535905D01*
X0264476Y0536021D01*
X0264431Y0536138D01*
X0264390Y0536256D01*
X0264353Y0536376D01*
X0264320Y0536497D01*
X0264290Y0536619D01*
X0264264Y0536741D01*
X0264243Y0536865D01*
X0264225Y0536989D01*
X0264211Y0537114D01*
X0264201Y0537238D01*
X0264195Y0537364D01*
X0264193Y0537489D01*
X0263800Y0499300D02*
X0463800Y0499300D01*
X0455507Y0461111D02*
X0455509Y0461236D01*
X0455515Y0461362D01*
X0455525Y0461486D01*
X0455539Y0461611D01*
X0455557Y0461735D01*
X0455578Y0461859D01*
X0455604Y0461981D01*
X0455634Y0462103D01*
X0455667Y0462224D01*
X0455704Y0462344D01*
X0455745Y0462462D01*
X0455790Y0462579D01*
X0455838Y0462695D01*
X0455890Y0462809D01*
X0455946Y0462921D01*
X0456005Y0463031D01*
X0456068Y0463140D01*
X0456134Y0463247D01*
X0456203Y0463351D01*
X0456276Y0463453D01*
X0456352Y0463553D01*
X0456431Y0463650D01*
X0456513Y0463745D01*
X0456598Y0463837D01*
X0456686Y0463926D01*
X0456777Y0464013D01*
X0456870Y0464096D01*
X0456966Y0464177D01*
X0457065Y0464254D01*
X0457166Y0464329D01*
X0457269Y0464400D01*
X0457374Y0464467D01*
X0457482Y0464532D01*
X0457592Y0464593D01*
X0457703Y0464650D01*
X0457816Y0464704D01*
X0457931Y0464754D01*
X0458047Y0464801D01*
X0458165Y0464844D01*
X0458284Y0464883D01*
X0458404Y0464918D01*
X0458526Y0464950D01*
X0458648Y0464977D01*
X0458771Y0465001D01*
X0458895Y0465021D01*
X0459019Y0465037D01*
X0459144Y0465049D01*
X0459269Y0465057D01*
X0459394Y0465061D01*
X0459520Y0465061D01*
X0459645Y0465057D01*
X0459770Y0465049D01*
X0459895Y0465037D01*
X0460019Y0465021D01*
X0460143Y0465001D01*
X0460266Y0464977D01*
X0460388Y0464950D01*
X0460510Y0464918D01*
X0460630Y0464883D01*
X0460749Y0464844D01*
X0460867Y0464801D01*
X0460983Y0464754D01*
X0461098Y0464704D01*
X0461211Y0464650D01*
X0461322Y0464593D01*
X0461432Y0464532D01*
X0461540Y0464467D01*
X0461645Y0464400D01*
X0461748Y0464329D01*
X0461849Y0464254D01*
X0461948Y0464177D01*
X0462044Y0464096D01*
X0462137Y0464013D01*
X0462228Y0463926D01*
X0462316Y0463837D01*
X0462401Y0463745D01*
X0462483Y0463650D01*
X0462562Y0463553D01*
X0462638Y0463453D01*
X0462711Y0463351D01*
X0462780Y0463247D01*
X0462846Y0463140D01*
X0462909Y0463031D01*
X0462968Y0462921D01*
X0463024Y0462809D01*
X0463076Y0462695D01*
X0463124Y0462579D01*
X0463169Y0462462D01*
X0463210Y0462344D01*
X0463247Y0462224D01*
X0463280Y0462103D01*
X0463310Y0461981D01*
X0463336Y0461859D01*
X0463357Y0461735D01*
X0463375Y0461611D01*
X0463389Y0461486D01*
X0463399Y0461362D01*
X0463405Y0461236D01*
X0463407Y0461111D01*
X0463405Y0460986D01*
X0463399Y0460860D01*
X0463389Y0460736D01*
X0463375Y0460611D01*
X0463357Y0460487D01*
X0463336Y0460363D01*
X0463310Y0460241D01*
X0463280Y0460119D01*
X0463247Y0459998D01*
X0463210Y0459878D01*
X0463169Y0459760D01*
X0463124Y0459643D01*
X0463076Y0459527D01*
X0463024Y0459413D01*
X0462968Y0459301D01*
X0462909Y0459191D01*
X0462846Y0459082D01*
X0462780Y0458975D01*
X0462711Y0458871D01*
X0462638Y0458769D01*
X0462562Y0458669D01*
X0462483Y0458572D01*
X0462401Y0458477D01*
X0462316Y0458385D01*
X0462228Y0458296D01*
X0462137Y0458209D01*
X0462044Y0458126D01*
X0461948Y0458045D01*
X0461849Y0457968D01*
X0461748Y0457893D01*
X0461645Y0457822D01*
X0461540Y0457755D01*
X0461432Y0457690D01*
X0461322Y0457629D01*
X0461211Y0457572D01*
X0461098Y0457518D01*
X0460983Y0457468D01*
X0460867Y0457421D01*
X0460749Y0457378D01*
X0460630Y0457339D01*
X0460510Y0457304D01*
X0460388Y0457272D01*
X0460266Y0457245D01*
X0460143Y0457221D01*
X0460019Y0457201D01*
X0459895Y0457185D01*
X0459770Y0457173D01*
X0459645Y0457165D01*
X0459520Y0457161D01*
X0459394Y0457161D01*
X0459269Y0457165D01*
X0459144Y0457173D01*
X0459019Y0457185D01*
X0458895Y0457201D01*
X0458771Y0457221D01*
X0458648Y0457245D01*
X0458526Y0457272D01*
X0458404Y0457304D01*
X0458284Y0457339D01*
X0458165Y0457378D01*
X0458047Y0457421D01*
X0457931Y0457468D01*
X0457816Y0457518D01*
X0457703Y0457572D01*
X0457592Y0457629D01*
X0457482Y0457690D01*
X0457374Y0457755D01*
X0457269Y0457822D01*
X0457166Y0457893D01*
X0457065Y0457968D01*
X0456966Y0458045D01*
X0456870Y0458126D01*
X0456777Y0458209D01*
X0456686Y0458296D01*
X0456598Y0458385D01*
X0456513Y0458477D01*
X0456431Y0458572D01*
X0456352Y0458669D01*
X0456276Y0458769D01*
X0456203Y0458871D01*
X0456134Y0458975D01*
X0456068Y0459082D01*
X0456005Y0459191D01*
X0455946Y0459301D01*
X0455890Y0459413D01*
X0455838Y0459527D01*
X0455790Y0459643D01*
X0455745Y0459760D01*
X0455704Y0459878D01*
X0455667Y0459998D01*
X0455634Y0460119D01*
X0455604Y0460241D01*
X0455578Y0460363D01*
X0455557Y0460487D01*
X0455539Y0460611D01*
X0455525Y0460736D01*
X0455515Y0460860D01*
X0455509Y0460986D01*
X0455507Y0461111D01*
X0469300Y0423300D02*
X0459800Y0413800D01*
X0267800Y0413800D01*
X0264193Y0461111D02*
X0264195Y0461236D01*
X0264201Y0461362D01*
X0264211Y0461486D01*
X0264225Y0461611D01*
X0264243Y0461735D01*
X0264264Y0461859D01*
X0264290Y0461981D01*
X0264320Y0462103D01*
X0264353Y0462224D01*
X0264390Y0462344D01*
X0264431Y0462462D01*
X0264476Y0462579D01*
X0264524Y0462695D01*
X0264576Y0462809D01*
X0264632Y0462921D01*
X0264691Y0463031D01*
X0264754Y0463140D01*
X0264820Y0463247D01*
X0264889Y0463351D01*
X0264962Y0463453D01*
X0265038Y0463553D01*
X0265117Y0463650D01*
X0265199Y0463745D01*
X0265284Y0463837D01*
X0265372Y0463926D01*
X0265463Y0464013D01*
X0265556Y0464096D01*
X0265652Y0464177D01*
X0265751Y0464254D01*
X0265852Y0464329D01*
X0265955Y0464400D01*
X0266060Y0464467D01*
X0266168Y0464532D01*
X0266278Y0464593D01*
X0266389Y0464650D01*
X0266502Y0464704D01*
X0266617Y0464754D01*
X0266733Y0464801D01*
X0266851Y0464844D01*
X0266970Y0464883D01*
X0267090Y0464918D01*
X0267212Y0464950D01*
X0267334Y0464977D01*
X0267457Y0465001D01*
X0267581Y0465021D01*
X0267705Y0465037D01*
X0267830Y0465049D01*
X0267955Y0465057D01*
X0268080Y0465061D01*
X0268206Y0465061D01*
X0268331Y0465057D01*
X0268456Y0465049D01*
X0268581Y0465037D01*
X0268705Y0465021D01*
X0268829Y0465001D01*
X0268952Y0464977D01*
X0269074Y0464950D01*
X0269196Y0464918D01*
X0269316Y0464883D01*
X0269435Y0464844D01*
X0269553Y0464801D01*
X0269669Y0464754D01*
X0269784Y0464704D01*
X0269897Y0464650D01*
X0270008Y0464593D01*
X0270118Y0464532D01*
X0270226Y0464467D01*
X0270331Y0464400D01*
X0270434Y0464329D01*
X0270535Y0464254D01*
X0270634Y0464177D01*
X0270730Y0464096D01*
X0270823Y0464013D01*
X0270914Y0463926D01*
X0271002Y0463837D01*
X0271087Y0463745D01*
X0271169Y0463650D01*
X0271248Y0463553D01*
X0271324Y0463453D01*
X0271397Y0463351D01*
X0271466Y0463247D01*
X0271532Y0463140D01*
X0271595Y0463031D01*
X0271654Y0462921D01*
X0271710Y0462809D01*
X0271762Y0462695D01*
X0271810Y0462579D01*
X0271855Y0462462D01*
X0271896Y0462344D01*
X0271933Y0462224D01*
X0271966Y0462103D01*
X0271996Y0461981D01*
X0272022Y0461859D01*
X0272043Y0461735D01*
X0272061Y0461611D01*
X0272075Y0461486D01*
X0272085Y0461362D01*
X0272091Y0461236D01*
X0272093Y0461111D01*
X0272091Y0460986D01*
X0272085Y0460860D01*
X0272075Y0460736D01*
X0272061Y0460611D01*
X0272043Y0460487D01*
X0272022Y0460363D01*
X0271996Y0460241D01*
X0271966Y0460119D01*
X0271933Y0459998D01*
X0271896Y0459878D01*
X0271855Y0459760D01*
X0271810Y0459643D01*
X0271762Y0459527D01*
X0271710Y0459413D01*
X0271654Y0459301D01*
X0271595Y0459191D01*
X0271532Y0459082D01*
X0271466Y0458975D01*
X0271397Y0458871D01*
X0271324Y0458769D01*
X0271248Y0458669D01*
X0271169Y0458572D01*
X0271087Y0458477D01*
X0271002Y0458385D01*
X0270914Y0458296D01*
X0270823Y0458209D01*
X0270730Y0458126D01*
X0270634Y0458045D01*
X0270535Y0457968D01*
X0270434Y0457893D01*
X0270331Y0457822D01*
X0270226Y0457755D01*
X0270118Y0457690D01*
X0270008Y0457629D01*
X0269897Y0457572D01*
X0269784Y0457518D01*
X0269669Y0457468D01*
X0269553Y0457421D01*
X0269435Y0457378D01*
X0269316Y0457339D01*
X0269196Y0457304D01*
X0269074Y0457272D01*
X0268952Y0457245D01*
X0268829Y0457221D01*
X0268705Y0457201D01*
X0268581Y0457185D01*
X0268456Y0457173D01*
X0268331Y0457165D01*
X0268206Y0457161D01*
X0268080Y0457161D01*
X0267955Y0457165D01*
X0267830Y0457173D01*
X0267705Y0457185D01*
X0267581Y0457201D01*
X0267457Y0457221D01*
X0267334Y0457245D01*
X0267212Y0457272D01*
X0267090Y0457304D01*
X0266970Y0457339D01*
X0266851Y0457378D01*
X0266733Y0457421D01*
X0266617Y0457468D01*
X0266502Y0457518D01*
X0266389Y0457572D01*
X0266278Y0457629D01*
X0266168Y0457690D01*
X0266060Y0457755D01*
X0265955Y0457822D01*
X0265852Y0457893D01*
X0265751Y0457968D01*
X0265652Y0458045D01*
X0265556Y0458126D01*
X0265463Y0458209D01*
X0265372Y0458296D01*
X0265284Y0458385D01*
X0265199Y0458477D01*
X0265117Y0458572D01*
X0265038Y0458669D01*
X0264962Y0458769D01*
X0264889Y0458871D01*
X0264820Y0458975D01*
X0264754Y0459082D01*
X0264691Y0459191D01*
X0264632Y0459301D01*
X0264576Y0459413D01*
X0264524Y0459527D01*
X0264476Y0459643D01*
X0264431Y0459760D01*
X0264390Y0459878D01*
X0264353Y0459998D01*
X0264320Y0460119D01*
X0264290Y0460241D01*
X0264264Y0460363D01*
X0264243Y0460487D01*
X0264225Y0460611D01*
X0264211Y0460736D01*
X0264201Y0460860D01*
X0264195Y0460986D01*
X0264193Y0461111D01*
X0203800Y0598800D02*
X0204539Y0602711D01*
X0205374Y0606602D01*
X0206303Y0610472D01*
X0207328Y0614317D01*
X0208446Y0618137D01*
X0209657Y0621928D01*
X0210961Y0625688D01*
X0212356Y0629415D01*
X0213842Y0633106D01*
X0215419Y0636761D01*
X0217084Y0640375D01*
X0218837Y0643948D01*
X0220678Y0647476D01*
X0222604Y0650959D01*
X0224615Y0654393D01*
X0226709Y0657777D01*
X0228886Y0661109D01*
X0231143Y0664386D01*
X0233481Y0667607D01*
X0235896Y0670770D01*
X0238388Y0673873D01*
X0240956Y0676914D01*
X0243597Y0679891D01*
X0246310Y0682802D01*
X0249094Y0685646D01*
X0251946Y0688421D01*
X0254866Y0691125D01*
X0257851Y0693757D01*
X0260900Y0696315D01*
X0264010Y0698798D01*
X0267180Y0701204D01*
X0270409Y0703531D01*
X0273693Y0705779D01*
X0277031Y0707945D01*
X0280421Y0710029D01*
X0283862Y0712030D01*
X0287350Y0713945D01*
X0290884Y0715775D01*
X0294462Y0717517D01*
X0298082Y0719171D01*
X0301741Y0720736D01*
X0305437Y0722211D01*
X0309169Y0723595D01*
X0312933Y0724888D01*
X0316727Y0726087D01*
X0320550Y0727194D01*
X0324399Y0728206D01*
X0328271Y0729124D01*
X0332165Y0729946D01*
X0336078Y0730673D01*
X0340007Y0731304D01*
X0343951Y0731839D01*
X0347906Y0732277D01*
X0351871Y0732617D01*
X0355844Y0732861D01*
X0359821Y0733007D01*
X0363800Y0733056D01*
X0367779Y0733007D01*
X0371756Y0732861D01*
X0375729Y0732617D01*
X0379694Y0732277D01*
X0383649Y0731839D01*
X0387593Y0731304D01*
X0391522Y0730673D01*
X0395435Y0729946D01*
X0399329Y0729124D01*
X0403201Y0728206D01*
X0407050Y0727194D01*
X0410873Y0726087D01*
X0414667Y0724888D01*
X0418431Y0723595D01*
X0422163Y0722211D01*
X0425859Y0720736D01*
X0429518Y0719171D01*
X0433138Y0717517D01*
X0436716Y0715775D01*
X0440250Y0713945D01*
X0443738Y0712030D01*
X0447179Y0710029D01*
X0450569Y0707945D01*
X0453907Y0705779D01*
X0457191Y0703531D01*
X0460420Y0701204D01*
X0463590Y0698798D01*
X0466700Y0696315D01*
X0469749Y0693757D01*
X0472734Y0691125D01*
X0475654Y0688421D01*
X0478506Y0685646D01*
X0481290Y0682802D01*
X0484003Y0679891D01*
X0486644Y0676914D01*
X0489212Y0673873D01*
X0491704Y0670770D01*
X0494119Y0667607D01*
X0496457Y0664386D01*
X0498714Y0661109D01*
X0500891Y0657777D01*
X0502985Y0654393D01*
X0504996Y0650959D01*
X0506922Y0647476D01*
X0508763Y0643948D01*
X0510516Y0640375D01*
X0512181Y0636761D01*
X0513758Y0633106D01*
X0515244Y0629415D01*
X0516639Y0625688D01*
X0517943Y0621928D01*
X0519154Y0618137D01*
X0520272Y0614317D01*
X0521297Y0610472D01*
X0522226Y0606602D01*
X0523061Y0602711D01*
X0523800Y0598800D01*
X0469300Y0598800D01*
X0469300Y0423300D01*
X0455507Y0537489D02*
X0455509Y0537614D01*
X0455515Y0537740D01*
X0455525Y0537864D01*
X0455539Y0537989D01*
X0455557Y0538113D01*
X0455578Y0538237D01*
X0455604Y0538359D01*
X0455634Y0538481D01*
X0455667Y0538602D01*
X0455704Y0538722D01*
X0455745Y0538840D01*
X0455790Y0538957D01*
X0455838Y0539073D01*
X0455890Y0539187D01*
X0455946Y0539299D01*
X0456005Y0539409D01*
X0456068Y0539518D01*
X0456134Y0539625D01*
X0456203Y0539729D01*
X0456276Y0539831D01*
X0456352Y0539931D01*
X0456431Y0540028D01*
X0456513Y0540123D01*
X0456598Y0540215D01*
X0456686Y0540304D01*
X0456777Y0540391D01*
X0456870Y0540474D01*
X0456966Y0540555D01*
X0457065Y0540632D01*
X0457166Y0540707D01*
X0457269Y0540778D01*
X0457374Y0540845D01*
X0457482Y0540910D01*
X0457592Y0540971D01*
X0457703Y0541028D01*
X0457816Y0541082D01*
X0457931Y0541132D01*
X0458047Y0541179D01*
X0458165Y0541222D01*
X0458284Y0541261D01*
X0458404Y0541296D01*
X0458526Y0541328D01*
X0458648Y0541355D01*
X0458771Y0541379D01*
X0458895Y0541399D01*
X0459019Y0541415D01*
X0459144Y0541427D01*
X0459269Y0541435D01*
X0459394Y0541439D01*
X0459520Y0541439D01*
X0459645Y0541435D01*
X0459770Y0541427D01*
X0459895Y0541415D01*
X0460019Y0541399D01*
X0460143Y0541379D01*
X0460266Y0541355D01*
X0460388Y0541328D01*
X0460510Y0541296D01*
X0460630Y0541261D01*
X0460749Y0541222D01*
X0460867Y0541179D01*
X0460983Y0541132D01*
X0461098Y0541082D01*
X0461211Y0541028D01*
X0461322Y0540971D01*
X0461432Y0540910D01*
X0461540Y0540845D01*
X0461645Y0540778D01*
X0461748Y0540707D01*
X0461849Y0540632D01*
X0461948Y0540555D01*
X0462044Y0540474D01*
X0462137Y0540391D01*
X0462228Y0540304D01*
X0462316Y0540215D01*
X0462401Y0540123D01*
X0462483Y0540028D01*
X0462562Y0539931D01*
X0462638Y0539831D01*
X0462711Y0539729D01*
X0462780Y0539625D01*
X0462846Y0539518D01*
X0462909Y0539409D01*
X0462968Y0539299D01*
X0463024Y0539187D01*
X0463076Y0539073D01*
X0463124Y0538957D01*
X0463169Y0538840D01*
X0463210Y0538722D01*
X0463247Y0538602D01*
X0463280Y0538481D01*
X0463310Y0538359D01*
X0463336Y0538237D01*
X0463357Y0538113D01*
X0463375Y0537989D01*
X0463389Y0537864D01*
X0463399Y0537740D01*
X0463405Y0537614D01*
X0463407Y0537489D01*
X0463405Y0537364D01*
X0463399Y0537238D01*
X0463389Y0537114D01*
X0463375Y0536989D01*
X0463357Y0536865D01*
X0463336Y0536741D01*
X0463310Y0536619D01*
X0463280Y0536497D01*
X0463247Y0536376D01*
X0463210Y0536256D01*
X0463169Y0536138D01*
X0463124Y0536021D01*
X0463076Y0535905D01*
X0463024Y0535791D01*
X0462968Y0535679D01*
X0462909Y0535569D01*
X0462846Y0535460D01*
X0462780Y0535353D01*
X0462711Y0535249D01*
X0462638Y0535147D01*
X0462562Y0535047D01*
X0462483Y0534950D01*
X0462401Y0534855D01*
X0462316Y0534763D01*
X0462228Y0534674D01*
X0462137Y0534587D01*
X0462044Y0534504D01*
X0461948Y0534423D01*
X0461849Y0534346D01*
X0461748Y0534271D01*
X0461645Y0534200D01*
X0461540Y0534133D01*
X0461432Y0534068D01*
X0461322Y0534007D01*
X0461211Y0533950D01*
X0461098Y0533896D01*
X0460983Y0533846D01*
X0460867Y0533799D01*
X0460749Y0533756D01*
X0460630Y0533717D01*
X0460510Y0533682D01*
X0460388Y0533650D01*
X0460266Y0533623D01*
X0460143Y0533599D01*
X0460019Y0533579D01*
X0459895Y0533563D01*
X0459770Y0533551D01*
X0459645Y0533543D01*
X0459520Y0533539D01*
X0459394Y0533539D01*
X0459269Y0533543D01*
X0459144Y0533551D01*
X0459019Y0533563D01*
X0458895Y0533579D01*
X0458771Y0533599D01*
X0458648Y0533623D01*
X0458526Y0533650D01*
X0458404Y0533682D01*
X0458284Y0533717D01*
X0458165Y0533756D01*
X0458047Y0533799D01*
X0457931Y0533846D01*
X0457816Y0533896D01*
X0457703Y0533950D01*
X0457592Y0534007D01*
X0457482Y0534068D01*
X0457374Y0534133D01*
X0457269Y0534200D01*
X0457166Y0534271D01*
X0457065Y0534346D01*
X0456966Y0534423D01*
X0456870Y0534504D01*
X0456777Y0534587D01*
X0456686Y0534674D01*
X0456598Y0534763D01*
X0456513Y0534855D01*
X0456431Y0534950D01*
X0456352Y0535047D01*
X0456276Y0535147D01*
X0456203Y0535249D01*
X0456134Y0535353D01*
X0456068Y0535460D01*
X0456005Y0535569D01*
X0455946Y0535679D01*
X0455890Y0535791D01*
X0455838Y0535905D01*
X0455790Y0536021D01*
X0455745Y0536138D01*
X0455704Y0536256D01*
X0455667Y0536376D01*
X0455634Y0536497D01*
X0455604Y0536619D01*
X0455578Y0536741D01*
X0455557Y0536865D01*
X0455539Y0536989D01*
X0455525Y0537114D01*
X0455515Y0537238D01*
X0455509Y0537364D01*
X0455507Y0537489D01*
D11*
X0451800Y0523800D02*
X0451800Y0471800D01*
X0375300Y0471800D01*
X0375300Y0523800D01*
X0451800Y0523800D01*
X0451800Y0523614D02*
X0375300Y0523614D01*
X0375300Y0522615D02*
X0451800Y0522615D01*
X0451800Y0521617D02*
X0375300Y0521617D01*
X0375300Y0520618D02*
X0451800Y0520618D01*
X0451800Y0519620D02*
X0375300Y0519620D01*
X0375300Y0518621D02*
X0451800Y0518621D01*
X0451800Y0517623D02*
X0375300Y0517623D01*
X0375300Y0516624D02*
X0451800Y0516624D01*
X0451800Y0515626D02*
X0375300Y0515626D01*
X0375300Y0514627D02*
X0451800Y0514627D01*
X0451800Y0513629D02*
X0375300Y0513629D01*
X0375300Y0512630D02*
X0451800Y0512630D01*
X0451800Y0511632D02*
X0375300Y0511632D01*
X0375300Y0510633D02*
X0451800Y0510633D01*
X0451800Y0509635D02*
X0375300Y0509635D01*
X0375300Y0508636D02*
X0451800Y0508636D01*
X0451800Y0507638D02*
X0375300Y0507638D01*
X0375300Y0506639D02*
X0451800Y0506639D01*
X0451800Y0505641D02*
X0375300Y0505641D01*
X0375300Y0504642D02*
X0451800Y0504642D01*
X0451800Y0503644D02*
X0375300Y0503644D01*
X0375300Y0502645D02*
X0451800Y0502645D01*
X0451800Y0501647D02*
X0375300Y0501647D01*
X0375300Y0500648D02*
X0451800Y0500648D01*
X0451800Y0499650D02*
X0375300Y0499650D01*
X0375300Y0498651D02*
X0451800Y0498651D01*
X0451800Y0497653D02*
X0375300Y0497653D01*
X0375300Y0496654D02*
X0451800Y0496654D01*
X0451800Y0495656D02*
X0375300Y0495656D01*
X0375300Y0494657D02*
X0451800Y0494657D01*
X0451800Y0493659D02*
X0375300Y0493659D01*
X0375300Y0492660D02*
X0451800Y0492660D01*
X0451800Y0491662D02*
X0375300Y0491662D01*
X0375300Y0490663D02*
X0451800Y0490663D01*
X0451800Y0489665D02*
X0375300Y0489665D01*
X0375300Y0488666D02*
X0451800Y0488666D01*
X0451800Y0487668D02*
X0375300Y0487668D01*
X0375300Y0486669D02*
X0451800Y0486669D01*
X0451800Y0485670D02*
X0375300Y0485670D01*
X0375300Y0484672D02*
X0451800Y0484672D01*
X0451800Y0483673D02*
X0375300Y0483673D01*
X0375300Y0482675D02*
X0451800Y0482675D01*
X0451800Y0481676D02*
X0375300Y0481676D01*
X0375300Y0480678D02*
X0451800Y0480678D01*
X0451800Y0479679D02*
X0375300Y0479679D01*
X0375300Y0478681D02*
X0451800Y0478681D01*
X0451800Y0477682D02*
X0375300Y0477682D01*
X0375300Y0476684D02*
X0451800Y0476684D01*
X0451800Y0475685D02*
X0375300Y0475685D01*
X0375300Y0474687D02*
X0451800Y0474687D01*
X0451800Y0473688D02*
X0375300Y0473688D01*
X0375300Y0472690D02*
X0451800Y0472690D01*
X0352300Y0472690D02*
X0275800Y0472690D01*
X0275800Y0471800D02*
X0275800Y0523800D01*
X0352300Y0523800D01*
X0352300Y0471800D01*
X0275800Y0471800D01*
X0275800Y0473688D02*
X0352300Y0473688D01*
X0352300Y0474687D02*
X0275800Y0474687D01*
X0275800Y0475685D02*
X0352300Y0475685D01*
X0352300Y0476684D02*
X0275800Y0476684D01*
X0275800Y0477682D02*
X0352300Y0477682D01*
X0352300Y0478681D02*
X0275800Y0478681D01*
X0275800Y0479679D02*
X0352300Y0479679D01*
X0352300Y0480678D02*
X0275800Y0480678D01*
X0275800Y0481676D02*
X0352300Y0481676D01*
X0352300Y0482675D02*
X0275800Y0482675D01*
X0275800Y0483673D02*
X0352300Y0483673D01*
X0352300Y0484672D02*
X0275800Y0484672D01*
X0275800Y0485670D02*
X0352300Y0485670D01*
X0352300Y0486669D02*
X0275800Y0486669D01*
X0275800Y0487668D02*
X0352300Y0487668D01*
X0352300Y0488666D02*
X0275800Y0488666D01*
X0275800Y0489665D02*
X0352300Y0489665D01*
X0352300Y0490663D02*
X0275800Y0490663D01*
X0275800Y0491662D02*
X0352300Y0491662D01*
X0352300Y0492660D02*
X0275800Y0492660D01*
X0275800Y0493659D02*
X0352300Y0493659D01*
X0352300Y0494657D02*
X0275800Y0494657D01*
X0275800Y0495656D02*
X0352300Y0495656D01*
X0352300Y0496654D02*
X0275800Y0496654D01*
X0275800Y0497653D02*
X0352300Y0497653D01*
X0352300Y0498651D02*
X0275800Y0498651D01*
X0275800Y0499650D02*
X0352300Y0499650D01*
X0352300Y0500648D02*
X0275800Y0500648D01*
X0275800Y0501647D02*
X0352300Y0501647D01*
X0352300Y0502645D02*
X0275800Y0502645D01*
X0275800Y0503644D02*
X0352300Y0503644D01*
X0352300Y0504642D02*
X0275800Y0504642D01*
X0275800Y0505641D02*
X0352300Y0505641D01*
X0352300Y0506639D02*
X0275800Y0506639D01*
X0275800Y0507638D02*
X0352300Y0507638D01*
X0352300Y0508636D02*
X0275800Y0508636D01*
X0275800Y0509635D02*
X0352300Y0509635D01*
X0352300Y0510633D02*
X0275800Y0510633D01*
X0275800Y0511632D02*
X0352300Y0511632D01*
X0352300Y0512630D02*
X0275800Y0512630D01*
X0275800Y0513629D02*
X0352300Y0513629D01*
X0352300Y0514627D02*
X0275800Y0514627D01*
X0275800Y0515626D02*
X0352300Y0515626D01*
X0352300Y0516624D02*
X0275800Y0516624D01*
X0275800Y0517623D02*
X0352300Y0517623D01*
X0352300Y0518621D02*
X0275800Y0518621D01*
X0275800Y0519620D02*
X0352300Y0519620D01*
X0352300Y0520618D02*
X0275800Y0520618D01*
X0275800Y0521617D02*
X0352300Y0521617D01*
X0352300Y0522615D02*
X0275800Y0522615D01*
X0275800Y0523614D02*
X0352300Y0523614D01*
X0340900Y0434394D02*
X0308931Y0434394D01*
X0308931Y0415438D01*
X0340900Y0415438D01*
X0340900Y0415300D01*
X0310900Y0415300D01*
X0308931Y0415438D01*
X0340900Y0415438D02*
X0340900Y0434394D01*
X0223800Y0601300D02*
X0223987Y0601057D01*
X0224179Y0600819D01*
X0224378Y0600586D01*
X0224582Y0600358D01*
X0224791Y0600135D01*
X0225006Y0599917D01*
X0225226Y0599704D01*
X0225451Y0599497D01*
X0225682Y0599295D01*
X0225917Y0599099D01*
X0226157Y0598909D01*
X0226401Y0598725D01*
X0226650Y0598547D01*
X0226904Y0598375D01*
X0227161Y0598209D01*
X0227422Y0598049D01*
X0227687Y0597896D01*
X0227956Y0597750D01*
X0228229Y0597610D01*
X0228504Y0597477D01*
X0228783Y0597351D01*
X0229065Y0597231D01*
X0229350Y0597119D01*
X0229637Y0597014D01*
X0229927Y0596915D01*
X0230219Y0596824D01*
X0230514Y0596740D01*
X0230810Y0596663D01*
X0231108Y0596593D01*
X0231408Y0596531D01*
X0231709Y0596476D01*
X0232011Y0596429D01*
X0232315Y0596389D01*
X0232619Y0596356D01*
X0232924Y0596331D01*
X0233230Y0596313D01*
X0233536Y0596303D01*
X0233842Y0596300D01*
X0234148Y0596305D01*
X0234454Y0596317D01*
X0234760Y0596337D01*
X0235064Y0596364D01*
X0235369Y0596399D01*
X0235672Y0596441D01*
X0235974Y0596490D01*
X0236275Y0596547D01*
X0236574Y0596612D01*
X0236872Y0596683D01*
X0237167Y0596762D01*
X0237461Y0596848D01*
X0237753Y0596941D01*
X0238042Y0597042D01*
X0238329Y0597149D01*
X0238613Y0597264D01*
X0238894Y0597385D01*
X0239172Y0597513D01*
X0239447Y0597648D01*
X0239718Y0597790D01*
X0239986Y0597938D01*
X0240250Y0598093D01*
X0240510Y0598254D01*
X0240766Y0598421D01*
X0241019Y0598595D01*
X0241266Y0598775D01*
X0241510Y0598961D01*
X0241748Y0599152D01*
X0241982Y0599350D01*
X0242211Y0599553D01*
X0242435Y0599762D01*
X0242654Y0599976D01*
X0242867Y0600196D01*
X0243075Y0600420D01*
X0243278Y0600650D01*
X0243474Y0600884D01*
X0243665Y0601124D01*
X0243850Y0601367D01*
X0244029Y0601616D01*
X0244202Y0601868D01*
X0244369Y0602125D01*
X0244529Y0602386D01*
X0244683Y0602651D01*
X0244830Y0602919D01*
X0244971Y0603191D01*
X0245105Y0603466D01*
X0245232Y0603745D01*
X0245353Y0604026D01*
X0245466Y0604311D01*
X0245572Y0604598D01*
X0245672Y0604887D01*
X0245764Y0605179D01*
X0245849Y0605473D01*
X0245927Y0605769D01*
X0245998Y0606067D01*
X0246061Y0606367D01*
X0246117Y0606668D01*
X0246165Y0606970D01*
X0246206Y0607273D01*
X0246240Y0607577D01*
X0246266Y0607882D01*
X0246285Y0608188D01*
X0246296Y0608494D01*
X0246300Y0608800D01*
X0246296Y0609106D01*
X0246285Y0609412D01*
X0246266Y0609718D01*
X0246240Y0610023D01*
X0246206Y0610327D01*
X0246165Y0610630D01*
X0246117Y0610932D01*
X0246061Y0611233D01*
X0245998Y0611533D01*
X0245927Y0611831D01*
X0245849Y0612127D01*
X0245764Y0612421D01*
X0245672Y0612713D01*
X0245572Y0613002D01*
X0245466Y0613289D01*
X0245353Y0613574D01*
X0245232Y0613855D01*
X0245105Y0614134D01*
X0244971Y0614409D01*
X0244830Y0614681D01*
X0244683Y0614949D01*
X0244529Y0615214D01*
X0244369Y0615475D01*
X0244202Y0615732D01*
X0244029Y0615984D01*
X0243850Y0616233D01*
X0243665Y0616476D01*
X0243474Y0616716D01*
X0243278Y0616950D01*
X0243075Y0617180D01*
X0242867Y0617404D01*
X0242654Y0617624D01*
X0242435Y0617838D01*
X0242211Y0618047D01*
X0241982Y0618250D01*
X0241748Y0618448D01*
X0241510Y0618639D01*
X0241266Y0618825D01*
X0241019Y0619005D01*
X0240766Y0619179D01*
X0240510Y0619346D01*
X0240250Y0619507D01*
X0239986Y0619662D01*
X0239718Y0619810D01*
X0239447Y0619952D01*
X0239172Y0620087D01*
X0238894Y0620215D01*
X0238613Y0620336D01*
X0238329Y0620451D01*
X0238042Y0620558D01*
X0237753Y0620659D01*
X0237461Y0620752D01*
X0237167Y0620838D01*
X0236872Y0620917D01*
X0236574Y0620988D01*
X0236275Y0621053D01*
X0235974Y0621110D01*
X0235672Y0621159D01*
X0235369Y0621201D01*
X0235064Y0621236D01*
X0234760Y0621263D01*
X0234454Y0621283D01*
X0234148Y0621295D01*
X0233842Y0621300D01*
X0233536Y0621297D01*
X0233230Y0621287D01*
X0232924Y0621269D01*
X0232619Y0621244D01*
X0232315Y0621211D01*
X0232011Y0621171D01*
X0231709Y0621124D01*
X0231408Y0621069D01*
X0231108Y0621007D01*
X0230810Y0620937D01*
X0230514Y0620860D01*
X0230219Y0620776D01*
X0229927Y0620685D01*
X0229637Y0620586D01*
X0229350Y0620481D01*
X0229065Y0620369D01*
X0228783Y0620249D01*
X0228504Y0620123D01*
X0228229Y0619990D01*
X0227956Y0619850D01*
X0227687Y0619704D01*
X0227422Y0619551D01*
X0227161Y0619391D01*
X0226904Y0619225D01*
X0226650Y0619053D01*
X0226401Y0618875D01*
X0226157Y0618691D01*
X0225917Y0618501D01*
X0225682Y0618305D01*
X0225451Y0618103D01*
X0225226Y0617896D01*
X0225006Y0617683D01*
X0224791Y0617465D01*
X0224582Y0617242D01*
X0224378Y0617014D01*
X0224179Y0616781D01*
X0223987Y0616543D01*
X0223800Y0616300D01*
X0311426Y0687032D02*
X0311386Y0687336D01*
X0311354Y0687640D01*
X0311329Y0687945D01*
X0311312Y0688251D01*
X0311302Y0688557D01*
X0311300Y0688863D01*
X0311305Y0689169D01*
X0311318Y0689475D01*
X0311339Y0689781D01*
X0311366Y0690085D01*
X0311401Y0690389D01*
X0311444Y0690693D01*
X0311494Y0690995D01*
X0311552Y0691295D01*
X0311616Y0691595D01*
X0311688Y0691892D01*
X0311768Y0692188D01*
X0311854Y0692481D01*
X0311948Y0692773D01*
X0312049Y0693062D01*
X0312157Y0693348D01*
X0312272Y0693632D01*
X0312394Y0693913D01*
X0312522Y0694191D01*
X0312658Y0694465D01*
X0312800Y0694736D01*
X0312948Y0695004D01*
X0313103Y0695268D01*
X0313265Y0695528D01*
X0313433Y0695784D01*
X0313607Y0696036D01*
X0313787Y0696283D01*
X0313974Y0696526D01*
X0314166Y0696764D01*
X0314364Y0696998D01*
X0314567Y0697227D01*
X0314776Y0697450D01*
X0314991Y0697669D01*
X0315211Y0697882D01*
X0315436Y0698089D01*
X0315666Y0698291D01*
X0315901Y0698488D01*
X0316140Y0698678D01*
X0316384Y0698863D01*
X0316633Y0699041D01*
X0316886Y0699214D01*
X0317143Y0699380D01*
X0317404Y0699540D01*
X0317669Y0699693D01*
X0317938Y0699840D01*
X0318210Y0699980D01*
X0318485Y0700114D01*
X0318764Y0700241D01*
X0319046Y0700361D01*
X0319330Y0700473D01*
X0319617Y0700579D01*
X0319907Y0700678D01*
X0320199Y0700770D01*
X0320493Y0700855D01*
X0320790Y0700932D01*
X0321088Y0701002D01*
X0321387Y0701065D01*
X0321688Y0701120D01*
X0321991Y0701168D01*
X0322294Y0701209D01*
X0322598Y0701242D01*
X0322903Y0701268D01*
X0323209Y0701286D01*
X0323515Y0701297D01*
X0323821Y0701300D01*
X0324127Y0701296D01*
X0324433Y0701284D01*
X0324739Y0701265D01*
X0325044Y0701238D01*
X0325348Y0701204D01*
X0325651Y0701162D01*
X0325953Y0701113D01*
X0326254Y0701057D01*
X0326554Y0700993D01*
X0326851Y0700922D01*
X0327147Y0700844D01*
X0327441Y0700758D01*
X0327733Y0700665D01*
X0328022Y0700565D01*
X0328309Y0700458D01*
X0328593Y0700344D01*
X0328875Y0700224D01*
X0329153Y0700096D01*
X0329428Y0699961D01*
X0329699Y0699820D01*
X0329968Y0699673D01*
X0330232Y0699518D01*
X0330492Y0699358D01*
X0330749Y0699190D01*
X0331001Y0699017D01*
X0331249Y0698838D01*
X0331493Y0698652D01*
X0331732Y0698461D01*
X0331966Y0698264D01*
X0332195Y0698061D01*
X0332420Y0697853D01*
X0332639Y0697639D01*
X0332853Y0697420D01*
X0333061Y0697195D01*
X0333264Y0696966D01*
X0333461Y0696732D01*
X0333652Y0696493D01*
X0333838Y0696249D01*
X0334017Y0696001D01*
X0334190Y0695749D01*
X0334358Y0695492D01*
X0334518Y0695232D01*
X0334673Y0694968D01*
X0334820Y0694699D01*
X0334961Y0694428D01*
X0335096Y0694153D01*
X0335224Y0693875D01*
X0335344Y0693593D01*
X0335458Y0693309D01*
X0335565Y0693022D01*
X0335665Y0692733D01*
X0335758Y0692441D01*
X0335844Y0692147D01*
X0335922Y0691851D01*
X0335993Y0691554D01*
X0336057Y0691254D01*
X0336113Y0690953D01*
X0336162Y0690651D01*
X0336204Y0690348D01*
X0336238Y0690044D01*
X0336265Y0689739D01*
X0336284Y0689433D01*
X0336296Y0689127D01*
X0336300Y0688821D01*
X0336297Y0688515D01*
X0336286Y0688209D01*
X0336268Y0687903D01*
X0336242Y0687598D01*
X0336209Y0687294D01*
X0336168Y0686991D01*
X0336120Y0686688D01*
X0336065Y0686387D01*
X0336002Y0686088D01*
X0335932Y0685790D01*
X0335855Y0685493D01*
X0335770Y0685199D01*
X0335678Y0684907D01*
X0335579Y0684617D01*
X0335473Y0684330D01*
X0335361Y0684046D01*
X0335241Y0683764D01*
X0335114Y0683485D01*
X0334980Y0683210D01*
X0334840Y0682938D01*
X0334693Y0682669D01*
X0334540Y0682404D01*
X0334380Y0682143D01*
X0334214Y0681886D01*
X0334041Y0681633D01*
X0333863Y0681384D01*
X0333678Y0681140D01*
X0333488Y0680901D01*
X0333291Y0680666D01*
X0333089Y0680436D01*
X0332882Y0680211D01*
X0332669Y0679991D01*
X0332450Y0679776D01*
X0332227Y0679567D01*
X0331998Y0679364D01*
X0331764Y0679166D01*
X0331526Y0678974D01*
X0331283Y0678787D01*
X0331036Y0678607D01*
X0330784Y0678433D01*
X0330528Y0678265D01*
X0330268Y0678103D01*
X0330004Y0677948D01*
X0329736Y0677800D01*
X0329465Y0677658D01*
X0329191Y0677522D01*
X0328913Y0677394D01*
X0328632Y0677272D01*
X0328348Y0677157D01*
X0328062Y0677049D01*
X0327773Y0676948D01*
X0327481Y0676854D01*
X0327188Y0676768D01*
X0326892Y0676688D01*
X0326595Y0676616D01*
X0326295Y0676552D01*
X0325995Y0676494D01*
X0325693Y0676444D01*
X0325389Y0676401D01*
X0325085Y0676366D01*
X0324781Y0676339D01*
X0324475Y0676318D01*
X0324169Y0676305D01*
X0323863Y0676300D01*
X0323557Y0676302D01*
X0323251Y0676312D01*
X0322945Y0676329D01*
X0322640Y0676354D01*
X0322336Y0676386D01*
X0322032Y0676426D01*
X0405568Y0676426D02*
X0405264Y0676386D01*
X0404960Y0676354D01*
X0404655Y0676329D01*
X0404349Y0676312D01*
X0404043Y0676302D01*
X0403737Y0676300D01*
X0403431Y0676305D01*
X0403125Y0676318D01*
X0402819Y0676339D01*
X0402515Y0676366D01*
X0402211Y0676401D01*
X0401907Y0676444D01*
X0401605Y0676494D01*
X0401305Y0676552D01*
X0401005Y0676616D01*
X0400708Y0676688D01*
X0400412Y0676768D01*
X0400119Y0676854D01*
X0399827Y0676948D01*
X0399538Y0677049D01*
X0399252Y0677157D01*
X0398968Y0677272D01*
X0398687Y0677394D01*
X0398409Y0677522D01*
X0398135Y0677658D01*
X0397864Y0677800D01*
X0397596Y0677948D01*
X0397332Y0678103D01*
X0397072Y0678265D01*
X0396816Y0678433D01*
X0396564Y0678607D01*
X0396317Y0678787D01*
X0396074Y0678974D01*
X0395836Y0679166D01*
X0395602Y0679364D01*
X0395373Y0679567D01*
X0395150Y0679776D01*
X0394931Y0679991D01*
X0394718Y0680211D01*
X0394511Y0680436D01*
X0394309Y0680666D01*
X0394112Y0680901D01*
X0393922Y0681140D01*
X0393737Y0681384D01*
X0393559Y0681633D01*
X0393386Y0681886D01*
X0393220Y0682143D01*
X0393060Y0682404D01*
X0392907Y0682669D01*
X0392760Y0682938D01*
X0392620Y0683210D01*
X0392486Y0683485D01*
X0392359Y0683764D01*
X0392239Y0684046D01*
X0392127Y0684330D01*
X0392021Y0684617D01*
X0391922Y0684907D01*
X0391830Y0685199D01*
X0391745Y0685493D01*
X0391668Y0685790D01*
X0391598Y0686088D01*
X0391535Y0686387D01*
X0391480Y0686688D01*
X0391432Y0686991D01*
X0391391Y0687294D01*
X0391358Y0687598D01*
X0391332Y0687903D01*
X0391314Y0688209D01*
X0391303Y0688515D01*
X0391300Y0688821D01*
X0391304Y0689127D01*
X0391316Y0689433D01*
X0391335Y0689739D01*
X0391362Y0690044D01*
X0391396Y0690348D01*
X0391438Y0690651D01*
X0391487Y0690953D01*
X0391543Y0691254D01*
X0391607Y0691554D01*
X0391678Y0691851D01*
X0391756Y0692147D01*
X0391842Y0692441D01*
X0391935Y0692733D01*
X0392035Y0693022D01*
X0392142Y0693309D01*
X0392256Y0693593D01*
X0392376Y0693875D01*
X0392504Y0694153D01*
X0392639Y0694428D01*
X0392780Y0694699D01*
X0392927Y0694968D01*
X0393082Y0695232D01*
X0393242Y0695492D01*
X0393410Y0695749D01*
X0393583Y0696001D01*
X0393762Y0696249D01*
X0393948Y0696493D01*
X0394139Y0696732D01*
X0394336Y0696966D01*
X0394539Y0697195D01*
X0394747Y0697420D01*
X0394961Y0697639D01*
X0395180Y0697853D01*
X0395405Y0698061D01*
X0395634Y0698264D01*
X0395868Y0698461D01*
X0396107Y0698652D01*
X0396351Y0698838D01*
X0396599Y0699017D01*
X0396851Y0699190D01*
X0397108Y0699358D01*
X0397368Y0699518D01*
X0397632Y0699673D01*
X0397901Y0699820D01*
X0398172Y0699961D01*
X0398447Y0700096D01*
X0398725Y0700224D01*
X0399007Y0700344D01*
X0399291Y0700458D01*
X0399578Y0700565D01*
X0399867Y0700665D01*
X0400159Y0700758D01*
X0400453Y0700844D01*
X0400749Y0700922D01*
X0401046Y0700993D01*
X0401346Y0701057D01*
X0401647Y0701113D01*
X0401949Y0701162D01*
X0402252Y0701204D01*
X0402556Y0701238D01*
X0402861Y0701265D01*
X0403167Y0701284D01*
X0403473Y0701296D01*
X0403779Y0701300D01*
X0404085Y0701297D01*
X0404391Y0701286D01*
X0404697Y0701268D01*
X0405002Y0701242D01*
X0405306Y0701209D01*
X0405609Y0701168D01*
X0405912Y0701120D01*
X0406213Y0701065D01*
X0406512Y0701002D01*
X0406810Y0700932D01*
X0407107Y0700855D01*
X0407401Y0700770D01*
X0407693Y0700678D01*
X0407983Y0700579D01*
X0408270Y0700473D01*
X0408554Y0700361D01*
X0408836Y0700241D01*
X0409115Y0700114D01*
X0409390Y0699980D01*
X0409662Y0699840D01*
X0409931Y0699693D01*
X0410196Y0699540D01*
X0410457Y0699380D01*
X0410714Y0699214D01*
X0410967Y0699041D01*
X0411216Y0698863D01*
X0411460Y0698678D01*
X0411699Y0698488D01*
X0411934Y0698291D01*
X0412164Y0698089D01*
X0412389Y0697882D01*
X0412609Y0697669D01*
X0412824Y0697450D01*
X0413033Y0697227D01*
X0413236Y0696998D01*
X0413434Y0696764D01*
X0413626Y0696526D01*
X0413813Y0696283D01*
X0413993Y0696036D01*
X0414167Y0695784D01*
X0414335Y0695528D01*
X0414497Y0695268D01*
X0414652Y0695004D01*
X0414800Y0694736D01*
X0414942Y0694465D01*
X0415078Y0694191D01*
X0415206Y0693913D01*
X0415328Y0693632D01*
X0415443Y0693348D01*
X0415551Y0693062D01*
X0415652Y0692773D01*
X0415746Y0692481D01*
X0415832Y0692188D01*
X0415912Y0691892D01*
X0415984Y0691595D01*
X0416048Y0691295D01*
X0416106Y0690995D01*
X0416156Y0690693D01*
X0416199Y0690389D01*
X0416234Y0690085D01*
X0416261Y0689781D01*
X0416282Y0689475D01*
X0416295Y0689169D01*
X0416300Y0688863D01*
X0416298Y0688557D01*
X0416288Y0688251D01*
X0416271Y0687945D01*
X0416246Y0687640D01*
X0416214Y0687336D01*
X0416174Y0687032D01*
X0503800Y0616300D02*
X0503613Y0616543D01*
X0503421Y0616781D01*
X0503222Y0617014D01*
X0503018Y0617242D01*
X0502809Y0617465D01*
X0502594Y0617683D01*
X0502374Y0617896D01*
X0502149Y0618103D01*
X0501918Y0618305D01*
X0501683Y0618501D01*
X0501443Y0618691D01*
X0501199Y0618875D01*
X0500950Y0619053D01*
X0500696Y0619225D01*
X0500439Y0619391D01*
X0500178Y0619551D01*
X0499913Y0619704D01*
X0499644Y0619850D01*
X0499371Y0619990D01*
X0499096Y0620123D01*
X0498817Y0620249D01*
X0498535Y0620369D01*
X0498250Y0620481D01*
X0497963Y0620586D01*
X0497673Y0620685D01*
X0497381Y0620776D01*
X0497086Y0620860D01*
X0496790Y0620937D01*
X0496492Y0621007D01*
X0496192Y0621069D01*
X0495891Y0621124D01*
X0495589Y0621171D01*
X0495285Y0621211D01*
X0494981Y0621244D01*
X0494676Y0621269D01*
X0494370Y0621287D01*
X0494064Y0621297D01*
X0493758Y0621300D01*
X0493452Y0621295D01*
X0493146Y0621283D01*
X0492840Y0621263D01*
X0492536Y0621236D01*
X0492231Y0621201D01*
X0491928Y0621159D01*
X0491626Y0621110D01*
X0491325Y0621053D01*
X0491026Y0620988D01*
X0490728Y0620917D01*
X0490433Y0620838D01*
X0490139Y0620752D01*
X0489847Y0620659D01*
X0489558Y0620558D01*
X0489271Y0620451D01*
X0488987Y0620336D01*
X0488706Y0620215D01*
X0488428Y0620087D01*
X0488153Y0619952D01*
X0487882Y0619810D01*
X0487614Y0619662D01*
X0487350Y0619507D01*
X0487090Y0619346D01*
X0486834Y0619179D01*
X0486581Y0619005D01*
X0486334Y0618825D01*
X0486090Y0618639D01*
X0485852Y0618448D01*
X0485618Y0618250D01*
X0485389Y0618047D01*
X0485165Y0617838D01*
X0484946Y0617624D01*
X0484733Y0617404D01*
X0484525Y0617180D01*
X0484322Y0616950D01*
X0484126Y0616716D01*
X0483935Y0616476D01*
X0483750Y0616233D01*
X0483571Y0615984D01*
X0483398Y0615732D01*
X0483231Y0615475D01*
X0483071Y0615214D01*
X0482917Y0614949D01*
X0482770Y0614681D01*
X0482629Y0614409D01*
X0482495Y0614134D01*
X0482368Y0613855D01*
X0482247Y0613574D01*
X0482134Y0613289D01*
X0482028Y0613002D01*
X0481928Y0612713D01*
X0481836Y0612421D01*
X0481751Y0612127D01*
X0481673Y0611831D01*
X0481602Y0611533D01*
X0481539Y0611233D01*
X0481483Y0610932D01*
X0481435Y0610630D01*
X0481394Y0610327D01*
X0481360Y0610023D01*
X0481334Y0609718D01*
X0481315Y0609412D01*
X0481304Y0609106D01*
X0481300Y0608800D01*
X0481304Y0608494D01*
X0481315Y0608188D01*
X0481334Y0607882D01*
X0481360Y0607577D01*
X0481394Y0607273D01*
X0481435Y0606970D01*
X0481483Y0606668D01*
X0481539Y0606367D01*
X0481602Y0606067D01*
X0481673Y0605769D01*
X0481751Y0605473D01*
X0481836Y0605179D01*
X0481928Y0604887D01*
X0482028Y0604598D01*
X0482134Y0604311D01*
X0482247Y0604026D01*
X0482368Y0603745D01*
X0482495Y0603466D01*
X0482629Y0603191D01*
X0482770Y0602919D01*
X0482917Y0602651D01*
X0483071Y0602386D01*
X0483231Y0602125D01*
X0483398Y0601868D01*
X0483571Y0601616D01*
X0483750Y0601367D01*
X0483935Y0601124D01*
X0484126Y0600884D01*
X0484322Y0600650D01*
X0484525Y0600420D01*
X0484733Y0600196D01*
X0484946Y0599976D01*
X0485165Y0599762D01*
X0485389Y0599553D01*
X0485618Y0599350D01*
X0485852Y0599152D01*
X0486090Y0598961D01*
X0486334Y0598775D01*
X0486581Y0598595D01*
X0486834Y0598421D01*
X0487090Y0598254D01*
X0487350Y0598093D01*
X0487614Y0597938D01*
X0487882Y0597790D01*
X0488153Y0597648D01*
X0488428Y0597513D01*
X0488706Y0597385D01*
X0488987Y0597264D01*
X0489271Y0597149D01*
X0489558Y0597042D01*
X0489847Y0596941D01*
X0490139Y0596848D01*
X0490433Y0596762D01*
X0490728Y0596683D01*
X0491026Y0596612D01*
X0491325Y0596547D01*
X0491626Y0596490D01*
X0491928Y0596441D01*
X0492231Y0596399D01*
X0492536Y0596364D01*
X0492840Y0596337D01*
X0493146Y0596317D01*
X0493452Y0596305D01*
X0493758Y0596300D01*
X0494064Y0596303D01*
X0494370Y0596313D01*
X0494676Y0596331D01*
X0494981Y0596356D01*
X0495285Y0596389D01*
X0495589Y0596429D01*
X0495891Y0596476D01*
X0496192Y0596531D01*
X0496492Y0596593D01*
X0496790Y0596663D01*
X0497086Y0596740D01*
X0497381Y0596824D01*
X0497673Y0596915D01*
X0497963Y0597014D01*
X0498250Y0597119D01*
X0498535Y0597231D01*
X0498817Y0597351D01*
X0499096Y0597477D01*
X0499371Y0597610D01*
X0499644Y0597750D01*
X0499913Y0597896D01*
X0500178Y0598049D01*
X0500439Y0598209D01*
X0500696Y0598375D01*
X0500950Y0598547D01*
X0501199Y0598725D01*
X0501443Y0598909D01*
X0501683Y0599099D01*
X0501918Y0599295D01*
X0502149Y0599497D01*
X0502374Y0599704D01*
X0502594Y0599917D01*
X0502809Y0600135D01*
X0503018Y0600358D01*
X0503222Y0600586D01*
X0503421Y0600819D01*
X0503613Y0601057D01*
X0503800Y0601300D01*
D12*
X0313900Y0462700D03*
X0413800Y0440500D03*
D13*
X0413827Y0431457D02*
X0408556Y0431457D01*
X0411192Y0431457D02*
X0411192Y0423550D01*
X0416475Y0423550D02*
X0421746Y0423550D01*
X0424394Y0423550D02*
X0424394Y0428821D01*
X0427029Y0431457D01*
X0429665Y0428821D01*
X0429665Y0423550D01*
X0432312Y0423550D02*
X0432312Y0431457D01*
X0434948Y0428821D01*
X0437584Y0431457D01*
X0437584Y0423550D01*
X0440231Y0423550D02*
X0440231Y0424868D01*
X0445502Y0430139D01*
X0445502Y0431457D01*
X0440231Y0431457D01*
X0429665Y0427503D02*
X0424394Y0427503D01*
X0421746Y0431457D02*
X0416475Y0431457D01*
X0416475Y0423550D01*
X0416475Y0427503D02*
X0419111Y0427503D01*
D14*
X0398081Y0425438D02*
X0395719Y0425438D01*
X0395719Y0430162D02*
X0398081Y0430162D01*
X0347162Y0427181D02*
X0347162Y0424819D01*
X0342438Y0424819D02*
X0342438Y0427181D01*
X0414619Y0536438D02*
X0416981Y0536438D01*
X0416981Y0541162D02*
X0414619Y0541162D01*
X0414619Y0542438D02*
X0416981Y0542438D01*
X0416981Y0547162D02*
X0414619Y0547162D01*
X0414619Y0548438D02*
X0416981Y0548438D01*
X0416981Y0553162D02*
X0414619Y0553162D01*
X0403500Y0555100D02*
X0403500Y0558200D01*
X0403500Y0555100D02*
X0400400Y0555100D01*
X0394800Y0548600D02*
X0394800Y0544500D01*
X0396619Y0544162D02*
X0398981Y0544162D01*
X0398981Y0539438D02*
X0396619Y0539438D01*
X0375100Y0544800D02*
X0375100Y0548900D01*
X0372981Y0544162D02*
X0370619Y0544162D01*
X0370619Y0539438D02*
X0372981Y0539438D01*
X0367200Y0555100D02*
X0364100Y0555100D01*
X0364100Y0558200D01*
X0353762Y0549981D02*
X0353762Y0547619D01*
X0349038Y0547619D02*
X0349038Y0549981D01*
X0340600Y0550100D02*
X0340600Y0547500D01*
X0338800Y0542800D02*
X0335000Y0542800D01*
X0335000Y0546400D01*
X0335000Y0551200D02*
X0335000Y0554800D01*
X0338800Y0554800D01*
X0341619Y0556938D02*
X0343981Y0556938D01*
X0343981Y0561662D02*
X0341619Y0561662D01*
X0341619Y0562438D02*
X0343981Y0562438D01*
X0343981Y0567162D02*
X0341619Y0567162D01*
X0341619Y0567938D02*
X0343981Y0567938D01*
X0343981Y0572662D02*
X0341619Y0572662D01*
X0353700Y0571800D02*
X0357700Y0571700D01*
X0339762Y0587419D02*
X0339762Y0589781D01*
X0335038Y0589781D02*
X0335038Y0587419D01*
X0317662Y0599119D02*
X0317662Y0601481D01*
X0312938Y0601481D02*
X0312938Y0599119D01*
X0305600Y0599700D02*
X0305600Y0603300D01*
X0301800Y0603300D01*
X0300000Y0598600D02*
X0300000Y0596000D01*
X0301800Y0591300D02*
X0305600Y0591300D01*
X0305600Y0594900D01*
X0303981Y0590162D02*
X0301619Y0590162D01*
X0301619Y0585438D02*
X0303981Y0585438D01*
X0292762Y0595619D02*
X0292762Y0597981D01*
X0288038Y0597981D02*
X0288038Y0595619D01*
X0286981Y0606438D02*
X0284619Y0606438D01*
X0284619Y0611162D02*
X0286981Y0611162D01*
X0286981Y0612438D02*
X0284619Y0612438D01*
X0284619Y0617162D02*
X0286981Y0617162D01*
X0286438Y0631119D02*
X0286438Y0633481D01*
X0291162Y0633481D02*
X0291162Y0631119D01*
X0316619Y0619162D02*
X0318981Y0619162D01*
X0318981Y0614438D02*
X0316619Y0614438D01*
X0330619Y0614438D02*
X0332981Y0614438D01*
X0332981Y0619162D02*
X0330619Y0619162D01*
X0351438Y0603481D02*
X0351438Y0601119D01*
X0356162Y0601119D02*
X0356162Y0603481D01*
X0357438Y0603481D02*
X0357438Y0601119D01*
X0362162Y0601119D02*
X0362162Y0603481D01*
X0364100Y0594500D02*
X0364100Y0591400D01*
X0365500Y0590900D02*
X0367700Y0593100D01*
X0367200Y0594500D02*
X0364100Y0594500D01*
X0377000Y0601200D02*
X0377000Y0605200D01*
X0382619Y0611438D02*
X0384981Y0611438D01*
X0384981Y0616162D02*
X0382619Y0616162D01*
X0382619Y0617438D02*
X0384981Y0617438D01*
X0384981Y0622162D02*
X0382619Y0622162D01*
X0381662Y0630119D02*
X0381662Y0632481D01*
X0376938Y0632481D02*
X0376938Y0630119D01*
X0369162Y0615981D02*
X0369162Y0613619D01*
X0364438Y0613619D02*
X0364438Y0615981D01*
X0361162Y0615981D02*
X0361162Y0613619D01*
X0356438Y0613619D02*
X0356438Y0615981D01*
X0369619Y0645438D02*
X0371981Y0645438D01*
X0371981Y0650162D02*
X0369619Y0650162D01*
X0374438Y0657619D02*
X0374438Y0659981D01*
X0379162Y0659981D02*
X0379162Y0657619D01*
X0397438Y0657619D02*
X0397438Y0659981D01*
X0402162Y0659981D02*
X0402162Y0657619D01*
X0401300Y0646800D02*
X0398800Y0644300D01*
X0398800Y0639300D01*
X0401300Y0636800D01*
X0398800Y0634300D01*
X0398800Y0629300D01*
X0401300Y0626800D01*
X0398800Y0624300D01*
X0398800Y0619300D01*
X0401300Y0616800D01*
X0398800Y0614300D01*
X0398800Y0609300D01*
X0401300Y0606800D01*
X0416300Y0606800D01*
X0418800Y0609300D01*
X0418800Y0614300D01*
X0416300Y0616800D01*
X0418800Y0619300D01*
X0418800Y0624300D01*
X0416300Y0626800D01*
X0418800Y0629300D01*
X0418800Y0634300D01*
X0416300Y0636800D01*
X0418800Y0639300D01*
X0418800Y0644300D01*
X0416300Y0646800D01*
X0401300Y0646800D01*
X0446438Y0633481D02*
X0446438Y0631119D01*
X0451162Y0631119D02*
X0451162Y0633481D01*
X0442981Y0611162D02*
X0440619Y0611162D01*
X0440619Y0606438D02*
X0442981Y0606438D01*
X0442981Y0605162D02*
X0440619Y0605162D01*
X0440619Y0600438D02*
X0442981Y0600438D01*
X0420162Y0592481D02*
X0420162Y0590119D01*
X0415438Y0590119D02*
X0415438Y0592481D01*
X0403500Y0591400D02*
X0403500Y0594500D01*
X0400400Y0594500D01*
X0396600Y0601400D02*
X0396600Y0605400D01*
X0410100Y0573800D02*
X0414200Y0573800D01*
X0483800Y0608800D02*
X0483803Y0609045D01*
X0483812Y0609291D01*
X0483827Y0609536D01*
X0483848Y0609780D01*
X0483875Y0610024D01*
X0483908Y0610267D01*
X0483947Y0610510D01*
X0483992Y0610751D01*
X0484043Y0610991D01*
X0484100Y0611230D01*
X0484162Y0611467D01*
X0484231Y0611703D01*
X0484305Y0611937D01*
X0484385Y0612169D01*
X0484470Y0612399D01*
X0484561Y0612627D01*
X0484658Y0612852D01*
X0484760Y0613076D01*
X0484868Y0613296D01*
X0484981Y0613514D01*
X0485099Y0613729D01*
X0485223Y0613941D01*
X0485351Y0614150D01*
X0485485Y0614356D01*
X0485624Y0614558D01*
X0485768Y0614757D01*
X0485917Y0614952D01*
X0486070Y0615144D01*
X0486228Y0615332D01*
X0486390Y0615516D01*
X0486558Y0615695D01*
X0486729Y0615871D01*
X0486905Y0616042D01*
X0487084Y0616210D01*
X0487268Y0616372D01*
X0487456Y0616530D01*
X0487648Y0616683D01*
X0487843Y0616832D01*
X0488042Y0616976D01*
X0488244Y0617115D01*
X0488450Y0617249D01*
X0488659Y0617377D01*
X0488871Y0617501D01*
X0489086Y0617619D01*
X0489304Y0617732D01*
X0489524Y0617840D01*
X0489748Y0617942D01*
X0489973Y0618039D01*
X0490201Y0618130D01*
X0490431Y0618215D01*
X0490663Y0618295D01*
X0490897Y0618369D01*
X0491133Y0618438D01*
X0491370Y0618500D01*
X0491609Y0618557D01*
X0491849Y0618608D01*
X0492090Y0618653D01*
X0492333Y0618692D01*
X0492576Y0618725D01*
X0492820Y0618752D01*
X0493064Y0618773D01*
X0493309Y0618788D01*
X0493555Y0618797D01*
X0493800Y0618800D01*
X0494045Y0618797D01*
X0494291Y0618788D01*
X0494536Y0618773D01*
X0494780Y0618752D01*
X0495024Y0618725D01*
X0495267Y0618692D01*
X0495510Y0618653D01*
X0495751Y0618608D01*
X0495991Y0618557D01*
X0496230Y0618500D01*
X0496467Y0618438D01*
X0496703Y0618369D01*
X0496937Y0618295D01*
X0497169Y0618215D01*
X0497399Y0618130D01*
X0497627Y0618039D01*
X0497852Y0617942D01*
X0498076Y0617840D01*
X0498296Y0617732D01*
X0498514Y0617619D01*
X0498729Y0617501D01*
X0498941Y0617377D01*
X0499150Y0617249D01*
X0499356Y0617115D01*
X0499558Y0616976D01*
X0499757Y0616832D01*
X0499952Y0616683D01*
X0500144Y0616530D01*
X0500332Y0616372D01*
X0500516Y0616210D01*
X0500695Y0616042D01*
X0500871Y0615871D01*
X0501042Y0615695D01*
X0501210Y0615516D01*
X0501372Y0615332D01*
X0501530Y0615144D01*
X0501683Y0614952D01*
X0501832Y0614757D01*
X0501976Y0614558D01*
X0502115Y0614356D01*
X0502249Y0614150D01*
X0502377Y0613941D01*
X0502501Y0613729D01*
X0502619Y0613514D01*
X0502732Y0613296D01*
X0502840Y0613076D01*
X0502942Y0612852D01*
X0503039Y0612627D01*
X0503130Y0612399D01*
X0503215Y0612169D01*
X0503295Y0611937D01*
X0503369Y0611703D01*
X0503438Y0611467D01*
X0503500Y0611230D01*
X0503557Y0610991D01*
X0503608Y0610751D01*
X0503653Y0610510D01*
X0503692Y0610267D01*
X0503725Y0610024D01*
X0503752Y0609780D01*
X0503773Y0609536D01*
X0503788Y0609291D01*
X0503797Y0609045D01*
X0503800Y0608800D01*
X0503797Y0608555D01*
X0503788Y0608309D01*
X0503773Y0608064D01*
X0503752Y0607820D01*
X0503725Y0607576D01*
X0503692Y0607333D01*
X0503653Y0607090D01*
X0503608Y0606849D01*
X0503557Y0606609D01*
X0503500Y0606370D01*
X0503438Y0606133D01*
X0503369Y0605897D01*
X0503295Y0605663D01*
X0503215Y0605431D01*
X0503130Y0605201D01*
X0503039Y0604973D01*
X0502942Y0604748D01*
X0502840Y0604524D01*
X0502732Y0604304D01*
X0502619Y0604086D01*
X0502501Y0603871D01*
X0502377Y0603659D01*
X0502249Y0603450D01*
X0502115Y0603244D01*
X0501976Y0603042D01*
X0501832Y0602843D01*
X0501683Y0602648D01*
X0501530Y0602456D01*
X0501372Y0602268D01*
X0501210Y0602084D01*
X0501042Y0601905D01*
X0500871Y0601729D01*
X0500695Y0601558D01*
X0500516Y0601390D01*
X0500332Y0601228D01*
X0500144Y0601070D01*
X0499952Y0600917D01*
X0499757Y0600768D01*
X0499558Y0600624D01*
X0499356Y0600485D01*
X0499150Y0600351D01*
X0498941Y0600223D01*
X0498729Y0600099D01*
X0498514Y0599981D01*
X0498296Y0599868D01*
X0498076Y0599760D01*
X0497852Y0599658D01*
X0497627Y0599561D01*
X0497399Y0599470D01*
X0497169Y0599385D01*
X0496937Y0599305D01*
X0496703Y0599231D01*
X0496467Y0599162D01*
X0496230Y0599100D01*
X0495991Y0599043D01*
X0495751Y0598992D01*
X0495510Y0598947D01*
X0495267Y0598908D01*
X0495024Y0598875D01*
X0494780Y0598848D01*
X0494536Y0598827D01*
X0494291Y0598812D01*
X0494045Y0598803D01*
X0493800Y0598800D01*
X0493555Y0598803D01*
X0493309Y0598812D01*
X0493064Y0598827D01*
X0492820Y0598848D01*
X0492576Y0598875D01*
X0492333Y0598908D01*
X0492090Y0598947D01*
X0491849Y0598992D01*
X0491609Y0599043D01*
X0491370Y0599100D01*
X0491133Y0599162D01*
X0490897Y0599231D01*
X0490663Y0599305D01*
X0490431Y0599385D01*
X0490201Y0599470D01*
X0489973Y0599561D01*
X0489748Y0599658D01*
X0489524Y0599760D01*
X0489304Y0599868D01*
X0489086Y0599981D01*
X0488871Y0600099D01*
X0488659Y0600223D01*
X0488450Y0600351D01*
X0488244Y0600485D01*
X0488042Y0600624D01*
X0487843Y0600768D01*
X0487648Y0600917D01*
X0487456Y0601070D01*
X0487268Y0601228D01*
X0487084Y0601390D01*
X0486905Y0601558D01*
X0486729Y0601729D01*
X0486558Y0601905D01*
X0486390Y0602084D01*
X0486228Y0602268D01*
X0486070Y0602456D01*
X0485917Y0602648D01*
X0485768Y0602843D01*
X0485624Y0603042D01*
X0485485Y0603244D01*
X0485351Y0603450D01*
X0485223Y0603659D01*
X0485099Y0603871D01*
X0484981Y0604086D01*
X0484868Y0604304D01*
X0484760Y0604524D01*
X0484658Y0604748D01*
X0484561Y0604973D01*
X0484470Y0605201D01*
X0484385Y0605431D01*
X0484305Y0605663D01*
X0484231Y0605897D01*
X0484162Y0606133D01*
X0484100Y0606370D01*
X0484043Y0606609D01*
X0483992Y0606849D01*
X0483947Y0607090D01*
X0483908Y0607333D01*
X0483875Y0607576D01*
X0483848Y0607820D01*
X0483827Y0608064D01*
X0483812Y0608309D01*
X0483803Y0608555D01*
X0483800Y0608800D01*
X0393800Y0688800D02*
X0393803Y0689045D01*
X0393812Y0689291D01*
X0393827Y0689536D01*
X0393848Y0689780D01*
X0393875Y0690024D01*
X0393908Y0690267D01*
X0393947Y0690510D01*
X0393992Y0690751D01*
X0394043Y0690991D01*
X0394100Y0691230D01*
X0394162Y0691467D01*
X0394231Y0691703D01*
X0394305Y0691937D01*
X0394385Y0692169D01*
X0394470Y0692399D01*
X0394561Y0692627D01*
X0394658Y0692852D01*
X0394760Y0693076D01*
X0394868Y0693296D01*
X0394981Y0693514D01*
X0395099Y0693729D01*
X0395223Y0693941D01*
X0395351Y0694150D01*
X0395485Y0694356D01*
X0395624Y0694558D01*
X0395768Y0694757D01*
X0395917Y0694952D01*
X0396070Y0695144D01*
X0396228Y0695332D01*
X0396390Y0695516D01*
X0396558Y0695695D01*
X0396729Y0695871D01*
X0396905Y0696042D01*
X0397084Y0696210D01*
X0397268Y0696372D01*
X0397456Y0696530D01*
X0397648Y0696683D01*
X0397843Y0696832D01*
X0398042Y0696976D01*
X0398244Y0697115D01*
X0398450Y0697249D01*
X0398659Y0697377D01*
X0398871Y0697501D01*
X0399086Y0697619D01*
X0399304Y0697732D01*
X0399524Y0697840D01*
X0399748Y0697942D01*
X0399973Y0698039D01*
X0400201Y0698130D01*
X0400431Y0698215D01*
X0400663Y0698295D01*
X0400897Y0698369D01*
X0401133Y0698438D01*
X0401370Y0698500D01*
X0401609Y0698557D01*
X0401849Y0698608D01*
X0402090Y0698653D01*
X0402333Y0698692D01*
X0402576Y0698725D01*
X0402820Y0698752D01*
X0403064Y0698773D01*
X0403309Y0698788D01*
X0403555Y0698797D01*
X0403800Y0698800D01*
X0404045Y0698797D01*
X0404291Y0698788D01*
X0404536Y0698773D01*
X0404780Y0698752D01*
X0405024Y0698725D01*
X0405267Y0698692D01*
X0405510Y0698653D01*
X0405751Y0698608D01*
X0405991Y0698557D01*
X0406230Y0698500D01*
X0406467Y0698438D01*
X0406703Y0698369D01*
X0406937Y0698295D01*
X0407169Y0698215D01*
X0407399Y0698130D01*
X0407627Y0698039D01*
X0407852Y0697942D01*
X0408076Y0697840D01*
X0408296Y0697732D01*
X0408514Y0697619D01*
X0408729Y0697501D01*
X0408941Y0697377D01*
X0409150Y0697249D01*
X0409356Y0697115D01*
X0409558Y0696976D01*
X0409757Y0696832D01*
X0409952Y0696683D01*
X0410144Y0696530D01*
X0410332Y0696372D01*
X0410516Y0696210D01*
X0410695Y0696042D01*
X0410871Y0695871D01*
X0411042Y0695695D01*
X0411210Y0695516D01*
X0411372Y0695332D01*
X0411530Y0695144D01*
X0411683Y0694952D01*
X0411832Y0694757D01*
X0411976Y0694558D01*
X0412115Y0694356D01*
X0412249Y0694150D01*
X0412377Y0693941D01*
X0412501Y0693729D01*
X0412619Y0693514D01*
X0412732Y0693296D01*
X0412840Y0693076D01*
X0412942Y0692852D01*
X0413039Y0692627D01*
X0413130Y0692399D01*
X0413215Y0692169D01*
X0413295Y0691937D01*
X0413369Y0691703D01*
X0413438Y0691467D01*
X0413500Y0691230D01*
X0413557Y0690991D01*
X0413608Y0690751D01*
X0413653Y0690510D01*
X0413692Y0690267D01*
X0413725Y0690024D01*
X0413752Y0689780D01*
X0413773Y0689536D01*
X0413788Y0689291D01*
X0413797Y0689045D01*
X0413800Y0688800D01*
X0413797Y0688555D01*
X0413788Y0688309D01*
X0413773Y0688064D01*
X0413752Y0687820D01*
X0413725Y0687576D01*
X0413692Y0687333D01*
X0413653Y0687090D01*
X0413608Y0686849D01*
X0413557Y0686609D01*
X0413500Y0686370D01*
X0413438Y0686133D01*
X0413369Y0685897D01*
X0413295Y0685663D01*
X0413215Y0685431D01*
X0413130Y0685201D01*
X0413039Y0684973D01*
X0412942Y0684748D01*
X0412840Y0684524D01*
X0412732Y0684304D01*
X0412619Y0684086D01*
X0412501Y0683871D01*
X0412377Y0683659D01*
X0412249Y0683450D01*
X0412115Y0683244D01*
X0411976Y0683042D01*
X0411832Y0682843D01*
X0411683Y0682648D01*
X0411530Y0682456D01*
X0411372Y0682268D01*
X0411210Y0682084D01*
X0411042Y0681905D01*
X0410871Y0681729D01*
X0410695Y0681558D01*
X0410516Y0681390D01*
X0410332Y0681228D01*
X0410144Y0681070D01*
X0409952Y0680917D01*
X0409757Y0680768D01*
X0409558Y0680624D01*
X0409356Y0680485D01*
X0409150Y0680351D01*
X0408941Y0680223D01*
X0408729Y0680099D01*
X0408514Y0679981D01*
X0408296Y0679868D01*
X0408076Y0679760D01*
X0407852Y0679658D01*
X0407627Y0679561D01*
X0407399Y0679470D01*
X0407169Y0679385D01*
X0406937Y0679305D01*
X0406703Y0679231D01*
X0406467Y0679162D01*
X0406230Y0679100D01*
X0405991Y0679043D01*
X0405751Y0678992D01*
X0405510Y0678947D01*
X0405267Y0678908D01*
X0405024Y0678875D01*
X0404780Y0678848D01*
X0404536Y0678827D01*
X0404291Y0678812D01*
X0404045Y0678803D01*
X0403800Y0678800D01*
X0403555Y0678803D01*
X0403309Y0678812D01*
X0403064Y0678827D01*
X0402820Y0678848D01*
X0402576Y0678875D01*
X0402333Y0678908D01*
X0402090Y0678947D01*
X0401849Y0678992D01*
X0401609Y0679043D01*
X0401370Y0679100D01*
X0401133Y0679162D01*
X0400897Y0679231D01*
X0400663Y0679305D01*
X0400431Y0679385D01*
X0400201Y0679470D01*
X0399973Y0679561D01*
X0399748Y0679658D01*
X0399524Y0679760D01*
X0399304Y0679868D01*
X0399086Y0679981D01*
X0398871Y0680099D01*
X0398659Y0680223D01*
X0398450Y0680351D01*
X0398244Y0680485D01*
X0398042Y0680624D01*
X0397843Y0680768D01*
X0397648Y0680917D01*
X0397456Y0681070D01*
X0397268Y0681228D01*
X0397084Y0681390D01*
X0396905Y0681558D01*
X0396729Y0681729D01*
X0396558Y0681905D01*
X0396390Y0682084D01*
X0396228Y0682268D01*
X0396070Y0682456D01*
X0395917Y0682648D01*
X0395768Y0682843D01*
X0395624Y0683042D01*
X0395485Y0683244D01*
X0395351Y0683450D01*
X0395223Y0683659D01*
X0395099Y0683871D01*
X0394981Y0684086D01*
X0394868Y0684304D01*
X0394760Y0684524D01*
X0394658Y0684748D01*
X0394561Y0684973D01*
X0394470Y0685201D01*
X0394385Y0685431D01*
X0394305Y0685663D01*
X0394231Y0685897D01*
X0394162Y0686133D01*
X0394100Y0686370D01*
X0394043Y0686609D01*
X0393992Y0686849D01*
X0393947Y0687090D01*
X0393908Y0687333D01*
X0393875Y0687576D01*
X0393848Y0687820D01*
X0393827Y0688064D01*
X0393812Y0688309D01*
X0393803Y0688555D01*
X0393800Y0688800D01*
X0370081Y0688938D02*
X0367719Y0688938D01*
X0367719Y0693662D02*
X0370081Y0693662D01*
X0350881Y0693662D02*
X0348519Y0693662D01*
X0348519Y0688938D02*
X0350881Y0688938D01*
X0313800Y0688800D02*
X0313803Y0689045D01*
X0313812Y0689291D01*
X0313827Y0689536D01*
X0313848Y0689780D01*
X0313875Y0690024D01*
X0313908Y0690267D01*
X0313947Y0690510D01*
X0313992Y0690751D01*
X0314043Y0690991D01*
X0314100Y0691230D01*
X0314162Y0691467D01*
X0314231Y0691703D01*
X0314305Y0691937D01*
X0314385Y0692169D01*
X0314470Y0692399D01*
X0314561Y0692627D01*
X0314658Y0692852D01*
X0314760Y0693076D01*
X0314868Y0693296D01*
X0314981Y0693514D01*
X0315099Y0693729D01*
X0315223Y0693941D01*
X0315351Y0694150D01*
X0315485Y0694356D01*
X0315624Y0694558D01*
X0315768Y0694757D01*
X0315917Y0694952D01*
X0316070Y0695144D01*
X0316228Y0695332D01*
X0316390Y0695516D01*
X0316558Y0695695D01*
X0316729Y0695871D01*
X0316905Y0696042D01*
X0317084Y0696210D01*
X0317268Y0696372D01*
X0317456Y0696530D01*
X0317648Y0696683D01*
X0317843Y0696832D01*
X0318042Y0696976D01*
X0318244Y0697115D01*
X0318450Y0697249D01*
X0318659Y0697377D01*
X0318871Y0697501D01*
X0319086Y0697619D01*
X0319304Y0697732D01*
X0319524Y0697840D01*
X0319748Y0697942D01*
X0319973Y0698039D01*
X0320201Y0698130D01*
X0320431Y0698215D01*
X0320663Y0698295D01*
X0320897Y0698369D01*
X0321133Y0698438D01*
X0321370Y0698500D01*
X0321609Y0698557D01*
X0321849Y0698608D01*
X0322090Y0698653D01*
X0322333Y0698692D01*
X0322576Y0698725D01*
X0322820Y0698752D01*
X0323064Y0698773D01*
X0323309Y0698788D01*
X0323555Y0698797D01*
X0323800Y0698800D01*
X0324045Y0698797D01*
X0324291Y0698788D01*
X0324536Y0698773D01*
X0324780Y0698752D01*
X0325024Y0698725D01*
X0325267Y0698692D01*
X0325510Y0698653D01*
X0325751Y0698608D01*
X0325991Y0698557D01*
X0326230Y0698500D01*
X0326467Y0698438D01*
X0326703Y0698369D01*
X0326937Y0698295D01*
X0327169Y0698215D01*
X0327399Y0698130D01*
X0327627Y0698039D01*
X0327852Y0697942D01*
X0328076Y0697840D01*
X0328296Y0697732D01*
X0328514Y0697619D01*
X0328729Y0697501D01*
X0328941Y0697377D01*
X0329150Y0697249D01*
X0329356Y0697115D01*
X0329558Y0696976D01*
X0329757Y0696832D01*
X0329952Y0696683D01*
X0330144Y0696530D01*
X0330332Y0696372D01*
X0330516Y0696210D01*
X0330695Y0696042D01*
X0330871Y0695871D01*
X0331042Y0695695D01*
X0331210Y0695516D01*
X0331372Y0695332D01*
X0331530Y0695144D01*
X0331683Y0694952D01*
X0331832Y0694757D01*
X0331976Y0694558D01*
X0332115Y0694356D01*
X0332249Y0694150D01*
X0332377Y0693941D01*
X0332501Y0693729D01*
X0332619Y0693514D01*
X0332732Y0693296D01*
X0332840Y0693076D01*
X0332942Y0692852D01*
X0333039Y0692627D01*
X0333130Y0692399D01*
X0333215Y0692169D01*
X0333295Y0691937D01*
X0333369Y0691703D01*
X0333438Y0691467D01*
X0333500Y0691230D01*
X0333557Y0690991D01*
X0333608Y0690751D01*
X0333653Y0690510D01*
X0333692Y0690267D01*
X0333725Y0690024D01*
X0333752Y0689780D01*
X0333773Y0689536D01*
X0333788Y0689291D01*
X0333797Y0689045D01*
X0333800Y0688800D01*
X0333797Y0688555D01*
X0333788Y0688309D01*
X0333773Y0688064D01*
X0333752Y0687820D01*
X0333725Y0687576D01*
X0333692Y0687333D01*
X0333653Y0687090D01*
X0333608Y0686849D01*
X0333557Y0686609D01*
X0333500Y0686370D01*
X0333438Y0686133D01*
X0333369Y0685897D01*
X0333295Y0685663D01*
X0333215Y0685431D01*
X0333130Y0685201D01*
X0333039Y0684973D01*
X0332942Y0684748D01*
X0332840Y0684524D01*
X0332732Y0684304D01*
X0332619Y0684086D01*
X0332501Y0683871D01*
X0332377Y0683659D01*
X0332249Y0683450D01*
X0332115Y0683244D01*
X0331976Y0683042D01*
X0331832Y0682843D01*
X0331683Y0682648D01*
X0331530Y0682456D01*
X0331372Y0682268D01*
X0331210Y0682084D01*
X0331042Y0681905D01*
X0330871Y0681729D01*
X0330695Y0681558D01*
X0330516Y0681390D01*
X0330332Y0681228D01*
X0330144Y0681070D01*
X0329952Y0680917D01*
X0329757Y0680768D01*
X0329558Y0680624D01*
X0329356Y0680485D01*
X0329150Y0680351D01*
X0328941Y0680223D01*
X0328729Y0680099D01*
X0328514Y0679981D01*
X0328296Y0679868D01*
X0328076Y0679760D01*
X0327852Y0679658D01*
X0327627Y0679561D01*
X0327399Y0679470D01*
X0327169Y0679385D01*
X0326937Y0679305D01*
X0326703Y0679231D01*
X0326467Y0679162D01*
X0326230Y0679100D01*
X0325991Y0679043D01*
X0325751Y0678992D01*
X0325510Y0678947D01*
X0325267Y0678908D01*
X0325024Y0678875D01*
X0324780Y0678848D01*
X0324536Y0678827D01*
X0324291Y0678812D01*
X0324045Y0678803D01*
X0323800Y0678800D01*
X0323555Y0678803D01*
X0323309Y0678812D01*
X0323064Y0678827D01*
X0322820Y0678848D01*
X0322576Y0678875D01*
X0322333Y0678908D01*
X0322090Y0678947D01*
X0321849Y0678992D01*
X0321609Y0679043D01*
X0321370Y0679100D01*
X0321133Y0679162D01*
X0320897Y0679231D01*
X0320663Y0679305D01*
X0320431Y0679385D01*
X0320201Y0679470D01*
X0319973Y0679561D01*
X0319748Y0679658D01*
X0319524Y0679760D01*
X0319304Y0679868D01*
X0319086Y0679981D01*
X0318871Y0680099D01*
X0318659Y0680223D01*
X0318450Y0680351D01*
X0318244Y0680485D01*
X0318042Y0680624D01*
X0317843Y0680768D01*
X0317648Y0680917D01*
X0317456Y0681070D01*
X0317268Y0681228D01*
X0317084Y0681390D01*
X0316905Y0681558D01*
X0316729Y0681729D01*
X0316558Y0681905D01*
X0316390Y0682084D01*
X0316228Y0682268D01*
X0316070Y0682456D01*
X0315917Y0682648D01*
X0315768Y0682843D01*
X0315624Y0683042D01*
X0315485Y0683244D01*
X0315351Y0683450D01*
X0315223Y0683659D01*
X0315099Y0683871D01*
X0314981Y0684086D01*
X0314868Y0684304D01*
X0314760Y0684524D01*
X0314658Y0684748D01*
X0314561Y0684973D01*
X0314470Y0685201D01*
X0314385Y0685431D01*
X0314305Y0685663D01*
X0314231Y0685897D01*
X0314162Y0686133D01*
X0314100Y0686370D01*
X0314043Y0686609D01*
X0313992Y0686849D01*
X0313947Y0687090D01*
X0313908Y0687333D01*
X0313875Y0687576D01*
X0313848Y0687820D01*
X0313827Y0688064D01*
X0313812Y0688309D01*
X0313803Y0688555D01*
X0313800Y0688800D01*
X0324438Y0659981D02*
X0324438Y0657619D01*
X0329162Y0657619D02*
X0329162Y0659981D01*
X0348438Y0659981D02*
X0348438Y0657619D01*
X0353162Y0657619D02*
X0353162Y0659981D01*
X0223800Y0608800D02*
X0223803Y0609045D01*
X0223812Y0609291D01*
X0223827Y0609536D01*
X0223848Y0609780D01*
X0223875Y0610024D01*
X0223908Y0610267D01*
X0223947Y0610510D01*
X0223992Y0610751D01*
X0224043Y0610991D01*
X0224100Y0611230D01*
X0224162Y0611467D01*
X0224231Y0611703D01*
X0224305Y0611937D01*
X0224385Y0612169D01*
X0224470Y0612399D01*
X0224561Y0612627D01*
X0224658Y0612852D01*
X0224760Y0613076D01*
X0224868Y0613296D01*
X0224981Y0613514D01*
X0225099Y0613729D01*
X0225223Y0613941D01*
X0225351Y0614150D01*
X0225485Y0614356D01*
X0225624Y0614558D01*
X0225768Y0614757D01*
X0225917Y0614952D01*
X0226070Y0615144D01*
X0226228Y0615332D01*
X0226390Y0615516D01*
X0226558Y0615695D01*
X0226729Y0615871D01*
X0226905Y0616042D01*
X0227084Y0616210D01*
X0227268Y0616372D01*
X0227456Y0616530D01*
X0227648Y0616683D01*
X0227843Y0616832D01*
X0228042Y0616976D01*
X0228244Y0617115D01*
X0228450Y0617249D01*
X0228659Y0617377D01*
X0228871Y0617501D01*
X0229086Y0617619D01*
X0229304Y0617732D01*
X0229524Y0617840D01*
X0229748Y0617942D01*
X0229973Y0618039D01*
X0230201Y0618130D01*
X0230431Y0618215D01*
X0230663Y0618295D01*
X0230897Y0618369D01*
X0231133Y0618438D01*
X0231370Y0618500D01*
X0231609Y0618557D01*
X0231849Y0618608D01*
X0232090Y0618653D01*
X0232333Y0618692D01*
X0232576Y0618725D01*
X0232820Y0618752D01*
X0233064Y0618773D01*
X0233309Y0618788D01*
X0233555Y0618797D01*
X0233800Y0618800D01*
X0234045Y0618797D01*
X0234291Y0618788D01*
X0234536Y0618773D01*
X0234780Y0618752D01*
X0235024Y0618725D01*
X0235267Y0618692D01*
X0235510Y0618653D01*
X0235751Y0618608D01*
X0235991Y0618557D01*
X0236230Y0618500D01*
X0236467Y0618438D01*
X0236703Y0618369D01*
X0236937Y0618295D01*
X0237169Y0618215D01*
X0237399Y0618130D01*
X0237627Y0618039D01*
X0237852Y0617942D01*
X0238076Y0617840D01*
X0238296Y0617732D01*
X0238514Y0617619D01*
X0238729Y0617501D01*
X0238941Y0617377D01*
X0239150Y0617249D01*
X0239356Y0617115D01*
X0239558Y0616976D01*
X0239757Y0616832D01*
X0239952Y0616683D01*
X0240144Y0616530D01*
X0240332Y0616372D01*
X0240516Y0616210D01*
X0240695Y0616042D01*
X0240871Y0615871D01*
X0241042Y0615695D01*
X0241210Y0615516D01*
X0241372Y0615332D01*
X0241530Y0615144D01*
X0241683Y0614952D01*
X0241832Y0614757D01*
X0241976Y0614558D01*
X0242115Y0614356D01*
X0242249Y0614150D01*
X0242377Y0613941D01*
X0242501Y0613729D01*
X0242619Y0613514D01*
X0242732Y0613296D01*
X0242840Y0613076D01*
X0242942Y0612852D01*
X0243039Y0612627D01*
X0243130Y0612399D01*
X0243215Y0612169D01*
X0243295Y0611937D01*
X0243369Y0611703D01*
X0243438Y0611467D01*
X0243500Y0611230D01*
X0243557Y0610991D01*
X0243608Y0610751D01*
X0243653Y0610510D01*
X0243692Y0610267D01*
X0243725Y0610024D01*
X0243752Y0609780D01*
X0243773Y0609536D01*
X0243788Y0609291D01*
X0243797Y0609045D01*
X0243800Y0608800D01*
X0243797Y0608555D01*
X0243788Y0608309D01*
X0243773Y0608064D01*
X0243752Y0607820D01*
X0243725Y0607576D01*
X0243692Y0607333D01*
X0243653Y0607090D01*
X0243608Y0606849D01*
X0243557Y0606609D01*
X0243500Y0606370D01*
X0243438Y0606133D01*
X0243369Y0605897D01*
X0243295Y0605663D01*
X0243215Y0605431D01*
X0243130Y0605201D01*
X0243039Y0604973D01*
X0242942Y0604748D01*
X0242840Y0604524D01*
X0242732Y0604304D01*
X0242619Y0604086D01*
X0242501Y0603871D01*
X0242377Y0603659D01*
X0242249Y0603450D01*
X0242115Y0603244D01*
X0241976Y0603042D01*
X0241832Y0602843D01*
X0241683Y0602648D01*
X0241530Y0602456D01*
X0241372Y0602268D01*
X0241210Y0602084D01*
X0241042Y0601905D01*
X0240871Y0601729D01*
X0240695Y0601558D01*
X0240516Y0601390D01*
X0240332Y0601228D01*
X0240144Y0601070D01*
X0239952Y0600917D01*
X0239757Y0600768D01*
X0239558Y0600624D01*
X0239356Y0600485D01*
X0239150Y0600351D01*
X0238941Y0600223D01*
X0238729Y0600099D01*
X0238514Y0599981D01*
X0238296Y0599868D01*
X0238076Y0599760D01*
X0237852Y0599658D01*
X0237627Y0599561D01*
X0237399Y0599470D01*
X0237169Y0599385D01*
X0236937Y0599305D01*
X0236703Y0599231D01*
X0236467Y0599162D01*
X0236230Y0599100D01*
X0235991Y0599043D01*
X0235751Y0598992D01*
X0235510Y0598947D01*
X0235267Y0598908D01*
X0235024Y0598875D01*
X0234780Y0598848D01*
X0234536Y0598827D01*
X0234291Y0598812D01*
X0234045Y0598803D01*
X0233800Y0598800D01*
X0233555Y0598803D01*
X0233309Y0598812D01*
X0233064Y0598827D01*
X0232820Y0598848D01*
X0232576Y0598875D01*
X0232333Y0598908D01*
X0232090Y0598947D01*
X0231849Y0598992D01*
X0231609Y0599043D01*
X0231370Y0599100D01*
X0231133Y0599162D01*
X0230897Y0599231D01*
X0230663Y0599305D01*
X0230431Y0599385D01*
X0230201Y0599470D01*
X0229973Y0599561D01*
X0229748Y0599658D01*
X0229524Y0599760D01*
X0229304Y0599868D01*
X0229086Y0599981D01*
X0228871Y0600099D01*
X0228659Y0600223D01*
X0228450Y0600351D01*
X0228244Y0600485D01*
X0228042Y0600624D01*
X0227843Y0600768D01*
X0227648Y0600917D01*
X0227456Y0601070D01*
X0227268Y0601228D01*
X0227084Y0601390D01*
X0226905Y0601558D01*
X0226729Y0601729D01*
X0226558Y0601905D01*
X0226390Y0602084D01*
X0226228Y0602268D01*
X0226070Y0602456D01*
X0225917Y0602648D01*
X0225768Y0602843D01*
X0225624Y0603042D01*
X0225485Y0603244D01*
X0225351Y0603450D01*
X0225223Y0603659D01*
X0225099Y0603871D01*
X0224981Y0604086D01*
X0224868Y0604304D01*
X0224760Y0604524D01*
X0224658Y0604748D01*
X0224561Y0604973D01*
X0224470Y0605201D01*
X0224385Y0605431D01*
X0224305Y0605663D01*
X0224231Y0605897D01*
X0224162Y0606133D01*
X0224100Y0606370D01*
X0224043Y0606609D01*
X0223992Y0606849D01*
X0223947Y0607090D01*
X0223908Y0607333D01*
X0223875Y0607576D01*
X0223848Y0607820D01*
X0223827Y0608064D01*
X0223812Y0608309D01*
X0223803Y0608555D01*
X0223800Y0608800D01*
X0288719Y0545662D02*
X0291081Y0545662D01*
X0291081Y0540938D02*
X0288719Y0540938D01*
X0321438Y0542619D02*
X0321438Y0544981D01*
X0326162Y0544981D02*
X0326162Y0542619D01*
D15*
X0327099Y0542680D02*
X0327349Y0542430D01*
X0328350Y0542430D01*
X0328600Y0542680D01*
X0328600Y0543181D01*
X0328350Y0543431D01*
X0328600Y0543903D02*
X0327599Y0544904D01*
X0327349Y0544904D01*
X0327099Y0544654D01*
X0327099Y0544154D01*
X0327349Y0543903D01*
X0327349Y0543431D02*
X0327099Y0543181D01*
X0327099Y0542680D01*
X0328600Y0543903D02*
X0328600Y0544904D01*
X0328600Y0545377D02*
X0327599Y0546378D01*
X0327349Y0546378D01*
X0327099Y0546127D01*
X0327099Y0545627D01*
X0327349Y0545377D01*
X0328600Y0545377D02*
X0328600Y0546378D01*
X0308378Y0536814D02*
X0307377Y0536814D01*
X0307377Y0536064D01*
X0307877Y0536314D01*
X0308127Y0536314D01*
X0308378Y0536064D01*
X0308378Y0535563D01*
X0308127Y0535313D01*
X0307627Y0535313D01*
X0307377Y0535563D01*
X0306904Y0535313D02*
X0305903Y0535313D01*
X0306404Y0535313D02*
X0306404Y0536814D01*
X0305903Y0536314D01*
X0305431Y0536564D02*
X0305181Y0536814D01*
X0304680Y0536814D01*
X0304430Y0536564D01*
X0304430Y0535563D01*
X0304680Y0535313D01*
X0305181Y0535313D01*
X0305431Y0535563D01*
X0290978Y0539000D02*
X0290978Y0540001D01*
X0290727Y0540251D01*
X0290227Y0540251D01*
X0289977Y0540001D01*
X0289977Y0539751D01*
X0290227Y0539501D01*
X0290978Y0539501D01*
X0290978Y0539000D02*
X0290727Y0538750D01*
X0290227Y0538750D01*
X0289977Y0539000D01*
X0289504Y0538750D02*
X0288503Y0538750D01*
X0289004Y0538750D02*
X0289004Y0540251D01*
X0288503Y0539751D01*
X0288031Y0540001D02*
X0287781Y0540251D01*
X0287280Y0540251D01*
X0287030Y0540001D01*
X0287030Y0539000D01*
X0287280Y0538750D01*
X0287781Y0538750D01*
X0288031Y0539000D01*
X0339249Y0575100D02*
X0339249Y0575601D01*
X0339499Y0575851D01*
X0340500Y0575851D01*
X0340750Y0575601D01*
X0340750Y0575100D01*
X0340500Y0574850D01*
X0339499Y0574850D01*
X0339249Y0575100D01*
X0340250Y0575350D02*
X0340750Y0575851D01*
X0340750Y0576323D02*
X0340750Y0577324D01*
X0340750Y0576824D02*
X0339249Y0576824D01*
X0339749Y0576323D01*
X0348350Y0570601D02*
X0348350Y0569600D01*
X0348600Y0569350D01*
X0349101Y0569350D01*
X0349351Y0569600D01*
X0349823Y0569350D02*
X0350824Y0569350D01*
X0350324Y0569350D02*
X0350324Y0570851D01*
X0349823Y0570351D01*
X0349351Y0570601D02*
X0349101Y0570851D01*
X0348600Y0570851D01*
X0348350Y0570601D01*
X0351297Y0570601D02*
X0351547Y0570851D01*
X0352047Y0570851D01*
X0352297Y0570601D01*
X0352297Y0570351D01*
X0352047Y0570101D01*
X0352297Y0569850D01*
X0352297Y0569600D01*
X0352047Y0569350D01*
X0351547Y0569350D01*
X0351297Y0569600D01*
X0351797Y0570101D02*
X0352047Y0570101D01*
X0350324Y0565351D02*
X0350324Y0563850D01*
X0350824Y0563850D02*
X0349823Y0563850D01*
X0349351Y0564100D02*
X0349101Y0563850D01*
X0348600Y0563850D01*
X0348350Y0564100D01*
X0348350Y0565101D01*
X0348600Y0565351D01*
X0349101Y0565351D01*
X0349351Y0565101D01*
X0349823Y0564851D02*
X0350324Y0565351D01*
X0350574Y0560851D02*
X0350073Y0560851D01*
X0349823Y0560601D01*
X0349351Y0560601D02*
X0349101Y0560851D01*
X0348600Y0560851D01*
X0348350Y0560601D01*
X0348350Y0559600D01*
X0348600Y0559350D01*
X0349101Y0559350D01*
X0349351Y0559600D01*
X0349823Y0559350D02*
X0350824Y0560351D01*
X0350824Y0560601D01*
X0350574Y0560851D01*
X0350824Y0559350D02*
X0349823Y0559350D01*
X0354949Y0551378D02*
X0355950Y0550377D01*
X0356200Y0550627D01*
X0356200Y0551127D01*
X0355950Y0551378D01*
X0354949Y0551378D01*
X0354699Y0551127D01*
X0354699Y0550627D01*
X0354949Y0550377D01*
X0355950Y0550377D01*
X0356200Y0549904D02*
X0356200Y0548903D01*
X0356200Y0549404D02*
X0354699Y0549404D01*
X0355199Y0548903D01*
X0354949Y0548431D02*
X0354699Y0548181D01*
X0354699Y0547680D01*
X0354949Y0547430D01*
X0355950Y0547430D01*
X0356200Y0547680D01*
X0356200Y0548181D01*
X0355950Y0548431D01*
X0370403Y0546501D02*
X0370403Y0545500D01*
X0370654Y0545250D01*
X0371154Y0545250D01*
X0371404Y0545500D01*
X0371877Y0545500D02*
X0371877Y0545250D01*
X0371877Y0545500D02*
X0372878Y0546501D01*
X0372878Y0546751D01*
X0371877Y0546751D01*
X0371404Y0546501D02*
X0371154Y0546751D01*
X0370654Y0546751D01*
X0370403Y0546501D01*
X0396403Y0546501D02*
X0396403Y0545500D01*
X0396654Y0545250D01*
X0397154Y0545250D01*
X0397404Y0545500D01*
X0397877Y0546001D02*
X0398878Y0546001D01*
X0398627Y0546751D02*
X0397877Y0546001D01*
X0397404Y0546501D02*
X0397154Y0546751D01*
X0396654Y0546751D01*
X0396403Y0546501D01*
X0398627Y0546751D02*
X0398627Y0545250D01*
X0405430Y0545501D02*
X0406181Y0545501D01*
X0406431Y0545251D01*
X0406431Y0544751D01*
X0406181Y0544500D01*
X0405430Y0544500D01*
X0405430Y0544000D02*
X0405430Y0545501D01*
X0405931Y0544500D02*
X0406431Y0544000D01*
X0406903Y0544000D02*
X0407904Y0544000D01*
X0407404Y0544000D02*
X0407404Y0545501D01*
X0406903Y0545001D01*
X0408377Y0544751D02*
X0409127Y0544751D01*
X0409378Y0544500D01*
X0409378Y0544250D01*
X0409127Y0544000D01*
X0408627Y0544000D01*
X0408377Y0544250D01*
X0408377Y0544751D01*
X0408877Y0545251D01*
X0409378Y0545501D01*
X0409378Y0539501D02*
X0408377Y0539501D01*
X0408377Y0538751D01*
X0408877Y0539001D01*
X0409127Y0539001D01*
X0409378Y0538751D01*
X0409378Y0538250D01*
X0409127Y0538000D01*
X0408627Y0538000D01*
X0408377Y0538250D01*
X0407904Y0538000D02*
X0406903Y0538000D01*
X0406431Y0538000D02*
X0405931Y0538500D01*
X0406181Y0538500D02*
X0405430Y0538500D01*
X0405430Y0538000D02*
X0405430Y0539501D01*
X0406181Y0539501D01*
X0406431Y0539251D01*
X0406431Y0538751D01*
X0406181Y0538500D01*
X0406903Y0539001D02*
X0407404Y0539501D01*
X0407404Y0538000D01*
X0407404Y0550000D02*
X0407404Y0551501D01*
X0406903Y0551001D01*
X0406431Y0551251D02*
X0406431Y0550751D01*
X0406181Y0550500D01*
X0405430Y0550500D01*
X0405430Y0550000D02*
X0405430Y0551501D01*
X0406181Y0551501D01*
X0406431Y0551251D01*
X0405931Y0550500D02*
X0406431Y0550000D01*
X0406903Y0550000D02*
X0407904Y0550000D01*
X0408377Y0550000D02*
X0408377Y0550250D01*
X0409378Y0551251D01*
X0409378Y0551501D01*
X0408377Y0551501D01*
X0433894Y0550814D02*
X0433894Y0549313D01*
X0434895Y0549313D01*
X0435367Y0549313D02*
X0436368Y0549313D01*
X0436840Y0549313D02*
X0437591Y0549313D01*
X0437841Y0549563D01*
X0437841Y0550564D01*
X0437591Y0550814D01*
X0436840Y0550814D01*
X0436840Y0549313D01*
X0435868Y0550064D02*
X0435367Y0550064D01*
X0435367Y0550814D02*
X0435367Y0549313D01*
X0435367Y0550814D02*
X0436368Y0550814D01*
X0438314Y0550814D02*
X0439315Y0550814D01*
X0439315Y0550564D01*
X0438314Y0549563D01*
X0438314Y0549313D01*
X0437894Y0545814D02*
X0437894Y0544313D01*
X0438895Y0544313D01*
X0439367Y0544313D02*
X0440368Y0544313D01*
X0440840Y0544313D02*
X0441591Y0544313D01*
X0441841Y0544563D01*
X0441841Y0545564D01*
X0441591Y0545814D01*
X0440840Y0545814D01*
X0440840Y0544313D01*
X0439868Y0545064D02*
X0439367Y0545064D01*
X0439367Y0545814D02*
X0439367Y0544313D01*
X0439367Y0545814D02*
X0440368Y0545814D01*
X0442314Y0545064D02*
X0443064Y0545064D01*
X0443315Y0544813D01*
X0443315Y0544563D01*
X0443064Y0544313D01*
X0442564Y0544313D01*
X0442314Y0544563D01*
X0442314Y0545064D01*
X0442814Y0545564D01*
X0443315Y0545814D01*
X0439315Y0539814D02*
X0438314Y0539814D01*
X0438314Y0539064D01*
X0438814Y0539314D01*
X0439064Y0539314D01*
X0439315Y0539064D01*
X0439315Y0538563D01*
X0439064Y0538313D01*
X0438564Y0538313D01*
X0438314Y0538563D01*
X0437841Y0538563D02*
X0437841Y0539564D01*
X0437591Y0539814D01*
X0436840Y0539814D01*
X0436840Y0538313D01*
X0437591Y0538313D01*
X0437841Y0538563D01*
X0436368Y0538313D02*
X0435367Y0538313D01*
X0435367Y0539814D01*
X0436368Y0539814D01*
X0435868Y0539064D02*
X0435367Y0539064D01*
X0434895Y0538313D02*
X0433894Y0538313D01*
X0433894Y0539814D01*
X0414100Y0589903D02*
X0414350Y0590154D01*
X0414350Y0590654D01*
X0414100Y0590904D01*
X0414100Y0591377D02*
X0414350Y0591627D01*
X0414350Y0592127D01*
X0414100Y0592378D01*
X0413599Y0592378D01*
X0413349Y0592127D01*
X0413349Y0591877D01*
X0413599Y0591377D01*
X0412849Y0591377D01*
X0412849Y0592378D01*
X0413099Y0590904D02*
X0412849Y0590654D01*
X0412849Y0590154D01*
X0413099Y0589903D01*
X0414100Y0589903D01*
X0430430Y0602000D02*
X0430430Y0603501D01*
X0431181Y0603501D01*
X0431431Y0603251D01*
X0431431Y0602751D01*
X0431181Y0602500D01*
X0430430Y0602500D01*
X0430931Y0602500D02*
X0431431Y0602000D01*
X0431903Y0602000D02*
X0432904Y0602000D01*
X0432404Y0602000D02*
X0432404Y0603501D01*
X0431903Y0603001D01*
X0433377Y0602751D02*
X0434378Y0602751D01*
X0434127Y0603501D02*
X0434127Y0602000D01*
X0433377Y0602751D02*
X0434127Y0603501D01*
X0434127Y0607000D02*
X0433627Y0607000D01*
X0433377Y0607250D01*
X0433377Y0607751D01*
X0434127Y0607751D01*
X0434378Y0607500D01*
X0434378Y0607250D01*
X0434127Y0607000D01*
X0433377Y0607751D02*
X0433877Y0608251D01*
X0434378Y0608501D01*
X0432904Y0608251D02*
X0432904Y0607751D01*
X0432654Y0607500D01*
X0431903Y0607500D01*
X0431903Y0607000D02*
X0431903Y0608501D01*
X0432654Y0608501D01*
X0432904Y0608251D01*
X0432404Y0607500D02*
X0432904Y0607000D01*
X0454350Y0604851D02*
X0455351Y0604851D01*
X0454850Y0604851D02*
X0454850Y0603350D01*
X0455823Y0603600D02*
X0455823Y0603850D01*
X0456073Y0604101D01*
X0456574Y0604101D01*
X0456824Y0603850D01*
X0456824Y0603600D01*
X0456574Y0603350D01*
X0456073Y0603350D01*
X0455823Y0603600D01*
X0456073Y0604101D02*
X0455823Y0604351D01*
X0455823Y0604601D01*
X0456073Y0604851D01*
X0456574Y0604851D01*
X0456824Y0604601D01*
X0456824Y0604351D01*
X0456574Y0604101D01*
X0453600Y0630930D02*
X0452099Y0630930D01*
X0452099Y0631681D01*
X0452349Y0631931D01*
X0452849Y0631931D01*
X0453100Y0631681D01*
X0453100Y0630930D01*
X0453100Y0631431D02*
X0453600Y0631931D01*
X0453600Y0632403D02*
X0453600Y0633404D01*
X0453600Y0632904D02*
X0452099Y0632904D01*
X0452599Y0632403D01*
X0452349Y0633877D02*
X0452099Y0634127D01*
X0452099Y0634627D01*
X0452349Y0634878D01*
X0453350Y0633877D01*
X0453600Y0634127D01*
X0453600Y0634627D01*
X0453350Y0634878D01*
X0452349Y0634878D01*
X0452349Y0633877D02*
X0453350Y0633877D01*
X0404600Y0657430D02*
X0403099Y0657430D01*
X0403099Y0658181D01*
X0403349Y0658431D01*
X0403849Y0658431D01*
X0404100Y0658181D01*
X0404100Y0657430D01*
X0404100Y0657931D02*
X0404600Y0658431D01*
X0404600Y0658903D02*
X0404600Y0659904D01*
X0404600Y0659404D02*
X0403099Y0659404D01*
X0403599Y0658903D01*
X0403349Y0660377D02*
X0403099Y0660627D01*
X0403099Y0661127D01*
X0403349Y0661378D01*
X0403599Y0661378D01*
X0403849Y0661127D01*
X0404100Y0661378D01*
X0404350Y0661378D01*
X0404600Y0661127D01*
X0404600Y0660627D01*
X0404350Y0660377D01*
X0403849Y0660877D02*
X0403849Y0661127D01*
X0394824Y0657851D02*
X0394824Y0657601D01*
X0393823Y0656600D01*
X0393823Y0656350D01*
X0392850Y0656350D02*
X0392850Y0657851D01*
X0392350Y0657851D02*
X0393351Y0657851D01*
X0393823Y0657851D02*
X0394824Y0657851D01*
X0374297Y0652101D02*
X0373297Y0651100D01*
X0373547Y0650850D01*
X0374047Y0650850D01*
X0374297Y0651100D01*
X0374297Y0652101D01*
X0374047Y0652351D01*
X0373547Y0652351D01*
X0373297Y0652101D01*
X0373297Y0651100D01*
X0372824Y0650850D02*
X0371823Y0650850D01*
X0372824Y0651851D01*
X0372824Y0652101D01*
X0372574Y0652351D01*
X0372073Y0652351D01*
X0371823Y0652101D01*
X0371351Y0652101D02*
X0371101Y0652351D01*
X0370600Y0652351D01*
X0370350Y0652101D01*
X0370350Y0651100D01*
X0370600Y0650850D01*
X0371101Y0650850D01*
X0371351Y0651100D01*
X0371999Y0655850D02*
X0371999Y0656601D01*
X0372249Y0656851D01*
X0372749Y0656851D01*
X0373000Y0656601D01*
X0373000Y0655850D01*
X0373500Y0655850D02*
X0371999Y0655850D01*
X0373000Y0656350D02*
X0373500Y0656851D01*
X0373250Y0657323D02*
X0373500Y0657573D01*
X0373500Y0658074D01*
X0373250Y0658324D01*
X0372749Y0658324D01*
X0372499Y0658074D01*
X0372499Y0657824D01*
X0372749Y0657323D01*
X0371999Y0657323D01*
X0371999Y0658324D01*
X0355600Y0658431D02*
X0355100Y0657931D01*
X0355100Y0658181D02*
X0355100Y0657430D01*
X0355600Y0657430D02*
X0354099Y0657430D01*
X0354099Y0658181D01*
X0354349Y0658431D01*
X0354849Y0658431D01*
X0355100Y0658181D01*
X0355600Y0658903D02*
X0355600Y0659904D01*
X0355600Y0660377D02*
X0354599Y0661378D01*
X0354349Y0661378D01*
X0354099Y0661127D01*
X0354099Y0660627D01*
X0354349Y0660377D01*
X0354099Y0659404D02*
X0355600Y0659404D01*
X0355600Y0660377D02*
X0355600Y0661378D01*
X0354099Y0659404D02*
X0354599Y0658903D01*
X0344824Y0656851D02*
X0344324Y0656601D01*
X0343823Y0656101D01*
X0344574Y0656101D01*
X0344824Y0655850D01*
X0344824Y0655600D01*
X0344574Y0655350D01*
X0344073Y0655350D01*
X0343823Y0655600D01*
X0343823Y0656101D01*
X0343351Y0656851D02*
X0342350Y0656851D01*
X0342850Y0656851D02*
X0342850Y0655350D01*
X0323500Y0655850D02*
X0321999Y0655850D01*
X0321999Y0656601D01*
X0322249Y0656851D01*
X0322749Y0656851D01*
X0323000Y0656601D01*
X0323000Y0655850D01*
X0323000Y0656350D02*
X0323500Y0656851D01*
X0322749Y0657323D02*
X0322749Y0658324D01*
X0321999Y0658074D02*
X0322749Y0657323D01*
X0321999Y0658074D02*
X0323500Y0658074D01*
X0293600Y0633877D02*
X0293350Y0633877D01*
X0292349Y0634878D01*
X0292099Y0634878D01*
X0292099Y0633877D01*
X0292349Y0633404D02*
X0292849Y0633404D01*
X0293100Y0633154D01*
X0293100Y0632403D01*
X0293600Y0632403D02*
X0292099Y0632403D01*
X0292099Y0633154D01*
X0292349Y0633404D01*
X0293100Y0632904D02*
X0293600Y0633404D01*
X0289297Y0620601D02*
X0289297Y0619100D01*
X0288797Y0619100D02*
X0289797Y0619100D01*
X0288797Y0620101D02*
X0289297Y0620601D01*
X0287824Y0620601D02*
X0287824Y0619100D01*
X0288324Y0619100D02*
X0287323Y0619100D01*
X0286851Y0619100D02*
X0286350Y0619600D01*
X0286601Y0619600D02*
X0285850Y0619600D01*
X0285850Y0619100D02*
X0285850Y0620601D01*
X0286601Y0620601D01*
X0286851Y0620351D01*
X0286851Y0619851D01*
X0286601Y0619600D01*
X0287323Y0620101D02*
X0287824Y0620601D01*
X0288074Y0605601D02*
X0288324Y0605351D01*
X0288324Y0605101D01*
X0288074Y0604851D01*
X0288324Y0604600D01*
X0288324Y0604350D01*
X0288074Y0604100D01*
X0287573Y0604100D01*
X0287323Y0604350D01*
X0286851Y0604100D02*
X0286350Y0604600D01*
X0286601Y0604600D02*
X0285850Y0604600D01*
X0285850Y0604100D02*
X0285850Y0605601D01*
X0286601Y0605601D01*
X0286851Y0605351D01*
X0286851Y0604851D01*
X0286601Y0604600D01*
X0287323Y0605351D02*
X0287573Y0605601D01*
X0288074Y0605601D01*
X0288074Y0604851D02*
X0287824Y0604851D01*
X0287100Y0597797D02*
X0287100Y0596797D01*
X0287100Y0596324D02*
X0287100Y0595323D01*
X0287100Y0595824D02*
X0285599Y0595824D01*
X0286099Y0595323D01*
X0285849Y0594851D02*
X0285599Y0594601D01*
X0285599Y0594100D01*
X0285849Y0593850D01*
X0286850Y0593850D01*
X0287100Y0594100D01*
X0287100Y0594601D01*
X0286850Y0594851D01*
X0286099Y0596797D02*
X0285599Y0597297D01*
X0287100Y0597297D01*
X0290349Y0585878D02*
X0290349Y0584877D01*
X0291099Y0584877D01*
X0290849Y0585377D01*
X0290849Y0585627D01*
X0291099Y0585878D01*
X0291600Y0585878D01*
X0291850Y0585627D01*
X0291850Y0585127D01*
X0291600Y0584877D01*
X0291600Y0584404D02*
X0290349Y0584404D01*
X0290349Y0583403D02*
X0291600Y0583403D01*
X0291850Y0583654D01*
X0291850Y0584154D01*
X0291600Y0584404D01*
X0309930Y0587500D02*
X0310180Y0587250D01*
X0310681Y0587250D01*
X0310931Y0587500D01*
X0311403Y0587250D02*
X0312404Y0587250D01*
X0312877Y0587250D02*
X0312877Y0587500D01*
X0313878Y0588501D01*
X0313878Y0588751D01*
X0312877Y0588751D01*
X0311904Y0588751D02*
X0311904Y0587250D01*
X0311403Y0588251D02*
X0311904Y0588751D01*
X0310931Y0588501D02*
X0310681Y0588751D01*
X0310180Y0588751D01*
X0309930Y0588501D01*
X0309930Y0587500D01*
X0310749Y0597350D02*
X0311750Y0597350D01*
X0312000Y0597600D01*
X0312000Y0598101D01*
X0311750Y0598351D01*
X0311750Y0598823D02*
X0312000Y0599073D01*
X0312000Y0599574D01*
X0311750Y0599824D01*
X0310749Y0599824D01*
X0310499Y0599574D01*
X0310499Y0599073D01*
X0310749Y0598823D01*
X0310999Y0598823D01*
X0311249Y0599073D01*
X0311249Y0599824D01*
X0310749Y0598351D02*
X0310499Y0598101D01*
X0310499Y0597600D01*
X0310749Y0597350D01*
X0316430Y0612000D02*
X0316430Y0613501D01*
X0317181Y0613501D01*
X0317431Y0613251D01*
X0317431Y0612751D01*
X0317181Y0612500D01*
X0316430Y0612500D01*
X0316931Y0612500D02*
X0317431Y0612000D01*
X0317903Y0612000D02*
X0318904Y0612000D01*
X0318404Y0612000D02*
X0318404Y0613501D01*
X0317903Y0613001D01*
X0319377Y0613001D02*
X0319627Y0612751D01*
X0320378Y0612751D01*
X0320378Y0613251D02*
X0320127Y0613501D01*
X0319627Y0613501D01*
X0319377Y0613251D01*
X0319377Y0613001D01*
X0319377Y0612250D02*
X0319627Y0612000D01*
X0320127Y0612000D01*
X0320378Y0612250D01*
X0320378Y0613251D01*
X0329850Y0613601D02*
X0329850Y0612100D01*
X0329850Y0612600D02*
X0330601Y0612600D01*
X0330851Y0612851D01*
X0330851Y0613351D01*
X0330601Y0613601D01*
X0329850Y0613601D01*
X0330350Y0612600D02*
X0330851Y0612100D01*
X0331323Y0612100D02*
X0332324Y0613101D01*
X0332324Y0613351D01*
X0332074Y0613601D01*
X0331573Y0613601D01*
X0331323Y0613351D01*
X0331323Y0612100D02*
X0332324Y0612100D01*
X0332797Y0612100D02*
X0333797Y0613101D01*
X0333797Y0613351D01*
X0333547Y0613601D01*
X0333047Y0613601D01*
X0332797Y0613351D01*
X0332797Y0612100D02*
X0333797Y0612100D01*
X0346903Y0602501D02*
X0346903Y0601500D01*
X0347154Y0601250D01*
X0347654Y0601250D01*
X0347904Y0601500D01*
X0348377Y0601500D02*
X0348627Y0601250D01*
X0349127Y0601250D01*
X0349378Y0601500D01*
X0349378Y0601750D01*
X0349127Y0602001D01*
X0348377Y0602001D01*
X0348377Y0601500D01*
X0348377Y0602001D02*
X0348877Y0602501D01*
X0349378Y0602751D01*
X0347904Y0602501D02*
X0347654Y0602751D01*
X0347154Y0602751D01*
X0346903Y0602501D01*
X0354099Y0612930D02*
X0355100Y0612930D01*
X0355350Y0613180D01*
X0355350Y0613681D01*
X0355100Y0613931D01*
X0355350Y0614403D02*
X0354349Y0615404D01*
X0354099Y0615404D01*
X0353849Y0615154D01*
X0353849Y0614654D01*
X0354099Y0614403D01*
X0354099Y0613931D02*
X0353849Y0613681D01*
X0353849Y0613180D01*
X0354099Y0612930D01*
X0355350Y0614403D02*
X0355350Y0615404D01*
X0355350Y0615877D02*
X0355350Y0616878D01*
X0355350Y0616377D02*
X0353849Y0616377D01*
X0354349Y0615877D01*
X0369849Y0615904D02*
X0371350Y0615904D01*
X0371350Y0616404D02*
X0371350Y0615403D01*
X0371100Y0614931D02*
X0371350Y0614681D01*
X0371350Y0614180D01*
X0371100Y0613930D01*
X0370099Y0613930D01*
X0369849Y0614180D01*
X0369849Y0614681D01*
X0370099Y0614931D01*
X0370349Y0615403D02*
X0369849Y0615904D01*
X0370099Y0616877D02*
X0370349Y0616877D01*
X0370599Y0617127D01*
X0370599Y0617627D01*
X0370850Y0617878D01*
X0371100Y0617878D01*
X0371350Y0617627D01*
X0371350Y0617127D01*
X0371100Y0616877D01*
X0370850Y0616877D01*
X0370599Y0617127D01*
X0370599Y0617627D02*
X0370349Y0617878D01*
X0370099Y0617878D01*
X0369849Y0617627D01*
X0369849Y0617127D01*
X0370099Y0616877D01*
X0382599Y0630430D02*
X0383600Y0630430D01*
X0383850Y0630680D01*
X0383850Y0631181D01*
X0383600Y0631431D01*
X0383850Y0631903D02*
X0383850Y0632904D01*
X0383850Y0632404D02*
X0382349Y0632404D01*
X0382849Y0631903D01*
X0382599Y0631431D02*
X0382349Y0631181D01*
X0382349Y0630680D01*
X0382599Y0630430D01*
X0383099Y0633377D02*
X0383099Y0634127D01*
X0383350Y0634378D01*
X0383600Y0634378D01*
X0383850Y0634127D01*
X0383850Y0633627D01*
X0383600Y0633377D01*
X0383099Y0633377D01*
X0382599Y0633877D01*
X0382349Y0634378D01*
X0390350Y0620351D02*
X0391101Y0620351D01*
X0391351Y0620101D01*
X0391351Y0619601D01*
X0391101Y0619350D01*
X0390350Y0619350D01*
X0390350Y0618850D02*
X0390350Y0620351D01*
X0390850Y0619350D02*
X0391351Y0618850D01*
X0391823Y0618850D02*
X0392824Y0618850D01*
X0392324Y0618850D02*
X0392324Y0620351D01*
X0391823Y0619851D01*
X0392073Y0615351D02*
X0391823Y0615101D01*
X0392073Y0615351D02*
X0392574Y0615351D01*
X0392824Y0615101D01*
X0392824Y0614851D01*
X0391823Y0613850D01*
X0392824Y0613850D01*
X0391351Y0613850D02*
X0390850Y0614350D01*
X0391101Y0614350D02*
X0390350Y0614350D01*
X0390350Y0613850D02*
X0390350Y0615351D01*
X0391101Y0615351D01*
X0391351Y0615101D01*
X0391351Y0614601D01*
X0391101Y0614350D01*
X0366324Y0599101D02*
X0366324Y0598851D01*
X0366074Y0598601D01*
X0366324Y0598350D01*
X0366324Y0598100D01*
X0366074Y0597850D01*
X0365573Y0597850D01*
X0365323Y0598100D01*
X0364851Y0598100D02*
X0364601Y0597850D01*
X0364100Y0597850D01*
X0363850Y0598100D01*
X0363850Y0599101D01*
X0364100Y0599351D01*
X0364601Y0599351D01*
X0364851Y0599101D01*
X0365323Y0599101D02*
X0365573Y0599351D01*
X0366074Y0599351D01*
X0366324Y0599101D01*
X0366074Y0598601D02*
X0365824Y0598601D01*
X0333678Y0588901D02*
X0333427Y0589151D01*
X0332927Y0589151D01*
X0332677Y0588901D01*
X0333678Y0588901D02*
X0333678Y0588651D01*
X0332677Y0587650D01*
X0333678Y0587650D01*
X0332204Y0587650D02*
X0331203Y0587650D01*
X0331704Y0587650D02*
X0331704Y0589151D01*
X0331203Y0588651D01*
X0330731Y0588901D02*
X0330481Y0589151D01*
X0329980Y0589151D01*
X0329730Y0588901D01*
X0329730Y0587900D01*
X0329980Y0587650D01*
X0330481Y0587650D01*
X0330731Y0587900D01*
X0270824Y0603600D02*
X0270574Y0603350D01*
X0270073Y0603350D01*
X0269823Y0603600D01*
X0269823Y0604101D02*
X0270324Y0604351D01*
X0270574Y0604351D01*
X0270824Y0604101D01*
X0270824Y0603600D01*
X0269823Y0604101D02*
X0269823Y0604851D01*
X0270824Y0604851D01*
X0269351Y0604851D02*
X0268350Y0604851D01*
X0268850Y0604851D02*
X0268850Y0603350D01*
X0349803Y0686500D02*
X0349803Y0688001D01*
X0350554Y0688001D01*
X0350804Y0687751D01*
X0350804Y0687251D01*
X0350554Y0687000D01*
X0349803Y0687000D01*
X0350304Y0687000D02*
X0350804Y0686500D01*
X0351277Y0686750D02*
X0351277Y0687000D01*
X0351527Y0687251D01*
X0352027Y0687251D01*
X0352278Y0687000D01*
X0352278Y0686750D01*
X0352027Y0686500D01*
X0351527Y0686500D01*
X0351277Y0686750D01*
X0351527Y0687251D02*
X0351277Y0687501D01*
X0351277Y0687751D01*
X0351527Y0688001D01*
X0352027Y0688001D01*
X0352278Y0687751D01*
X0352278Y0687501D01*
X0352027Y0687251D01*
X0365950Y0694600D02*
X0365950Y0696101D01*
X0366701Y0696101D01*
X0366951Y0695851D01*
X0366951Y0695351D01*
X0366701Y0695100D01*
X0365950Y0695100D01*
X0366450Y0695100D02*
X0366951Y0694600D01*
X0367423Y0694850D02*
X0367673Y0694600D01*
X0368174Y0694600D01*
X0368424Y0694850D01*
X0368424Y0695851D01*
X0368174Y0696101D01*
X0367673Y0696101D01*
X0367423Y0695851D01*
X0367423Y0695601D01*
X0367673Y0695351D01*
X0368424Y0695351D01*
X0394200Y0432601D02*
X0393950Y0432351D01*
X0393950Y0431350D01*
X0394200Y0431100D01*
X0394701Y0431100D01*
X0394951Y0431350D01*
X0395423Y0431100D02*
X0396424Y0431100D01*
X0395924Y0431100D02*
X0395924Y0432601D01*
X0395423Y0432101D01*
X0394951Y0432351D02*
X0394701Y0432601D01*
X0394200Y0432601D01*
X0396897Y0431851D02*
X0397897Y0431851D01*
X0397647Y0432601D02*
X0396897Y0431851D01*
X0397647Y0432601D02*
X0397647Y0431100D01*
X0341500Y0425274D02*
X0341500Y0424773D01*
X0341250Y0424523D01*
X0341000Y0424523D01*
X0340749Y0424773D01*
X0340749Y0425274D01*
X0341000Y0425524D01*
X0341250Y0425524D01*
X0341500Y0425274D01*
X0340749Y0425274D02*
X0340499Y0425524D01*
X0340249Y0425524D01*
X0339999Y0425274D01*
X0339999Y0424773D01*
X0340249Y0424523D01*
X0340499Y0424523D01*
X0340749Y0424773D01*
X0340249Y0424051D02*
X0339999Y0423801D01*
X0339999Y0423300D01*
X0340249Y0423050D01*
X0341250Y0423050D01*
X0341500Y0423300D01*
X0341500Y0423801D01*
X0341250Y0424051D01*
D16*
X0365900Y0414900D02*
X0365900Y0440700D01*
X0379900Y0440700D01*
X0379900Y0414900D01*
X0365900Y0414900D01*
X0319611Y0538576D02*
X0311737Y0538576D01*
X0303863Y0538576D02*
X0297564Y0538576D01*
X0295989Y0540150D01*
X0295989Y0546450D01*
X0297564Y0548024D01*
X0303863Y0548024D01*
X0311737Y0548024D02*
X0319611Y0548024D01*
X0319611Y0538576D01*
X0313643Y0550068D02*
X0293957Y0550068D01*
X0293957Y0583532D01*
X0313643Y0583532D01*
X0313643Y0550068D01*
X0347119Y0574957D02*
X0349481Y0574957D01*
X0354599Y0582438D02*
X0354599Y0587162D01*
X0349481Y0594643D02*
X0347119Y0594643D01*
X0342001Y0587162D02*
X0342001Y0582438D01*
X0295922Y0580800D02*
X0295924Y0580859D01*
X0295930Y0580917D01*
X0295940Y0580975D01*
X0295953Y0581032D01*
X0295971Y0581088D01*
X0295992Y0581143D01*
X0296016Y0581196D01*
X0296045Y0581247D01*
X0296076Y0581297D01*
X0296111Y0581344D01*
X0296149Y0581389D01*
X0296190Y0581431D01*
X0296233Y0581470D01*
X0296279Y0581507D01*
X0296328Y0581540D01*
X0296378Y0581570D01*
X0296430Y0581596D01*
X0296484Y0581619D01*
X0296540Y0581639D01*
X0296596Y0581654D01*
X0296654Y0581666D01*
X0296712Y0581674D01*
X0296771Y0581678D01*
X0296829Y0581678D01*
X0296888Y0581674D01*
X0296946Y0581666D01*
X0297004Y0581654D01*
X0297060Y0581639D01*
X0297116Y0581619D01*
X0297170Y0581596D01*
X0297222Y0581570D01*
X0297272Y0581540D01*
X0297321Y0581507D01*
X0297367Y0581470D01*
X0297410Y0581431D01*
X0297451Y0581389D01*
X0297489Y0581344D01*
X0297524Y0581297D01*
X0297555Y0581247D01*
X0297584Y0581196D01*
X0297608Y0581143D01*
X0297629Y0581088D01*
X0297647Y0581032D01*
X0297660Y0580975D01*
X0297670Y0580917D01*
X0297676Y0580859D01*
X0297678Y0580800D01*
X0297676Y0580741D01*
X0297670Y0580683D01*
X0297660Y0580625D01*
X0297647Y0580568D01*
X0297629Y0580512D01*
X0297608Y0580457D01*
X0297584Y0580404D01*
X0297555Y0580353D01*
X0297524Y0580303D01*
X0297489Y0580256D01*
X0297451Y0580211D01*
X0297410Y0580169D01*
X0297367Y0580130D01*
X0297321Y0580093D01*
X0297272Y0580060D01*
X0297222Y0580030D01*
X0297170Y0580004D01*
X0297116Y0579981D01*
X0297060Y0579961D01*
X0297004Y0579946D01*
X0296946Y0579934D01*
X0296888Y0579926D01*
X0296829Y0579922D01*
X0296771Y0579922D01*
X0296712Y0579926D01*
X0296654Y0579934D01*
X0296596Y0579946D01*
X0296540Y0579961D01*
X0296484Y0579981D01*
X0296430Y0580004D01*
X0296378Y0580030D01*
X0296328Y0580060D01*
X0296279Y0580093D01*
X0296233Y0580130D01*
X0296190Y0580169D01*
X0296149Y0580211D01*
X0296111Y0580256D01*
X0296076Y0580303D01*
X0296045Y0580353D01*
X0296016Y0580404D01*
X0295992Y0580457D01*
X0295971Y0580512D01*
X0295953Y0580568D01*
X0295940Y0580625D01*
X0295930Y0580683D01*
X0295924Y0580741D01*
X0295922Y0580800D01*
X0312052Y0621910D02*
X0312052Y0624863D01*
X0312052Y0621910D02*
X0337643Y0621910D01*
X0337643Y0622894D01*
X0331737Y0630847D02*
X0323863Y0630847D01*
X0323863Y0636753D02*
X0331737Y0636753D01*
X0337643Y0634706D02*
X0337643Y0645690D01*
X0312052Y0645690D01*
X0312052Y0634706D01*
X0322032Y0676426D02*
X0311426Y0687032D01*
X0223800Y0616300D02*
X0223800Y0601300D01*
X0405568Y0676426D02*
X0416174Y0687032D01*
X0503800Y0616300D02*
X0503800Y0601300D01*
D17*
X0502364Y0602402D02*
X0499362Y0602402D01*
X0501614Y0604654D01*
X0501614Y0600150D01*
X0497760Y0600901D02*
X0497760Y0603903D01*
X0497010Y0604654D01*
X0494758Y0604654D01*
X0494758Y0600150D01*
X0497010Y0600150D01*
X0497760Y0600901D01*
X0493156Y0600150D02*
X0490154Y0600150D01*
X0490154Y0604654D01*
X0493156Y0604654D01*
X0491655Y0602402D02*
X0490154Y0602402D01*
X0488553Y0600150D02*
X0485550Y0600150D01*
X0485550Y0604654D01*
X0453643Y0622146D02*
X0453808Y0621907D01*
X0453979Y0621672D01*
X0454155Y0621442D01*
X0454338Y0621215D01*
X0454525Y0620994D01*
X0454719Y0620777D01*
X0454917Y0620564D01*
X0455120Y0620357D01*
X0455329Y0620155D01*
X0455542Y0619958D01*
X0455761Y0619766D01*
X0455984Y0619580D01*
X0456211Y0619399D01*
X0456443Y0619224D01*
X0456679Y0619054D01*
X0456919Y0618891D01*
X0457163Y0618733D01*
X0457411Y0618581D01*
X0457662Y0618436D01*
X0457917Y0618297D01*
X0458175Y0618164D01*
X0458437Y0618037D01*
X0458701Y0617917D01*
X0458969Y0617803D01*
X0459239Y0617696D01*
X0459511Y0617596D01*
X0459786Y0617502D01*
X0460064Y0617415D01*
X0460343Y0617335D01*
X0460624Y0617262D01*
X0460907Y0617196D01*
X0461191Y0617136D01*
X0461477Y0617084D01*
X0461764Y0617039D01*
X0462052Y0617001D01*
X0462341Y0616969D01*
X0462630Y0616945D01*
X0462921Y0616929D01*
X0463211Y0616919D01*
X0463501Y0616916D01*
X0463792Y0616921D01*
X0464082Y0616932D01*
X0464372Y0616951D01*
X0464661Y0616977D01*
X0464950Y0617010D01*
X0465238Y0617050D01*
X0465525Y0617097D01*
X0465810Y0617151D01*
X0466094Y0617212D01*
X0466376Y0617280D01*
X0466657Y0617355D01*
X0466936Y0617436D01*
X0467213Y0617525D01*
X0467487Y0617620D01*
X0467759Y0617722D01*
X0468029Y0617831D01*
X0468295Y0617946D01*
X0468559Y0618068D01*
X0468820Y0618196D01*
X0469077Y0618331D01*
X0469331Y0618472D01*
X0469582Y0618619D01*
X0469829Y0618772D01*
X0470072Y0618931D01*
X0470311Y0619096D01*
X0470546Y0619267D01*
X0470776Y0619444D01*
X0471003Y0619626D01*
X0471224Y0619814D01*
X0471441Y0620007D01*
X0471654Y0620205D01*
X0471861Y0620409D01*
X0472063Y0620617D01*
X0472260Y0620831D01*
X0472452Y0621049D01*
X0472639Y0621272D01*
X0472819Y0621499D01*
X0472995Y0621731D01*
X0473164Y0621967D01*
X0473328Y0622207D01*
X0473485Y0622451D01*
X0473637Y0622699D01*
X0473783Y0622950D01*
X0473922Y0623205D01*
X0474055Y0623463D01*
X0474182Y0623725D01*
X0474302Y0623989D01*
X0474415Y0624257D01*
X0474522Y0624527D01*
X0474623Y0624799D01*
X0474717Y0625074D01*
X0474803Y0625352D01*
X0474884Y0625631D01*
X0474957Y0625912D01*
X0475023Y0626195D01*
X0475082Y0626479D01*
X0475135Y0626765D01*
X0475180Y0627052D01*
X0475218Y0627340D01*
X0475249Y0627629D01*
X0475273Y0627918D01*
X0475290Y0628208D01*
X0475300Y0628499D01*
X0475303Y0628789D01*
X0475299Y0629080D01*
X0475287Y0629370D01*
X0475268Y0629660D01*
X0475243Y0629949D01*
X0475210Y0630238D01*
X0475170Y0630526D01*
X0475123Y0630812D01*
X0475069Y0631098D01*
X0475008Y0631382D01*
X0474940Y0631664D01*
X0474865Y0631945D01*
X0474783Y0632224D01*
X0474695Y0632501D01*
X0474599Y0632775D01*
X0474497Y0633047D01*
X0474388Y0633316D01*
X0474273Y0633583D01*
X0474151Y0633847D01*
X0474023Y0634108D01*
X0473889Y0634365D01*
X0473748Y0634619D01*
X0473601Y0634870D01*
X0473448Y0635117D01*
X0473289Y0635360D01*
X0473124Y0635599D01*
X0472953Y0635834D01*
X0472776Y0636064D01*
X0472594Y0636291D01*
X0472406Y0636512D01*
X0472213Y0636730D01*
X0472015Y0636942D01*
X0471811Y0637149D01*
X0471603Y0637351D01*
X0471389Y0637549D01*
X0471171Y0637740D01*
X0470948Y0637927D01*
X0470721Y0638108D01*
X0470489Y0638283D01*
X0470253Y0638452D01*
X0470013Y0638616D01*
X0469769Y0638774D01*
X0469521Y0638925D01*
X0469270Y0639071D01*
X0469015Y0639210D01*
X0468757Y0639343D01*
X0468495Y0639470D01*
X0468231Y0639590D01*
X0467964Y0639704D01*
X0467693Y0639811D01*
X0467421Y0639911D01*
X0467146Y0640005D01*
X0466869Y0640092D01*
X0466589Y0640172D01*
X0466308Y0640245D01*
X0466025Y0640312D01*
X0465741Y0640371D01*
X0465455Y0640424D01*
X0465168Y0640469D01*
X0464880Y0640507D01*
X0464591Y0640538D01*
X0464302Y0640562D01*
X0464012Y0640579D01*
X0463722Y0640589D01*
X0463431Y0640592D01*
X0463141Y0640588D01*
X0462850Y0640576D01*
X0462560Y0640557D01*
X0462271Y0640532D01*
X0461982Y0640499D01*
X0461695Y0640459D01*
X0461408Y0640412D01*
X0461122Y0640358D01*
X0460838Y0640297D01*
X0460556Y0640229D01*
X0460275Y0640154D01*
X0459996Y0640072D01*
X0459720Y0639984D01*
X0459445Y0639889D01*
X0459173Y0639787D01*
X0458904Y0639678D01*
X0458637Y0639563D01*
X0458373Y0639441D01*
X0458112Y0639313D01*
X0457855Y0639178D01*
X0457601Y0639037D01*
X0457350Y0638890D01*
X0457103Y0638737D01*
X0456860Y0638578D01*
X0456621Y0638413D01*
X0456386Y0638242D01*
X0456156Y0638066D01*
X0455929Y0637884D01*
X0455707Y0637696D01*
X0455490Y0637503D01*
X0455278Y0637305D01*
X0455071Y0637101D01*
X0454868Y0636893D01*
X0454671Y0636679D01*
X0454479Y0636461D01*
X0454293Y0636238D01*
X0454112Y0636011D01*
X0453937Y0635779D01*
X0453767Y0635543D01*
X0453604Y0635303D01*
X0453446Y0635059D01*
X0453367Y0634981D02*
X0453446Y0634902D01*
X0453446Y0622146D01*
X0412437Y0675696D02*
X0410936Y0675696D01*
X0410186Y0676447D01*
X0408584Y0676447D02*
X0408584Y0679449D01*
X0407834Y0680200D01*
X0405582Y0680200D01*
X0405582Y0675696D01*
X0407834Y0675696D01*
X0408584Y0676447D01*
X0410186Y0679449D02*
X0410936Y0680200D01*
X0412437Y0680200D01*
X0413188Y0679449D01*
X0413188Y0678699D01*
X0412437Y0677948D01*
X0413188Y0677197D01*
X0413188Y0676447D01*
X0412437Y0675696D01*
X0412437Y0677948D02*
X0411687Y0677948D01*
X0403980Y0675696D02*
X0400978Y0675696D01*
X0400978Y0680200D01*
X0403980Y0680200D01*
X0402479Y0677948D02*
X0400978Y0677948D01*
X0399376Y0675696D02*
X0396374Y0675696D01*
X0396374Y0680200D01*
X0369913Y0709278D02*
X0369861Y0708992D01*
X0369816Y0708705D01*
X0369778Y0708417D01*
X0369746Y0708128D01*
X0369722Y0707839D01*
X0369706Y0707549D01*
X0369696Y0707259D01*
X0369693Y0706968D01*
X0369698Y0706678D01*
X0369709Y0706387D01*
X0369728Y0706097D01*
X0369754Y0705808D01*
X0369787Y0705519D01*
X0369827Y0705232D01*
X0369874Y0704945D01*
X0369928Y0704659D01*
X0369989Y0704375D01*
X0370057Y0704093D01*
X0370132Y0703812D01*
X0370213Y0703533D01*
X0370302Y0703257D01*
X0370397Y0702982D01*
X0370499Y0702710D01*
X0370608Y0702441D01*
X0370723Y0702174D01*
X0370845Y0701911D01*
X0370974Y0701650D01*
X0371108Y0701392D01*
X0371249Y0701138D01*
X0371396Y0700888D01*
X0371549Y0700641D01*
X0371708Y0700398D01*
X0371873Y0700159D01*
X0372044Y0699924D01*
X0372221Y0699693D01*
X0372403Y0699467D01*
X0372591Y0699245D01*
X0372784Y0699028D01*
X0372982Y0698816D01*
X0373186Y0698609D01*
X0373395Y0698406D01*
X0373608Y0698209D01*
X0373826Y0698017D01*
X0374049Y0697831D01*
X0374277Y0697650D01*
X0374508Y0697475D01*
X0374744Y0697306D01*
X0374984Y0697142D01*
X0375228Y0696984D01*
X0375476Y0696833D01*
X0375728Y0696687D01*
X0375983Y0696548D01*
X0376241Y0696415D01*
X0376502Y0696288D01*
X0376767Y0696168D01*
X0377034Y0696054D01*
X0377304Y0695947D01*
X0377577Y0695847D01*
X0377852Y0695753D01*
X0378129Y0695666D01*
X0378408Y0695586D01*
X0378689Y0695513D01*
X0378972Y0695447D01*
X0379257Y0695388D01*
X0379543Y0695335D01*
X0379830Y0695290D01*
X0380118Y0695252D01*
X0380406Y0695221D01*
X0380696Y0695196D01*
X0380986Y0695180D01*
X0381276Y0695170D01*
X0381567Y0695167D01*
X0381857Y0695171D01*
X0382148Y0695183D01*
X0382437Y0695202D01*
X0382727Y0695228D01*
X0383016Y0695260D01*
X0383303Y0695300D01*
X0383590Y0695347D01*
X0383875Y0695401D01*
X0384159Y0695462D01*
X0384442Y0695530D01*
X0384723Y0695605D01*
X0385001Y0695687D01*
X0385278Y0695776D01*
X0385553Y0695871D01*
X0385825Y0695973D01*
X0386094Y0696082D01*
X0386361Y0696197D01*
X0386624Y0696319D01*
X0386885Y0696447D01*
X0387143Y0696582D01*
X0387397Y0696722D01*
X0387647Y0696869D01*
X0387894Y0697023D01*
X0388137Y0697182D01*
X0388376Y0697347D01*
X0388611Y0697518D01*
X0388842Y0697694D01*
X0389068Y0697877D01*
X0389290Y0698064D01*
X0389507Y0698257D01*
X0389719Y0698456D01*
X0389927Y0698659D01*
X0390129Y0698868D01*
X0390326Y0699081D01*
X0390518Y0699299D01*
X0390704Y0699522D01*
X0390885Y0699750D01*
X0391060Y0699981D01*
X0391230Y0700217D01*
X0391393Y0700457D01*
X0391551Y0700701D01*
X0391703Y0700949D01*
X0391848Y0701201D01*
X0391988Y0701455D01*
X0392121Y0701714D01*
X0392247Y0701975D01*
X0392368Y0702240D01*
X0392481Y0702507D01*
X0392588Y0702777D01*
X0392689Y0703050D01*
X0392782Y0703325D01*
X0392869Y0703602D01*
X0392949Y0703881D01*
X0393023Y0704162D01*
X0393089Y0704445D01*
X0393148Y0704730D01*
X0393201Y0705015D01*
X0393246Y0705302D01*
X0393284Y0705590D01*
X0393315Y0705879D01*
X0393339Y0706169D01*
X0393356Y0706459D01*
X0393366Y0706749D01*
X0393369Y0707040D01*
X0393365Y0707330D01*
X0393353Y0707620D01*
X0393334Y0707910D01*
X0393309Y0708200D01*
X0393276Y0708488D01*
X0393236Y0708776D01*
X0393189Y0709063D01*
X0393135Y0709348D01*
X0393074Y0709632D01*
X0393006Y0709915D01*
X0392931Y0710195D01*
X0392849Y0710474D01*
X0392761Y0710751D01*
X0392665Y0711025D01*
X0392563Y0711297D01*
X0392455Y0711567D01*
X0392339Y0711834D01*
X0392218Y0712097D01*
X0392090Y0712358D01*
X0391955Y0712616D01*
X0391814Y0712870D01*
X0391667Y0713120D01*
X0391514Y0713367D01*
X0391355Y0713610D01*
X0391190Y0713849D01*
X0391019Y0714084D01*
X0390842Y0714315D01*
X0390660Y0714541D01*
X0390473Y0714763D01*
X0390279Y0714980D01*
X0390081Y0715192D01*
X0389878Y0715400D01*
X0389669Y0715602D01*
X0389456Y0715799D01*
X0389238Y0715991D01*
X0389015Y0716177D01*
X0388787Y0716358D01*
X0388556Y0716534D01*
X0388320Y0716703D01*
X0388080Y0716867D01*
X0387836Y0717024D01*
X0387588Y0717176D01*
X0387337Y0717322D01*
X0387082Y0717461D01*
X0386823Y0717594D01*
X0386562Y0717721D01*
X0386297Y0717841D01*
X0386030Y0717955D01*
X0385760Y0718062D01*
X0385487Y0718162D01*
X0385212Y0718256D01*
X0384935Y0718343D01*
X0384656Y0718423D01*
X0384375Y0718496D01*
X0384092Y0718563D01*
X0383808Y0718622D01*
X0383522Y0718674D01*
X0383235Y0718720D01*
X0382947Y0718758D01*
X0382658Y0718789D01*
X0382369Y0718813D01*
X0382078Y0718830D01*
X0381788Y0718840D01*
X0381498Y0718843D01*
X0381207Y0718839D01*
X0380917Y0718827D01*
X0380627Y0718808D01*
X0380338Y0718783D01*
X0380049Y0718750D01*
X0379761Y0718710D01*
X0379474Y0718663D01*
X0379189Y0718609D01*
X0378905Y0718548D01*
X0378793Y0718548D02*
X0378793Y0718437D01*
X0369774Y0709417D01*
X0343322Y0694913D02*
X0343608Y0694861D01*
X0343895Y0694816D01*
X0344183Y0694778D01*
X0344472Y0694746D01*
X0344761Y0694722D01*
X0345051Y0694706D01*
X0345341Y0694696D01*
X0345632Y0694693D01*
X0345922Y0694698D01*
X0346213Y0694709D01*
X0346503Y0694728D01*
X0346792Y0694754D01*
X0347081Y0694787D01*
X0347368Y0694827D01*
X0347655Y0694874D01*
X0347941Y0694928D01*
X0348225Y0694989D01*
X0348507Y0695057D01*
X0348788Y0695132D01*
X0349067Y0695213D01*
X0349343Y0695302D01*
X0349618Y0695397D01*
X0349890Y0695499D01*
X0350159Y0695608D01*
X0350426Y0695723D01*
X0350689Y0695845D01*
X0350950Y0695974D01*
X0351208Y0696108D01*
X0351462Y0696249D01*
X0351712Y0696396D01*
X0351959Y0696549D01*
X0352202Y0696708D01*
X0352441Y0696873D01*
X0352676Y0697044D01*
X0352907Y0697221D01*
X0353133Y0697403D01*
X0353355Y0697591D01*
X0353572Y0697784D01*
X0353784Y0697982D01*
X0353991Y0698186D01*
X0354194Y0698395D01*
X0354391Y0698608D01*
X0354583Y0698826D01*
X0354769Y0699049D01*
X0354950Y0699277D01*
X0355125Y0699508D01*
X0355294Y0699744D01*
X0355458Y0699984D01*
X0355616Y0700228D01*
X0355767Y0700476D01*
X0355913Y0700728D01*
X0356052Y0700983D01*
X0356185Y0701241D01*
X0356312Y0701502D01*
X0356432Y0701767D01*
X0356546Y0702034D01*
X0356653Y0702304D01*
X0356753Y0702577D01*
X0356847Y0702852D01*
X0356934Y0703129D01*
X0357014Y0703408D01*
X0357087Y0703689D01*
X0357153Y0703972D01*
X0357212Y0704257D01*
X0357265Y0704543D01*
X0357310Y0704830D01*
X0357348Y0705118D01*
X0357379Y0705406D01*
X0357404Y0705696D01*
X0357420Y0705986D01*
X0357430Y0706276D01*
X0357433Y0706567D01*
X0357429Y0706857D01*
X0357417Y0707148D01*
X0357398Y0707437D01*
X0357372Y0707727D01*
X0357340Y0708016D01*
X0357300Y0708303D01*
X0357253Y0708590D01*
X0357199Y0708875D01*
X0357138Y0709159D01*
X0357070Y0709442D01*
X0356995Y0709723D01*
X0356913Y0710001D01*
X0356824Y0710278D01*
X0356729Y0710553D01*
X0356627Y0710825D01*
X0356518Y0711094D01*
X0356403Y0711361D01*
X0356281Y0711624D01*
X0356153Y0711885D01*
X0356018Y0712143D01*
X0355878Y0712397D01*
X0355731Y0712647D01*
X0355577Y0712894D01*
X0355418Y0713137D01*
X0355253Y0713376D01*
X0355082Y0713611D01*
X0354906Y0713842D01*
X0354723Y0714068D01*
X0354536Y0714290D01*
X0354343Y0714507D01*
X0354144Y0714719D01*
X0353941Y0714927D01*
X0353732Y0715129D01*
X0353519Y0715326D01*
X0353301Y0715518D01*
X0353078Y0715704D01*
X0352850Y0715885D01*
X0352619Y0716060D01*
X0352383Y0716230D01*
X0352143Y0716393D01*
X0351899Y0716551D01*
X0351651Y0716703D01*
X0351399Y0716848D01*
X0351145Y0716988D01*
X0350886Y0717121D01*
X0350625Y0717247D01*
X0350360Y0717368D01*
X0350093Y0717481D01*
X0349823Y0717588D01*
X0349550Y0717689D01*
X0349275Y0717782D01*
X0348998Y0717869D01*
X0348719Y0717949D01*
X0348438Y0718023D01*
X0348155Y0718089D01*
X0347870Y0718148D01*
X0347585Y0718201D01*
X0347298Y0718246D01*
X0347010Y0718284D01*
X0346721Y0718315D01*
X0346431Y0718339D01*
X0346141Y0718356D01*
X0345851Y0718366D01*
X0345560Y0718369D01*
X0345270Y0718365D01*
X0344980Y0718353D01*
X0344690Y0718334D01*
X0344400Y0718309D01*
X0344112Y0718276D01*
X0343824Y0718236D01*
X0343537Y0718189D01*
X0343252Y0718135D01*
X0342968Y0718074D01*
X0342685Y0718006D01*
X0342405Y0717931D01*
X0342126Y0717849D01*
X0341849Y0717761D01*
X0341575Y0717665D01*
X0341303Y0717563D01*
X0341033Y0717455D01*
X0340766Y0717339D01*
X0340503Y0717218D01*
X0340242Y0717090D01*
X0339984Y0716955D01*
X0339730Y0716814D01*
X0339480Y0716667D01*
X0339233Y0716514D01*
X0338990Y0716355D01*
X0338751Y0716190D01*
X0338516Y0716019D01*
X0338285Y0715842D01*
X0338059Y0715660D01*
X0337837Y0715473D01*
X0337620Y0715279D01*
X0337408Y0715081D01*
X0337200Y0714878D01*
X0336998Y0714669D01*
X0336801Y0714456D01*
X0336609Y0714238D01*
X0336423Y0714015D01*
X0336242Y0713787D01*
X0336066Y0713556D01*
X0335897Y0713320D01*
X0335733Y0713080D01*
X0335576Y0712836D01*
X0335424Y0712588D01*
X0335278Y0712337D01*
X0335139Y0712082D01*
X0335006Y0711823D01*
X0334879Y0711562D01*
X0334759Y0711297D01*
X0334645Y0711030D01*
X0334538Y0710760D01*
X0334438Y0710487D01*
X0334344Y0710212D01*
X0334257Y0709935D01*
X0334177Y0709656D01*
X0334104Y0709375D01*
X0334037Y0709092D01*
X0333978Y0708808D01*
X0333926Y0708522D01*
X0333880Y0708235D01*
X0333842Y0707947D01*
X0333811Y0707658D01*
X0333787Y0707369D01*
X0333770Y0707078D01*
X0333760Y0706788D01*
X0333757Y0706498D01*
X0333761Y0706207D01*
X0333773Y0705917D01*
X0333792Y0705627D01*
X0333817Y0705338D01*
X0333850Y0705049D01*
X0333890Y0704761D01*
X0333937Y0704474D01*
X0333991Y0704189D01*
X0334052Y0703905D01*
X0334052Y0703793D02*
X0334163Y0703793D01*
X0343183Y0694774D01*
X0330290Y0679408D02*
X0328789Y0679408D01*
X0328038Y0678657D01*
X0326437Y0678657D02*
X0325686Y0679408D01*
X0323434Y0679408D01*
X0323434Y0674904D01*
X0325686Y0674904D01*
X0326437Y0675655D01*
X0326437Y0678657D01*
X0330290Y0679408D02*
X0331041Y0678657D01*
X0331041Y0677906D01*
X0328038Y0674904D01*
X0331041Y0674904D01*
X0321833Y0674904D02*
X0318830Y0674904D01*
X0318830Y0679408D01*
X0321833Y0679408D01*
X0320331Y0677156D02*
X0318830Y0677156D01*
X0317229Y0674904D02*
X0314226Y0674904D01*
X0314226Y0679408D01*
X0355532Y0639887D02*
X0356713Y0641068D01*
X0356543Y0639808D02*
X0356545Y0639839D01*
X0356551Y0639870D01*
X0356560Y0639900D01*
X0356574Y0639928D01*
X0356591Y0639954D01*
X0356610Y0639978D01*
X0356633Y0640000D01*
X0356659Y0640018D01*
X0356686Y0640033D01*
X0356715Y0640045D01*
X0356745Y0640053D01*
X0356776Y0640057D01*
X0356808Y0640057D01*
X0356839Y0640053D01*
X0356869Y0640045D01*
X0356898Y0640033D01*
X0356925Y0640018D01*
X0356951Y0640000D01*
X0356974Y0639978D01*
X0356993Y0639954D01*
X0357010Y0639928D01*
X0357024Y0639900D01*
X0357033Y0639870D01*
X0357039Y0639839D01*
X0357041Y0639808D01*
X0357039Y0639777D01*
X0357033Y0639746D01*
X0357024Y0639716D01*
X0357010Y0639688D01*
X0356993Y0639662D01*
X0356974Y0639638D01*
X0356951Y0639616D01*
X0356925Y0639598D01*
X0356898Y0639583D01*
X0356869Y0639571D01*
X0356839Y0639563D01*
X0356808Y0639559D01*
X0356776Y0639559D01*
X0356745Y0639563D01*
X0356715Y0639571D01*
X0356686Y0639583D01*
X0356659Y0639598D01*
X0356633Y0639616D01*
X0356610Y0639638D01*
X0356591Y0639662D01*
X0356574Y0639688D01*
X0356560Y0639716D01*
X0356551Y0639746D01*
X0356545Y0639777D01*
X0356543Y0639808D01*
X0370887Y0641068D02*
X0372068Y0641068D01*
X0372068Y0639887D01*
X0372068Y0625713D02*
X0372068Y0624532D01*
X0370887Y0624532D01*
X0356713Y0624532D02*
X0355532Y0624532D01*
X0355532Y0625713D01*
X0253643Y0622146D02*
X0253808Y0621907D01*
X0253979Y0621672D01*
X0254155Y0621442D01*
X0254338Y0621215D01*
X0254525Y0620994D01*
X0254719Y0620777D01*
X0254917Y0620564D01*
X0255120Y0620357D01*
X0255329Y0620155D01*
X0255542Y0619958D01*
X0255761Y0619766D01*
X0255984Y0619580D01*
X0256211Y0619399D01*
X0256443Y0619224D01*
X0256679Y0619054D01*
X0256919Y0618891D01*
X0257163Y0618733D01*
X0257411Y0618581D01*
X0257662Y0618436D01*
X0257917Y0618297D01*
X0258175Y0618164D01*
X0258437Y0618037D01*
X0258701Y0617917D01*
X0258969Y0617803D01*
X0259239Y0617696D01*
X0259511Y0617596D01*
X0259786Y0617502D01*
X0260064Y0617415D01*
X0260343Y0617335D01*
X0260624Y0617262D01*
X0260907Y0617196D01*
X0261191Y0617136D01*
X0261477Y0617084D01*
X0261764Y0617039D01*
X0262052Y0617001D01*
X0262341Y0616969D01*
X0262630Y0616945D01*
X0262921Y0616929D01*
X0263211Y0616919D01*
X0263501Y0616916D01*
X0263792Y0616921D01*
X0264082Y0616932D01*
X0264372Y0616951D01*
X0264661Y0616977D01*
X0264950Y0617010D01*
X0265238Y0617050D01*
X0265525Y0617097D01*
X0265810Y0617151D01*
X0266094Y0617212D01*
X0266376Y0617280D01*
X0266657Y0617355D01*
X0266936Y0617436D01*
X0267213Y0617525D01*
X0267487Y0617620D01*
X0267759Y0617722D01*
X0268029Y0617831D01*
X0268295Y0617946D01*
X0268559Y0618068D01*
X0268820Y0618196D01*
X0269077Y0618331D01*
X0269331Y0618472D01*
X0269582Y0618619D01*
X0269829Y0618772D01*
X0270072Y0618931D01*
X0270311Y0619096D01*
X0270546Y0619267D01*
X0270776Y0619444D01*
X0271003Y0619626D01*
X0271224Y0619814D01*
X0271441Y0620007D01*
X0271654Y0620205D01*
X0271861Y0620409D01*
X0272063Y0620617D01*
X0272260Y0620831D01*
X0272452Y0621049D01*
X0272639Y0621272D01*
X0272819Y0621499D01*
X0272995Y0621731D01*
X0273164Y0621967D01*
X0273328Y0622207D01*
X0273485Y0622451D01*
X0273637Y0622699D01*
X0273783Y0622950D01*
X0273922Y0623205D01*
X0274055Y0623463D01*
X0274182Y0623725D01*
X0274302Y0623989D01*
X0274415Y0624257D01*
X0274522Y0624527D01*
X0274623Y0624799D01*
X0274717Y0625074D01*
X0274803Y0625352D01*
X0274884Y0625631D01*
X0274957Y0625912D01*
X0275023Y0626195D01*
X0275082Y0626479D01*
X0275135Y0626765D01*
X0275180Y0627052D01*
X0275218Y0627340D01*
X0275249Y0627629D01*
X0275273Y0627918D01*
X0275290Y0628208D01*
X0275300Y0628499D01*
X0275303Y0628789D01*
X0275299Y0629080D01*
X0275287Y0629370D01*
X0275268Y0629660D01*
X0275243Y0629949D01*
X0275210Y0630238D01*
X0275170Y0630526D01*
X0275123Y0630812D01*
X0275069Y0631098D01*
X0275008Y0631382D01*
X0274940Y0631664D01*
X0274865Y0631945D01*
X0274783Y0632224D01*
X0274695Y0632501D01*
X0274599Y0632775D01*
X0274497Y0633047D01*
X0274388Y0633316D01*
X0274273Y0633583D01*
X0274151Y0633847D01*
X0274023Y0634108D01*
X0273889Y0634365D01*
X0273748Y0634619D01*
X0273601Y0634870D01*
X0273448Y0635117D01*
X0273289Y0635360D01*
X0273124Y0635599D01*
X0272953Y0635834D01*
X0272776Y0636064D01*
X0272594Y0636291D01*
X0272406Y0636512D01*
X0272213Y0636730D01*
X0272015Y0636942D01*
X0271811Y0637149D01*
X0271603Y0637351D01*
X0271389Y0637549D01*
X0271171Y0637740D01*
X0270948Y0637927D01*
X0270721Y0638108D01*
X0270489Y0638283D01*
X0270253Y0638452D01*
X0270013Y0638616D01*
X0269769Y0638774D01*
X0269521Y0638925D01*
X0269270Y0639071D01*
X0269015Y0639210D01*
X0268757Y0639343D01*
X0268495Y0639470D01*
X0268231Y0639590D01*
X0267964Y0639704D01*
X0267693Y0639811D01*
X0267421Y0639911D01*
X0267146Y0640005D01*
X0266869Y0640092D01*
X0266589Y0640172D01*
X0266308Y0640245D01*
X0266025Y0640312D01*
X0265741Y0640371D01*
X0265455Y0640424D01*
X0265168Y0640469D01*
X0264880Y0640507D01*
X0264591Y0640538D01*
X0264302Y0640562D01*
X0264012Y0640579D01*
X0263722Y0640589D01*
X0263431Y0640592D01*
X0263141Y0640588D01*
X0262850Y0640576D01*
X0262560Y0640557D01*
X0262271Y0640532D01*
X0261982Y0640499D01*
X0261695Y0640459D01*
X0261408Y0640412D01*
X0261122Y0640358D01*
X0260838Y0640297D01*
X0260556Y0640229D01*
X0260275Y0640154D01*
X0259996Y0640072D01*
X0259720Y0639984D01*
X0259445Y0639889D01*
X0259173Y0639787D01*
X0258904Y0639678D01*
X0258637Y0639563D01*
X0258373Y0639441D01*
X0258112Y0639313D01*
X0257855Y0639178D01*
X0257601Y0639037D01*
X0257350Y0638890D01*
X0257103Y0638737D01*
X0256860Y0638578D01*
X0256621Y0638413D01*
X0256386Y0638242D01*
X0256156Y0638066D01*
X0255929Y0637884D01*
X0255707Y0637696D01*
X0255490Y0637503D01*
X0255278Y0637305D01*
X0255071Y0637101D01*
X0254868Y0636893D01*
X0254671Y0636679D01*
X0254479Y0636461D01*
X0254293Y0636238D01*
X0254112Y0636011D01*
X0253937Y0635779D01*
X0253767Y0635543D01*
X0253604Y0635303D01*
X0253446Y0635059D01*
X0253367Y0634981D02*
X0253446Y0634902D01*
X0253446Y0622146D01*
X0240447Y0604454D02*
X0240447Y0599950D01*
X0238946Y0599950D02*
X0241949Y0599950D01*
X0238946Y0602953D02*
X0240447Y0604454D01*
X0237345Y0603703D02*
X0237345Y0600701D01*
X0236594Y0599950D01*
X0234342Y0599950D01*
X0234342Y0604454D01*
X0236594Y0604454D01*
X0237345Y0603703D01*
X0232741Y0604454D02*
X0229738Y0604454D01*
X0229738Y0599950D01*
X0232741Y0599950D01*
X0231239Y0602202D02*
X0229738Y0602202D01*
X0228137Y0599950D02*
X0225134Y0599950D01*
X0225134Y0604454D01*
X0306300Y0547300D02*
X0306300Y0539300D01*
D18*
X0336100Y0540634D02*
X0336334Y0540400D01*
X0336801Y0540400D01*
X0337034Y0540634D01*
X0337034Y0541801D01*
X0337573Y0541568D02*
X0337807Y0541801D01*
X0338274Y0541801D01*
X0338507Y0541568D01*
X0338507Y0541334D01*
X0337573Y0540400D01*
X0338507Y0540400D01*
X0336100Y0540634D02*
X0336100Y0541801D01*
X0305274Y0604900D02*
X0304807Y0604900D01*
X0304573Y0605134D01*
X0304034Y0605134D02*
X0304034Y0606301D01*
X0304573Y0606068D02*
X0304807Y0606301D01*
X0305274Y0606301D01*
X0305507Y0606068D01*
X0305507Y0605834D01*
X0305274Y0605601D01*
X0305507Y0605367D01*
X0305507Y0605134D01*
X0305274Y0604900D01*
X0305274Y0605601D02*
X0305040Y0605601D01*
X0304034Y0605134D02*
X0303801Y0604900D01*
X0303334Y0604900D01*
X0303100Y0605134D01*
X0303100Y0606301D01*
X0323947Y0462701D02*
X0324414Y0462701D01*
X0324181Y0462701D02*
X0324181Y0461534D01*
X0323947Y0461300D01*
X0323714Y0461300D01*
X0323480Y0461534D01*
X0324953Y0461767D02*
X0325654Y0461767D01*
X0325888Y0462001D01*
X0325888Y0462468D01*
X0325654Y0462701D01*
X0324953Y0462701D01*
X0324953Y0461300D01*
X0326427Y0461534D02*
X0326660Y0461300D01*
X0327127Y0461300D01*
X0327361Y0461534D01*
X0327361Y0461767D01*
X0327127Y0462001D01*
X0326894Y0462001D01*
X0327127Y0462001D02*
X0327361Y0462234D01*
X0327361Y0462468D01*
X0327127Y0462701D01*
X0326660Y0462701D01*
X0326427Y0462468D01*
X0310994Y0436701D02*
X0310994Y0435300D01*
X0310527Y0435300D02*
X0311461Y0435300D01*
X0310527Y0436234D02*
X0310994Y0436701D01*
X0309988Y0436701D02*
X0309053Y0435300D01*
X0309988Y0435300D02*
X0309053Y0436701D01*
X0400900Y0440134D02*
X0401134Y0439900D01*
X0401367Y0439900D01*
X0401601Y0440134D01*
X0401601Y0441301D01*
X0401834Y0441301D02*
X0401367Y0441301D01*
X0402373Y0441301D02*
X0403074Y0441301D01*
X0403307Y0441068D01*
X0403307Y0440601D01*
X0403074Y0440367D01*
X0402373Y0440367D01*
X0402373Y0439900D02*
X0402373Y0441301D01*
X0403847Y0440601D02*
X0404781Y0440601D01*
X0404547Y0441301D02*
X0403847Y0440601D01*
X0404547Y0441301D02*
X0404547Y0439900D01*
D19*
X0357286Y0590434D02*
X0354150Y0593570D01*
X0357286Y0590434D01*
X0357286Y0592002D02*
X0354150Y0592002D01*
X0357286Y0592002D01*
X0357286Y0593570D02*
X0354150Y0590434D01*
X0357286Y0593570D01*
X0355718Y0593570D02*
X0355718Y0590434D01*
X0355718Y0593570D01*
D20*
X0358900Y0440515D02*
X0358900Y0438646D01*
X0358900Y0439581D02*
X0356098Y0439581D01*
X0357032Y0438646D01*
X0356995Y0432003D02*
X0356528Y0432003D01*
X0356061Y0431536D01*
X0356061Y0430602D01*
X0356528Y0430135D01*
X0356995Y0432003D02*
X0358863Y0430135D01*
X0358863Y0432003D01*
X0358433Y0422903D02*
X0358900Y0422436D01*
X0358900Y0421502D01*
X0358433Y0421035D01*
X0357499Y0421969D02*
X0357499Y0422436D01*
X0357966Y0422903D01*
X0358433Y0422903D01*
X0357499Y0422436D02*
X0357032Y0422903D01*
X0356565Y0422903D01*
X0356098Y0422436D01*
X0356098Y0421502D01*
X0356565Y0421035D01*
X0383098Y0418955D02*
X0384499Y0417553D01*
X0384499Y0419422D01*
X0385900Y0418955D02*
X0383098Y0418955D01*
D21*
X0428800Y0538209D02*
X0428209Y0538800D01*
X0428898Y0539489D01*
X0429489Y0538898D01*
X0428800Y0538209D01*
X0428800Y0544209D02*
X0428209Y0544800D01*
X0428898Y0545489D01*
X0429489Y0544898D01*
X0428800Y0544209D01*
X0428800Y0550209D02*
X0428209Y0550800D01*
X0428898Y0551489D01*
X0429489Y0550898D01*
X0428800Y0550209D01*
D22*
X0429883Y0549225D03*
X0429883Y0543225D03*
X0429883Y0537225D03*
M02*
