G75*
%MOIN*%
%OFA0B0*%
%FSLAX25Y25*%
%IPPOS*%
%LPD*%
%AMOC8*
5,1,8,0,0,1.08239X$1,22.5*
%
%ADD10C,0.00000*%
%ADD11C,0.01000*%
D10*
X0267800Y0413800D02*
X0258300Y0423300D01*
X0258300Y0598800D01*
X0203800Y0598800D01*
X0264193Y0537489D02*
X0264195Y0537614D01*
X0264201Y0537740D01*
X0264211Y0537864D01*
X0264225Y0537989D01*
X0264243Y0538113D01*
X0264264Y0538237D01*
X0264290Y0538359D01*
X0264320Y0538481D01*
X0264353Y0538602D01*
X0264390Y0538722D01*
X0264431Y0538840D01*
X0264476Y0538957D01*
X0264524Y0539073D01*
X0264576Y0539187D01*
X0264632Y0539299D01*
X0264691Y0539409D01*
X0264754Y0539518D01*
X0264820Y0539625D01*
X0264889Y0539729D01*
X0264962Y0539831D01*
X0265038Y0539931D01*
X0265117Y0540028D01*
X0265199Y0540123D01*
X0265284Y0540215D01*
X0265372Y0540304D01*
X0265463Y0540391D01*
X0265556Y0540474D01*
X0265652Y0540555D01*
X0265751Y0540632D01*
X0265852Y0540707D01*
X0265955Y0540778D01*
X0266060Y0540845D01*
X0266168Y0540910D01*
X0266278Y0540971D01*
X0266389Y0541028D01*
X0266502Y0541082D01*
X0266617Y0541132D01*
X0266733Y0541179D01*
X0266851Y0541222D01*
X0266970Y0541261D01*
X0267090Y0541296D01*
X0267212Y0541328D01*
X0267334Y0541355D01*
X0267457Y0541379D01*
X0267581Y0541399D01*
X0267705Y0541415D01*
X0267830Y0541427D01*
X0267955Y0541435D01*
X0268080Y0541439D01*
X0268206Y0541439D01*
X0268331Y0541435D01*
X0268456Y0541427D01*
X0268581Y0541415D01*
X0268705Y0541399D01*
X0268829Y0541379D01*
X0268952Y0541355D01*
X0269074Y0541328D01*
X0269196Y0541296D01*
X0269316Y0541261D01*
X0269435Y0541222D01*
X0269553Y0541179D01*
X0269669Y0541132D01*
X0269784Y0541082D01*
X0269897Y0541028D01*
X0270008Y0540971D01*
X0270118Y0540910D01*
X0270226Y0540845D01*
X0270331Y0540778D01*
X0270434Y0540707D01*
X0270535Y0540632D01*
X0270634Y0540555D01*
X0270730Y0540474D01*
X0270823Y0540391D01*
X0270914Y0540304D01*
X0271002Y0540215D01*
X0271087Y0540123D01*
X0271169Y0540028D01*
X0271248Y0539931D01*
X0271324Y0539831D01*
X0271397Y0539729D01*
X0271466Y0539625D01*
X0271532Y0539518D01*
X0271595Y0539409D01*
X0271654Y0539299D01*
X0271710Y0539187D01*
X0271762Y0539073D01*
X0271810Y0538957D01*
X0271855Y0538840D01*
X0271896Y0538722D01*
X0271933Y0538602D01*
X0271966Y0538481D01*
X0271996Y0538359D01*
X0272022Y0538237D01*
X0272043Y0538113D01*
X0272061Y0537989D01*
X0272075Y0537864D01*
X0272085Y0537740D01*
X0272091Y0537614D01*
X0272093Y0537489D01*
X0272091Y0537364D01*
X0272085Y0537238D01*
X0272075Y0537114D01*
X0272061Y0536989D01*
X0272043Y0536865D01*
X0272022Y0536741D01*
X0271996Y0536619D01*
X0271966Y0536497D01*
X0271933Y0536376D01*
X0271896Y0536256D01*
X0271855Y0536138D01*
X0271810Y0536021D01*
X0271762Y0535905D01*
X0271710Y0535791D01*
X0271654Y0535679D01*
X0271595Y0535569D01*
X0271532Y0535460D01*
X0271466Y0535353D01*
X0271397Y0535249D01*
X0271324Y0535147D01*
X0271248Y0535047D01*
X0271169Y0534950D01*
X0271087Y0534855D01*
X0271002Y0534763D01*
X0270914Y0534674D01*
X0270823Y0534587D01*
X0270730Y0534504D01*
X0270634Y0534423D01*
X0270535Y0534346D01*
X0270434Y0534271D01*
X0270331Y0534200D01*
X0270226Y0534133D01*
X0270118Y0534068D01*
X0270008Y0534007D01*
X0269897Y0533950D01*
X0269784Y0533896D01*
X0269669Y0533846D01*
X0269553Y0533799D01*
X0269435Y0533756D01*
X0269316Y0533717D01*
X0269196Y0533682D01*
X0269074Y0533650D01*
X0268952Y0533623D01*
X0268829Y0533599D01*
X0268705Y0533579D01*
X0268581Y0533563D01*
X0268456Y0533551D01*
X0268331Y0533543D01*
X0268206Y0533539D01*
X0268080Y0533539D01*
X0267955Y0533543D01*
X0267830Y0533551D01*
X0267705Y0533563D01*
X0267581Y0533579D01*
X0267457Y0533599D01*
X0267334Y0533623D01*
X0267212Y0533650D01*
X0267090Y0533682D01*
X0266970Y0533717D01*
X0266851Y0533756D01*
X0266733Y0533799D01*
X0266617Y0533846D01*
X0266502Y0533896D01*
X0266389Y0533950D01*
X0266278Y0534007D01*
X0266168Y0534068D01*
X0266060Y0534133D01*
X0265955Y0534200D01*
X0265852Y0534271D01*
X0265751Y0534346D01*
X0265652Y0534423D01*
X0265556Y0534504D01*
X0265463Y0534587D01*
X0265372Y0534674D01*
X0265284Y0534763D01*
X0265199Y0534855D01*
X0265117Y0534950D01*
X0265038Y0535047D01*
X0264962Y0535147D01*
X0264889Y0535249D01*
X0264820Y0535353D01*
X0264754Y0535460D01*
X0264691Y0535569D01*
X0264632Y0535679D01*
X0264576Y0535791D01*
X0264524Y0535905D01*
X0264476Y0536021D01*
X0264431Y0536138D01*
X0264390Y0536256D01*
X0264353Y0536376D01*
X0264320Y0536497D01*
X0264290Y0536619D01*
X0264264Y0536741D01*
X0264243Y0536865D01*
X0264225Y0536989D01*
X0264211Y0537114D01*
X0264201Y0537238D01*
X0264195Y0537364D01*
X0264193Y0537489D01*
X0264193Y0461111D02*
X0264195Y0461236D01*
X0264201Y0461362D01*
X0264211Y0461486D01*
X0264225Y0461611D01*
X0264243Y0461735D01*
X0264264Y0461859D01*
X0264290Y0461981D01*
X0264320Y0462103D01*
X0264353Y0462224D01*
X0264390Y0462344D01*
X0264431Y0462462D01*
X0264476Y0462579D01*
X0264524Y0462695D01*
X0264576Y0462809D01*
X0264632Y0462921D01*
X0264691Y0463031D01*
X0264754Y0463140D01*
X0264820Y0463247D01*
X0264889Y0463351D01*
X0264962Y0463453D01*
X0265038Y0463553D01*
X0265117Y0463650D01*
X0265199Y0463745D01*
X0265284Y0463837D01*
X0265372Y0463926D01*
X0265463Y0464013D01*
X0265556Y0464096D01*
X0265652Y0464177D01*
X0265751Y0464254D01*
X0265852Y0464329D01*
X0265955Y0464400D01*
X0266060Y0464467D01*
X0266168Y0464532D01*
X0266278Y0464593D01*
X0266389Y0464650D01*
X0266502Y0464704D01*
X0266617Y0464754D01*
X0266733Y0464801D01*
X0266851Y0464844D01*
X0266970Y0464883D01*
X0267090Y0464918D01*
X0267212Y0464950D01*
X0267334Y0464977D01*
X0267457Y0465001D01*
X0267581Y0465021D01*
X0267705Y0465037D01*
X0267830Y0465049D01*
X0267955Y0465057D01*
X0268080Y0465061D01*
X0268206Y0465061D01*
X0268331Y0465057D01*
X0268456Y0465049D01*
X0268581Y0465037D01*
X0268705Y0465021D01*
X0268829Y0465001D01*
X0268952Y0464977D01*
X0269074Y0464950D01*
X0269196Y0464918D01*
X0269316Y0464883D01*
X0269435Y0464844D01*
X0269553Y0464801D01*
X0269669Y0464754D01*
X0269784Y0464704D01*
X0269897Y0464650D01*
X0270008Y0464593D01*
X0270118Y0464532D01*
X0270226Y0464467D01*
X0270331Y0464400D01*
X0270434Y0464329D01*
X0270535Y0464254D01*
X0270634Y0464177D01*
X0270730Y0464096D01*
X0270823Y0464013D01*
X0270914Y0463926D01*
X0271002Y0463837D01*
X0271087Y0463745D01*
X0271169Y0463650D01*
X0271248Y0463553D01*
X0271324Y0463453D01*
X0271397Y0463351D01*
X0271466Y0463247D01*
X0271532Y0463140D01*
X0271595Y0463031D01*
X0271654Y0462921D01*
X0271710Y0462809D01*
X0271762Y0462695D01*
X0271810Y0462579D01*
X0271855Y0462462D01*
X0271896Y0462344D01*
X0271933Y0462224D01*
X0271966Y0462103D01*
X0271996Y0461981D01*
X0272022Y0461859D01*
X0272043Y0461735D01*
X0272061Y0461611D01*
X0272075Y0461486D01*
X0272085Y0461362D01*
X0272091Y0461236D01*
X0272093Y0461111D01*
X0272091Y0460986D01*
X0272085Y0460860D01*
X0272075Y0460736D01*
X0272061Y0460611D01*
X0272043Y0460487D01*
X0272022Y0460363D01*
X0271996Y0460241D01*
X0271966Y0460119D01*
X0271933Y0459998D01*
X0271896Y0459878D01*
X0271855Y0459760D01*
X0271810Y0459643D01*
X0271762Y0459527D01*
X0271710Y0459413D01*
X0271654Y0459301D01*
X0271595Y0459191D01*
X0271532Y0459082D01*
X0271466Y0458975D01*
X0271397Y0458871D01*
X0271324Y0458769D01*
X0271248Y0458669D01*
X0271169Y0458572D01*
X0271087Y0458477D01*
X0271002Y0458385D01*
X0270914Y0458296D01*
X0270823Y0458209D01*
X0270730Y0458126D01*
X0270634Y0458045D01*
X0270535Y0457968D01*
X0270434Y0457893D01*
X0270331Y0457822D01*
X0270226Y0457755D01*
X0270118Y0457690D01*
X0270008Y0457629D01*
X0269897Y0457572D01*
X0269784Y0457518D01*
X0269669Y0457468D01*
X0269553Y0457421D01*
X0269435Y0457378D01*
X0269316Y0457339D01*
X0269196Y0457304D01*
X0269074Y0457272D01*
X0268952Y0457245D01*
X0268829Y0457221D01*
X0268705Y0457201D01*
X0268581Y0457185D01*
X0268456Y0457173D01*
X0268331Y0457165D01*
X0268206Y0457161D01*
X0268080Y0457161D01*
X0267955Y0457165D01*
X0267830Y0457173D01*
X0267705Y0457185D01*
X0267581Y0457201D01*
X0267457Y0457221D01*
X0267334Y0457245D01*
X0267212Y0457272D01*
X0267090Y0457304D01*
X0266970Y0457339D01*
X0266851Y0457378D01*
X0266733Y0457421D01*
X0266617Y0457468D01*
X0266502Y0457518D01*
X0266389Y0457572D01*
X0266278Y0457629D01*
X0266168Y0457690D01*
X0266060Y0457755D01*
X0265955Y0457822D01*
X0265852Y0457893D01*
X0265751Y0457968D01*
X0265652Y0458045D01*
X0265556Y0458126D01*
X0265463Y0458209D01*
X0265372Y0458296D01*
X0265284Y0458385D01*
X0265199Y0458477D01*
X0265117Y0458572D01*
X0265038Y0458669D01*
X0264962Y0458769D01*
X0264889Y0458871D01*
X0264820Y0458975D01*
X0264754Y0459082D01*
X0264691Y0459191D01*
X0264632Y0459301D01*
X0264576Y0459413D01*
X0264524Y0459527D01*
X0264476Y0459643D01*
X0264431Y0459760D01*
X0264390Y0459878D01*
X0264353Y0459998D01*
X0264320Y0460119D01*
X0264290Y0460241D01*
X0264264Y0460363D01*
X0264243Y0460487D01*
X0264225Y0460611D01*
X0264211Y0460736D01*
X0264201Y0460860D01*
X0264195Y0460986D01*
X0264193Y0461111D01*
X0267800Y0413800D02*
X0459800Y0413800D01*
X0469300Y0423300D01*
X0469300Y0598800D01*
X0523800Y0598800D01*
X0455507Y0537489D02*
X0455509Y0537614D01*
X0455515Y0537740D01*
X0455525Y0537864D01*
X0455539Y0537989D01*
X0455557Y0538113D01*
X0455578Y0538237D01*
X0455604Y0538359D01*
X0455634Y0538481D01*
X0455667Y0538602D01*
X0455704Y0538722D01*
X0455745Y0538840D01*
X0455790Y0538957D01*
X0455838Y0539073D01*
X0455890Y0539187D01*
X0455946Y0539299D01*
X0456005Y0539409D01*
X0456068Y0539518D01*
X0456134Y0539625D01*
X0456203Y0539729D01*
X0456276Y0539831D01*
X0456352Y0539931D01*
X0456431Y0540028D01*
X0456513Y0540123D01*
X0456598Y0540215D01*
X0456686Y0540304D01*
X0456777Y0540391D01*
X0456870Y0540474D01*
X0456966Y0540555D01*
X0457065Y0540632D01*
X0457166Y0540707D01*
X0457269Y0540778D01*
X0457374Y0540845D01*
X0457482Y0540910D01*
X0457592Y0540971D01*
X0457703Y0541028D01*
X0457816Y0541082D01*
X0457931Y0541132D01*
X0458047Y0541179D01*
X0458165Y0541222D01*
X0458284Y0541261D01*
X0458404Y0541296D01*
X0458526Y0541328D01*
X0458648Y0541355D01*
X0458771Y0541379D01*
X0458895Y0541399D01*
X0459019Y0541415D01*
X0459144Y0541427D01*
X0459269Y0541435D01*
X0459394Y0541439D01*
X0459520Y0541439D01*
X0459645Y0541435D01*
X0459770Y0541427D01*
X0459895Y0541415D01*
X0460019Y0541399D01*
X0460143Y0541379D01*
X0460266Y0541355D01*
X0460388Y0541328D01*
X0460510Y0541296D01*
X0460630Y0541261D01*
X0460749Y0541222D01*
X0460867Y0541179D01*
X0460983Y0541132D01*
X0461098Y0541082D01*
X0461211Y0541028D01*
X0461322Y0540971D01*
X0461432Y0540910D01*
X0461540Y0540845D01*
X0461645Y0540778D01*
X0461748Y0540707D01*
X0461849Y0540632D01*
X0461948Y0540555D01*
X0462044Y0540474D01*
X0462137Y0540391D01*
X0462228Y0540304D01*
X0462316Y0540215D01*
X0462401Y0540123D01*
X0462483Y0540028D01*
X0462562Y0539931D01*
X0462638Y0539831D01*
X0462711Y0539729D01*
X0462780Y0539625D01*
X0462846Y0539518D01*
X0462909Y0539409D01*
X0462968Y0539299D01*
X0463024Y0539187D01*
X0463076Y0539073D01*
X0463124Y0538957D01*
X0463169Y0538840D01*
X0463210Y0538722D01*
X0463247Y0538602D01*
X0463280Y0538481D01*
X0463310Y0538359D01*
X0463336Y0538237D01*
X0463357Y0538113D01*
X0463375Y0537989D01*
X0463389Y0537864D01*
X0463399Y0537740D01*
X0463405Y0537614D01*
X0463407Y0537489D01*
X0463405Y0537364D01*
X0463399Y0537238D01*
X0463389Y0537114D01*
X0463375Y0536989D01*
X0463357Y0536865D01*
X0463336Y0536741D01*
X0463310Y0536619D01*
X0463280Y0536497D01*
X0463247Y0536376D01*
X0463210Y0536256D01*
X0463169Y0536138D01*
X0463124Y0536021D01*
X0463076Y0535905D01*
X0463024Y0535791D01*
X0462968Y0535679D01*
X0462909Y0535569D01*
X0462846Y0535460D01*
X0462780Y0535353D01*
X0462711Y0535249D01*
X0462638Y0535147D01*
X0462562Y0535047D01*
X0462483Y0534950D01*
X0462401Y0534855D01*
X0462316Y0534763D01*
X0462228Y0534674D01*
X0462137Y0534587D01*
X0462044Y0534504D01*
X0461948Y0534423D01*
X0461849Y0534346D01*
X0461748Y0534271D01*
X0461645Y0534200D01*
X0461540Y0534133D01*
X0461432Y0534068D01*
X0461322Y0534007D01*
X0461211Y0533950D01*
X0461098Y0533896D01*
X0460983Y0533846D01*
X0460867Y0533799D01*
X0460749Y0533756D01*
X0460630Y0533717D01*
X0460510Y0533682D01*
X0460388Y0533650D01*
X0460266Y0533623D01*
X0460143Y0533599D01*
X0460019Y0533579D01*
X0459895Y0533563D01*
X0459770Y0533551D01*
X0459645Y0533543D01*
X0459520Y0533539D01*
X0459394Y0533539D01*
X0459269Y0533543D01*
X0459144Y0533551D01*
X0459019Y0533563D01*
X0458895Y0533579D01*
X0458771Y0533599D01*
X0458648Y0533623D01*
X0458526Y0533650D01*
X0458404Y0533682D01*
X0458284Y0533717D01*
X0458165Y0533756D01*
X0458047Y0533799D01*
X0457931Y0533846D01*
X0457816Y0533896D01*
X0457703Y0533950D01*
X0457592Y0534007D01*
X0457482Y0534068D01*
X0457374Y0534133D01*
X0457269Y0534200D01*
X0457166Y0534271D01*
X0457065Y0534346D01*
X0456966Y0534423D01*
X0456870Y0534504D01*
X0456777Y0534587D01*
X0456686Y0534674D01*
X0456598Y0534763D01*
X0456513Y0534855D01*
X0456431Y0534950D01*
X0456352Y0535047D01*
X0456276Y0535147D01*
X0456203Y0535249D01*
X0456134Y0535353D01*
X0456068Y0535460D01*
X0456005Y0535569D01*
X0455946Y0535679D01*
X0455890Y0535791D01*
X0455838Y0535905D01*
X0455790Y0536021D01*
X0455745Y0536138D01*
X0455704Y0536256D01*
X0455667Y0536376D01*
X0455634Y0536497D01*
X0455604Y0536619D01*
X0455578Y0536741D01*
X0455557Y0536865D01*
X0455539Y0536989D01*
X0455525Y0537114D01*
X0455515Y0537238D01*
X0455509Y0537364D01*
X0455507Y0537489D01*
X0455507Y0461111D02*
X0455509Y0461236D01*
X0455515Y0461362D01*
X0455525Y0461486D01*
X0455539Y0461611D01*
X0455557Y0461735D01*
X0455578Y0461859D01*
X0455604Y0461981D01*
X0455634Y0462103D01*
X0455667Y0462224D01*
X0455704Y0462344D01*
X0455745Y0462462D01*
X0455790Y0462579D01*
X0455838Y0462695D01*
X0455890Y0462809D01*
X0455946Y0462921D01*
X0456005Y0463031D01*
X0456068Y0463140D01*
X0456134Y0463247D01*
X0456203Y0463351D01*
X0456276Y0463453D01*
X0456352Y0463553D01*
X0456431Y0463650D01*
X0456513Y0463745D01*
X0456598Y0463837D01*
X0456686Y0463926D01*
X0456777Y0464013D01*
X0456870Y0464096D01*
X0456966Y0464177D01*
X0457065Y0464254D01*
X0457166Y0464329D01*
X0457269Y0464400D01*
X0457374Y0464467D01*
X0457482Y0464532D01*
X0457592Y0464593D01*
X0457703Y0464650D01*
X0457816Y0464704D01*
X0457931Y0464754D01*
X0458047Y0464801D01*
X0458165Y0464844D01*
X0458284Y0464883D01*
X0458404Y0464918D01*
X0458526Y0464950D01*
X0458648Y0464977D01*
X0458771Y0465001D01*
X0458895Y0465021D01*
X0459019Y0465037D01*
X0459144Y0465049D01*
X0459269Y0465057D01*
X0459394Y0465061D01*
X0459520Y0465061D01*
X0459645Y0465057D01*
X0459770Y0465049D01*
X0459895Y0465037D01*
X0460019Y0465021D01*
X0460143Y0465001D01*
X0460266Y0464977D01*
X0460388Y0464950D01*
X0460510Y0464918D01*
X0460630Y0464883D01*
X0460749Y0464844D01*
X0460867Y0464801D01*
X0460983Y0464754D01*
X0461098Y0464704D01*
X0461211Y0464650D01*
X0461322Y0464593D01*
X0461432Y0464532D01*
X0461540Y0464467D01*
X0461645Y0464400D01*
X0461748Y0464329D01*
X0461849Y0464254D01*
X0461948Y0464177D01*
X0462044Y0464096D01*
X0462137Y0464013D01*
X0462228Y0463926D01*
X0462316Y0463837D01*
X0462401Y0463745D01*
X0462483Y0463650D01*
X0462562Y0463553D01*
X0462638Y0463453D01*
X0462711Y0463351D01*
X0462780Y0463247D01*
X0462846Y0463140D01*
X0462909Y0463031D01*
X0462968Y0462921D01*
X0463024Y0462809D01*
X0463076Y0462695D01*
X0463124Y0462579D01*
X0463169Y0462462D01*
X0463210Y0462344D01*
X0463247Y0462224D01*
X0463280Y0462103D01*
X0463310Y0461981D01*
X0463336Y0461859D01*
X0463357Y0461735D01*
X0463375Y0461611D01*
X0463389Y0461486D01*
X0463399Y0461362D01*
X0463405Y0461236D01*
X0463407Y0461111D01*
X0463405Y0460986D01*
X0463399Y0460860D01*
X0463389Y0460736D01*
X0463375Y0460611D01*
X0463357Y0460487D01*
X0463336Y0460363D01*
X0463310Y0460241D01*
X0463280Y0460119D01*
X0463247Y0459998D01*
X0463210Y0459878D01*
X0463169Y0459760D01*
X0463124Y0459643D01*
X0463076Y0459527D01*
X0463024Y0459413D01*
X0462968Y0459301D01*
X0462909Y0459191D01*
X0462846Y0459082D01*
X0462780Y0458975D01*
X0462711Y0458871D01*
X0462638Y0458769D01*
X0462562Y0458669D01*
X0462483Y0458572D01*
X0462401Y0458477D01*
X0462316Y0458385D01*
X0462228Y0458296D01*
X0462137Y0458209D01*
X0462044Y0458126D01*
X0461948Y0458045D01*
X0461849Y0457968D01*
X0461748Y0457893D01*
X0461645Y0457822D01*
X0461540Y0457755D01*
X0461432Y0457690D01*
X0461322Y0457629D01*
X0461211Y0457572D01*
X0461098Y0457518D01*
X0460983Y0457468D01*
X0460867Y0457421D01*
X0460749Y0457378D01*
X0460630Y0457339D01*
X0460510Y0457304D01*
X0460388Y0457272D01*
X0460266Y0457245D01*
X0460143Y0457221D01*
X0460019Y0457201D01*
X0459895Y0457185D01*
X0459770Y0457173D01*
X0459645Y0457165D01*
X0459520Y0457161D01*
X0459394Y0457161D01*
X0459269Y0457165D01*
X0459144Y0457173D01*
X0459019Y0457185D01*
X0458895Y0457201D01*
X0458771Y0457221D01*
X0458648Y0457245D01*
X0458526Y0457272D01*
X0458404Y0457304D01*
X0458284Y0457339D01*
X0458165Y0457378D01*
X0458047Y0457421D01*
X0457931Y0457468D01*
X0457816Y0457518D01*
X0457703Y0457572D01*
X0457592Y0457629D01*
X0457482Y0457690D01*
X0457374Y0457755D01*
X0457269Y0457822D01*
X0457166Y0457893D01*
X0457065Y0457968D01*
X0456966Y0458045D01*
X0456870Y0458126D01*
X0456777Y0458209D01*
X0456686Y0458296D01*
X0456598Y0458385D01*
X0456513Y0458477D01*
X0456431Y0458572D01*
X0456352Y0458669D01*
X0456276Y0458769D01*
X0456203Y0458871D01*
X0456134Y0458975D01*
X0456068Y0459082D01*
X0456005Y0459191D01*
X0455946Y0459301D01*
X0455890Y0459413D01*
X0455838Y0459527D01*
X0455790Y0459643D01*
X0455745Y0459760D01*
X0455704Y0459878D01*
X0455667Y0459998D01*
X0455634Y0460119D01*
X0455604Y0460241D01*
X0455578Y0460363D01*
X0455557Y0460487D01*
X0455539Y0460611D01*
X0455525Y0460736D01*
X0455515Y0460860D01*
X0455509Y0460986D01*
X0455507Y0461111D01*
X0523800Y0598800D02*
X0523061Y0602711D01*
X0522226Y0606602D01*
X0521297Y0610472D01*
X0520272Y0614317D01*
X0519154Y0618137D01*
X0517943Y0621928D01*
X0516639Y0625688D01*
X0515244Y0629415D01*
X0513758Y0633106D01*
X0512181Y0636761D01*
X0510516Y0640375D01*
X0508763Y0643948D01*
X0506922Y0647476D01*
X0504996Y0650959D01*
X0502985Y0654393D01*
X0500891Y0657777D01*
X0498714Y0661109D01*
X0496457Y0664386D01*
X0494119Y0667607D01*
X0491704Y0670770D01*
X0489212Y0673873D01*
X0486644Y0676914D01*
X0484003Y0679891D01*
X0481290Y0682802D01*
X0478506Y0685646D01*
X0475654Y0688421D01*
X0472734Y0691125D01*
X0469749Y0693757D01*
X0466700Y0696315D01*
X0463590Y0698798D01*
X0460420Y0701204D01*
X0457191Y0703531D01*
X0453907Y0705779D01*
X0450569Y0707945D01*
X0447179Y0710029D01*
X0443738Y0712030D01*
X0440250Y0713945D01*
X0436716Y0715775D01*
X0433138Y0717517D01*
X0429518Y0719171D01*
X0425859Y0720736D01*
X0422163Y0722211D01*
X0418431Y0723595D01*
X0414667Y0724888D01*
X0410873Y0726087D01*
X0407050Y0727194D01*
X0403201Y0728206D01*
X0399329Y0729124D01*
X0395435Y0729946D01*
X0391522Y0730673D01*
X0387593Y0731304D01*
X0383649Y0731839D01*
X0379694Y0732277D01*
X0375729Y0732617D01*
X0371756Y0732861D01*
X0367779Y0733007D01*
X0363800Y0733056D01*
X0359821Y0733007D01*
X0355844Y0732861D01*
X0351871Y0732617D01*
X0347906Y0732277D01*
X0343951Y0731839D01*
X0340007Y0731304D01*
X0336078Y0730673D01*
X0332165Y0729946D01*
X0328271Y0729124D01*
X0324399Y0728206D01*
X0320550Y0727194D01*
X0316727Y0726087D01*
X0312933Y0724888D01*
X0309169Y0723595D01*
X0305437Y0722211D01*
X0301741Y0720736D01*
X0298082Y0719171D01*
X0294462Y0717517D01*
X0290884Y0715775D01*
X0287350Y0713945D01*
X0283862Y0712030D01*
X0280421Y0710029D01*
X0277031Y0707945D01*
X0273693Y0705779D01*
X0270409Y0703531D01*
X0267180Y0701204D01*
X0264010Y0698798D01*
X0260900Y0696315D01*
X0257851Y0693757D01*
X0254866Y0691125D01*
X0251946Y0688421D01*
X0249094Y0685646D01*
X0246310Y0682802D01*
X0243597Y0679891D01*
X0240956Y0676914D01*
X0238388Y0673873D01*
X0235896Y0670770D01*
X0233481Y0667607D01*
X0231143Y0664386D01*
X0228886Y0661109D01*
X0226709Y0657777D01*
X0224615Y0654393D01*
X0222604Y0650959D01*
X0220678Y0647476D01*
X0218837Y0643948D01*
X0217084Y0640375D01*
X0215419Y0636761D01*
X0213842Y0633106D01*
X0212356Y0629415D01*
X0210961Y0625688D01*
X0209657Y0621928D01*
X0208446Y0618137D01*
X0207328Y0614317D01*
X0206303Y0610472D01*
X0205374Y0606602D01*
X0204539Y0602711D01*
X0203800Y0598800D01*
D11*
X0275800Y0523800D02*
X0275800Y0471800D01*
X0352300Y0471800D01*
X0352300Y0523800D01*
X0275800Y0523800D01*
X0275800Y0523614D02*
X0352300Y0523614D01*
X0352300Y0522615D02*
X0275800Y0522615D01*
X0275800Y0521617D02*
X0352300Y0521617D01*
X0352300Y0520618D02*
X0275800Y0520618D01*
X0275800Y0519620D02*
X0352300Y0519620D01*
X0352300Y0518621D02*
X0275800Y0518621D01*
X0275800Y0517623D02*
X0352300Y0517623D01*
X0352300Y0516624D02*
X0275800Y0516624D01*
X0275800Y0515626D02*
X0352300Y0515626D01*
X0352300Y0514627D02*
X0275800Y0514627D01*
X0275800Y0513629D02*
X0352300Y0513629D01*
X0352300Y0512630D02*
X0275800Y0512630D01*
X0275800Y0511632D02*
X0352300Y0511632D01*
X0352300Y0510633D02*
X0275800Y0510633D01*
X0275800Y0509635D02*
X0352300Y0509635D01*
X0352300Y0508636D02*
X0275800Y0508636D01*
X0275800Y0507638D02*
X0352300Y0507638D01*
X0352300Y0506639D02*
X0275800Y0506639D01*
X0275800Y0505641D02*
X0352300Y0505641D01*
X0352300Y0504642D02*
X0275800Y0504642D01*
X0275800Y0503644D02*
X0352300Y0503644D01*
X0352300Y0502645D02*
X0275800Y0502645D01*
X0275800Y0501647D02*
X0352300Y0501647D01*
X0352300Y0500648D02*
X0275800Y0500648D01*
X0275800Y0499650D02*
X0352300Y0499650D01*
X0352300Y0498651D02*
X0275800Y0498651D01*
X0275800Y0497653D02*
X0352300Y0497653D01*
X0352300Y0496654D02*
X0275800Y0496654D01*
X0275800Y0495656D02*
X0352300Y0495656D01*
X0352300Y0494657D02*
X0275800Y0494657D01*
X0275800Y0493659D02*
X0352300Y0493659D01*
X0352300Y0492660D02*
X0275800Y0492660D01*
X0275800Y0491662D02*
X0352300Y0491662D01*
X0352300Y0490663D02*
X0275800Y0490663D01*
X0275800Y0489665D02*
X0352300Y0489665D01*
X0352300Y0488666D02*
X0275800Y0488666D01*
X0275800Y0487668D02*
X0352300Y0487668D01*
X0352300Y0486669D02*
X0275800Y0486669D01*
X0275800Y0485670D02*
X0352300Y0485670D01*
X0352300Y0484672D02*
X0275800Y0484672D01*
X0275800Y0483673D02*
X0352300Y0483673D01*
X0352300Y0482675D02*
X0275800Y0482675D01*
X0275800Y0481676D02*
X0352300Y0481676D01*
X0352300Y0480678D02*
X0275800Y0480678D01*
X0275800Y0479679D02*
X0352300Y0479679D01*
X0352300Y0478681D02*
X0275800Y0478681D01*
X0275800Y0477682D02*
X0352300Y0477682D01*
X0352300Y0476684D02*
X0275800Y0476684D01*
X0275800Y0475685D02*
X0352300Y0475685D01*
X0352300Y0474687D02*
X0275800Y0474687D01*
X0275800Y0473688D02*
X0352300Y0473688D01*
X0352300Y0472690D02*
X0275800Y0472690D01*
X0375300Y0472690D02*
X0451800Y0472690D01*
X0451800Y0471800D02*
X0375300Y0471800D01*
X0375300Y0523800D01*
X0451800Y0523800D01*
X0451800Y0471800D01*
X0451800Y0473688D02*
X0375300Y0473688D01*
X0375300Y0474687D02*
X0451800Y0474687D01*
X0451800Y0475685D02*
X0375300Y0475685D01*
X0375300Y0476684D02*
X0451800Y0476684D01*
X0451800Y0477682D02*
X0375300Y0477682D01*
X0375300Y0478681D02*
X0451800Y0478681D01*
X0451800Y0479679D02*
X0375300Y0479679D01*
X0375300Y0480678D02*
X0451800Y0480678D01*
X0451800Y0481676D02*
X0375300Y0481676D01*
X0375300Y0482675D02*
X0451800Y0482675D01*
X0451800Y0483673D02*
X0375300Y0483673D01*
X0375300Y0484672D02*
X0451800Y0484672D01*
X0451800Y0485670D02*
X0375300Y0485670D01*
X0375300Y0486669D02*
X0451800Y0486669D01*
X0451800Y0487668D02*
X0375300Y0487668D01*
X0375300Y0488666D02*
X0451800Y0488666D01*
X0451800Y0489665D02*
X0375300Y0489665D01*
X0375300Y0490663D02*
X0451800Y0490663D01*
X0451800Y0491662D02*
X0375300Y0491662D01*
X0375300Y0492660D02*
X0451800Y0492660D01*
X0451800Y0493659D02*
X0375300Y0493659D01*
X0375300Y0494657D02*
X0451800Y0494657D01*
X0451800Y0495656D02*
X0375300Y0495656D01*
X0375300Y0496654D02*
X0451800Y0496654D01*
X0451800Y0497653D02*
X0375300Y0497653D01*
X0375300Y0498651D02*
X0451800Y0498651D01*
X0451800Y0499650D02*
X0375300Y0499650D01*
X0375300Y0500648D02*
X0451800Y0500648D01*
X0451800Y0501647D02*
X0375300Y0501647D01*
X0375300Y0502645D02*
X0451800Y0502645D01*
X0451800Y0503644D02*
X0375300Y0503644D01*
X0375300Y0504642D02*
X0451800Y0504642D01*
X0451800Y0505641D02*
X0375300Y0505641D01*
X0375300Y0506639D02*
X0451800Y0506639D01*
X0451800Y0507638D02*
X0375300Y0507638D01*
X0375300Y0508636D02*
X0451800Y0508636D01*
X0451800Y0509635D02*
X0375300Y0509635D01*
X0375300Y0510633D02*
X0451800Y0510633D01*
X0451800Y0511632D02*
X0375300Y0511632D01*
X0375300Y0512630D02*
X0451800Y0512630D01*
X0451800Y0513629D02*
X0375300Y0513629D01*
X0375300Y0514627D02*
X0451800Y0514627D01*
X0451800Y0515626D02*
X0375300Y0515626D01*
X0375300Y0516624D02*
X0451800Y0516624D01*
X0451800Y0517623D02*
X0375300Y0517623D01*
X0375300Y0518621D02*
X0451800Y0518621D01*
X0451800Y0519620D02*
X0375300Y0519620D01*
X0375300Y0520618D02*
X0451800Y0520618D01*
X0451800Y0521617D02*
X0375300Y0521617D01*
X0375300Y0522615D02*
X0451800Y0522615D01*
X0451800Y0523614D02*
X0375300Y0523614D01*
M02*
