%
M48
M72
T01C0.01600
T02C0.01969
T03C0.03150
T04C0.03200
T05C0.03543
T06C0.04000
T07C0.05118
T08C0.07900
%
T01
X322600Y430900
X368800Y431500
X433500Y443500
X389800Y541800
X379800Y543800
X375800Y546800
X373800Y558800
X377800Y558800
X392700Y558700
X403800Y551800
X385800Y572800
X381800Y572800
X377800Y572800
X373800Y575800
X370800Y578800
X367800Y585800
X347800Y597800
X335800Y603800
X327800Y576800
X327800Y572800
X327800Y568800
X327800Y564800
X327800Y560800
X327800Y556800
X327800Y552800
X312800Y567800
X312800Y576800
X286300Y548500
X307800Y543800
X351800Y558800
X355000Y562000
X361800Y555800
X402800Y593800
X401700Y597900
X410343Y594800
X413800Y598800
X413800Y583800
X417800Y583800
X437800Y565900
X434800Y557800
X397800Y608800
X376257Y618657
X376257Y623800
X362500Y645300
X358600Y645300
X346100Y672300
X372800Y672300
X430800Y626800
X296800Y620800
X293300Y612300
T02
X272300Y430300
X285800Y419300
X295300Y435300
X284800Y442800
X287300Y454300
X294800Y464800
X264800Y484300
X269800Y517800
X279300Y532800
X296300Y531300
X296000Y551200
X284200Y559100
X280800Y567800
X269300Y575800
X272300Y557300
X297800Y563800
X302800Y569500
X296000Y574500
X301000Y579600
X294800Y587800
X284700Y600300
X273800Y600800
X273743Y593257
X312800Y584800
X329800Y591800
X329300Y599300
X324300Y602800
X338800Y577800
X368300Y561800
X384300Y560300
X395300Y567800
X398800Y579300
X383800Y589800
X377800Y590300
X366300Y602300
X370800Y606800
X386800Y604800
X416300Y603800
X438257Y616343
X443800Y587800
X438800Y576800
X451300Y572800
X460300Y563800
X460800Y585300
X428800Y555800
X415800Y555800
X414800Y530300
X426800Y530800
X437800Y530800
X462800Y514800
X462800Y480800
X437800Y465300
X423300Y466300
X413800Y435000
X406900Y427800
X417800Y421300
X436800Y427800
X449300Y436800
X461800Y440800
X454800Y422800
X350800Y435300
X345300Y435300
X339800Y465800
X321800Y529800
X373800Y536600
X381300Y535800
X382300Y529800
X396300Y529300
X352800Y614800
X349800Y623800
X351300Y644800
X334800Y646800
X321800Y646800
X296300Y662300
X305300Y673300
X326800Y670300
X332898Y678702
X359800Y662800
X361300Y672300
X377800Y677300
X390800Y678800
X421300Y680800
X433800Y667800
X448300Y653800
X471800Y666800
X495300Y633800
X511800Y615800
X441300Y696300
X416800Y710800
X362300Y720300
X291300Y694800
X267800Y677300
X286300Y650800
X242800Y643800
X377800Y641800
X383800Y641800
X381800Y646800
X387800Y646800
T03
X457894Y628800
X463013Y623800
X468131Y628800
X384862Y703738
X377708Y703821
X377624Y710976
X348862Y709862
X348779Y702708
X341624Y702624
X268131Y628800
X263013Y623800
X257894Y628800
T04
X238800Y608800
X228800Y608800
X320264Y685264
X327336Y692336
X400264Y692336
X407336Y685264
X488800Y608800
X498800Y608800
T05
X332750Y422288
X325113Y422288
X317475Y422288
T06
X313800Y446300
X323800Y446300
X323800Y456300
X313800Y456300
X303800Y456300
X303800Y446300
X403800Y446300
X413800Y446300
X423800Y446300
X423800Y456300
X413800Y456300
X403800Y456300
X403800Y611800
X413800Y611800
X413800Y621800
X403800Y621800
X403800Y631800
X413800Y631800
X413800Y641800
X403800Y641800
T07
X334690Y633800
X315005Y633800
T08
X268143Y537489
X268143Y461111
X459457Y461111
X459457Y537489
M30
